<svg xmlns="http://www.w3.org/2000/svg" width="30" height="29" viewBox="-14 -16 32 30"><g><defs><radialGradient cx="0" cy="0" fx="0" fy="0" gradientTransform="matrix(0.00999451, 0, 0, 0.00999451, -0.75, -1.75)" gradientUnits="userSpaceOnUse" r="819.2" spreadMethod="pad" id="f52:0"><stop offset="0.5529411764705883" stop-color="rgb(255,149,149)"/><stop offset="1" stop-color="rgb(255,51,0)"/></radialGradient></defs></g><g id="0"><defs/><g><g id="0:4:52"><g transform="matrix(1.5,0,0,1.50146,0,0)"><path d="M4.95,-4.95Q7 -2.9 7 0Q7 2.9 4.95 4.95Q2.9 7 0 7Q-2.9 7 -4.9 4.95Q-7 2.9 -7 0Q-7 -2.9 -4.9 -4.95Q-2.9 -7 0 -7Q2.9 -7 4.95 -4.95" fill="url(#f52:0)"/><path d="M4.95,-4.95Q7 -2.9 7 0Q7 2.9 4.95 4.95Q2.9 7 0 7Q-2.9 7 -4.9 4.95Q-7 2.9 -7 0Q-7 -2.9 -4.9 -4.95Q-2.9 -7 0 -7Q2.9 -7 4.95 -4.95z" stroke="rgb(102,0,0)" stroke-linecap="round" stroke-linejoin="round" stroke-miterlimit="3" stroke-width="1" fill="none"/><path d="M-1.6,2.3L1.6 2.3" stroke="rgb(102,0,0)" stroke-linecap="round" stroke-linejoin="round" stroke-miterlimit="3" stroke-width="1" fill="none"/><path d="M-2.5,-2.25L-0.05 0.35L-3.65 0.35L-3.65 -0.45Q-3.45 -1.45 -2.5 -2.25" fill="rgb(255,255,255)" fill-opacity="1"/><path d="M-3.65,-0.45L-3.65 0.35L-0.05 0.35L-2.5 -2.25Q-3.45 -1.45 -3.65 -0.45M-2.5,-2.25L-3.55 -3.3M-3.65,0.35L-4.7 0.35" stroke="rgb(102,0,0)" stroke-linecap="round" stroke-linejoin="round" stroke-miterlimit="3" stroke-width="0.75" fill="none"/><path d="M2.5,-2.25Q3.45 -1.45 3.65 -0.45L3.65 0.35L0.05 0.35L2.5 -2.25" fill="rgb(255,255,255)" fill-opacity="1"/><path d="M3.65,0.35L0.05 0.35L2.5 -2.25L3.55 -3.3M2.5,-2.25Q3.45 -1.45 3.65 -0.45L3.65 0.35L4.7 0.35" stroke="rgb(102,0,0)" stroke-linecap="round" stroke-linejoin="round" stroke-miterlimit="3" stroke-width="0.75" fill="none"/></g></g><g id="0:5:43"><defs/><g transform="matrix(1.00002,0,0,1.00099,-4.05,-4.15)"><path d="M0.6,4.6Q0.15 4.15 0.15 3.55Q0.15 2.95 0.6 2.5Q1.05 2.05 1.65 2.05Q2.25 2.05 2.7 2.5Q3.15 2.95 3.15 3.55L2.7 4.6Q2.25 5.05 1.65 5.05Q1.05 5.05 0.6 4.6" fill="rgb(0,0,0)" fill-opacity="1"/></g></g><g id="0:6:43"><defs/><g transform="matrix(1.00002,0,0,1.00099,0.75,-4.15)"><path d="M0.6,4.6Q0.15 4.15 0.15 3.55Q0.15 2.95 0.6 2.5Q1.05 2.05 1.65 2.05Q2.25 2.05 2.7 2.5Q3.15 2.95 3.15 3.55L2.7 4.6Q2.25 5.05 1.65 5.05Q1.05 5.05 0.6 4.6" fill="rgb(0,0,0)" fill-opacity="1"/></g></g></g></g></svg>
