<svg xmlns="http://www.w3.org/2000/svg" width="30" height="29" viewBox="-14 -16 32 30"><g><defs/></g><g id="0"><defs/><g><g type="shape" id="0:2:100"><defs/><g transform="matrix(0.972321,0,0,0.80896,-2,2.2)"><path d="M8.45,-13.65Q6.4 -13.5 5.55 -12.1Q5 -11.2 4.9 -9.25L4.95 -8.1L-5.1 0.45L-8.25 -0.5Q-9.35 -0.5 -10.3 0.5Q-11.2 1.45 -11.25 2.85Q-11.3 3.7 -10.75 4.35L-10.45 4.55L-9.7 4.75L-7.05 5.6L-7.35 7.35L-7.65 8.85Q-7.65 9.9 -6.65 10.6L-4.9 10.95Q-3.55 10.75 -2.7 8.55Q-2.15 7.15 -2.05 5.85L-2.05 5.45L2.8 1.65L8.05 -2.15L9.6 -1.65L12.4 -1.4Q13.2 -1.5 14.15 -2.45Q15.3 -3.55 15.35 -4.95Q15.45 -6.3 14.55 -7.25L13.8 -7.8L12.5 -8.15L11 -7.8Q10.8 -7.8 11.1 -9.2L11.55 -11.8Q11.6 -12.65 10.85 -13.15Q10.15 -13.7 8.95 -13.7L8.45 -13.65z" stroke="rgb(104,82,32)" stroke-linecap="round" stroke-linejoin="round" stroke-miterlimit="3" stroke-width="3" fill="none"/><path d="M-10.75,4.35Q-11.3 3.7 -11.25 2.85Q-11.2 1.45 -10.3 0.5Q-9.35 -0.5 -8.25 -0.5L-5.1 0.45L4.95 -8.1L4.9 -9.25Q5 -11.2 5.55 -12.1Q6.4 -13.5 8.45 -13.65Q7.8 -13.1 7.75 -12.1L8.05 -9.1Q7.95 -7.3 6.45 -6L2.15 -2.6L-2.55 1.1Q-4.35 2.4 -5.25 2.4L-6.4 2.1Q-7.45 1.75 -7.85 1.75Q-9.3 1.75 -10.05 3.05Q-10.6 4.15 -10.45 4.55L-10.75 4.35" fill="rgb(255,238,150)" fill-opacity="1"/><path d="M13.65,-6.4Q13.35 -5.25 12.75 -4.55Q11.95 -3.4 10.6 -3.5L8.55 -3.75Q7.2 -3.45 2.6 -0.05Q-2.3 3.6 -2.35 4.8Q-2.4 5.2 -2.05 5.85Q-2.15 7.15 -2.7 8.55Q-3.55 10.75 -4.9 10.95L-6.65 10.6Q-7.65 9.9 -7.65 8.85L-7.35 7.35L-7.05 5.6L-9.7 4.75L-10.45 4.55Q-10.6 4.15 -10.05 3.05Q-9.3 1.75 -7.85 1.75Q-7.45 1.75 -6.4 2.1L-5.25 2.4Q-4.35 2.4 -2.55 1.1L2.15 -2.6L6.45 -6Q7.95 -7.3 8.05 -9.1L7.75 -12.1Q7.8 -13.1 8.45 -13.65L8.95 -13.7Q10.15 -13.7 10.85 -13.15Q11.6 -12.65 11.55 -11.8L11.1 -9.2Q10.8 -7.8 11 -7.8L12.5 -8.15L13.8 -7.8L13.65 -6.4" fill="rgb(242,203,115)" fill-opacity="1"/><path d="M-2.05,5.85Q-2.4 5.2 -2.35 4.8Q-2.3 3.6 2.6 -0.05Q7.2 -3.45 8.55 -3.75L10.6 -3.5Q11.95 -3.4 12.75 -4.55Q13.35 -5.25 13.65 -6.4L13.8 -7.8L14.55 -7.25Q15.45 -6.3 15.35 -4.95Q15.3 -3.55 14.15 -2.45Q13.2 -1.5 12.4 -1.4L9.6 -1.65L8.05 -2.15L2.8 1.65L-2.05 5.45L-2.05 5.85" fill="rgb(202,163,75)" fill-opacity="1"/></g></g></g></g></svg>
