<svg xmlns="http://www.w3.org/2000/svg" width="30" height="29" viewBox="-14 -16 32 30"><g><defs/></g><g id="0"><defs/><g><g type="shape" id="0:10:88"><defs/><g transform="matrix(1,0,0,1,-0.6,-0.2)"><path d="M-8.5,4.45L-6.95 3.4L-5.65 2.8L-6.95 2.2Q-9.9 0.65 -9.95 -1.6L-9.95 -1.7Q-9.95 -4 -6.95 -5.6Q-3.95 -7.2 0.3 -7.2Q4.55 -7.2 7.55 -5.6Q10.55 -4 10.55 -1.7L10.55 -1.4Q10.35 0.7 7.55 2.2L6.25 2.8L4.05 3.45L4.05 6.95L2.45 5.55Q1.65 5.55 1.3 7.05Q0.95 8.55 0.05 8.55Q-0.35 8.55 -1.05 7.15Q-1.7 5.7 -2.3 5.7Q-3.05 5.7 -3.4 7.5Q-3.7 9.25 -4.2 9.25Q-5.45 9.25 -5.9 7.6Q-6.5 5.45 -6.7 5.25Q-7.35 4.6 -8.5 4.45M4.1,-3Q2.55 -3.65 0.35 -3.65Q-1.85 -3.65 -3.4 -3Q-4.95 -2.3 -4.95 -1.35Q-4.95 -0.4 -3.4 0.25Q-1.85 0.95 0.35 0.95Q2.55 0.95 4.1 0.25Q5.65 -0.4 5.65 -1.35Q5.65 -2.3 4.1 -3" fill="rgb(255,255,255)" fill-opacity="1"/><path d="M4.05,3.45L6.25 2.8L7.55 2.2Q10.35 0.7 10.55 -1.4L10.55 2.95Q9.9 3.1 9.25 4.5L9.25 4.55Q8.65 5.8 8.25 5.8L7.4 5.3Q6.7 5.3 6.3 6.6Q5.95 7.9 5.2 7.9L4.05 6.95L4.05 3.45M5.65,-1.35Q5.65 -0.4 4.1 0.25Q2.55 0.95 0.35 0.95Q-1.85 0.95 -3.4 0.25Q-4.95 -0.4 -4.95 -1.35Q-4.95 -2.3 -3.4 -3Q-1.85 -3.65 0.35 -3.65Q2.55 -3.65 4.1 -3Q5.65 -2.3 5.65 -1.35" fill="rgb(204,204,204)" fill-opacity="1"/><path d="M4.05,12.45L0.3 12.8Q-3.95 12.8 -6.95 11.2Q-9.85 9.65 -9.95 7.45L-9.95 7.3Q-11.1 6.25 -9.95 5.3L-8.5 4.45Q-7.35 4.6 -6.7 5.25Q-6.5 5.45 -5.9 7.6Q-5.45 9.25 -4.2 9.25Q-3.7 9.25 -3.4 7.5Q-3.05 5.7 -2.3 5.7Q-1.7 5.7 -1.05 7.15Q-0.35 8.55 0.05 8.55Q0.95 8.55 1.3 7.05Q1.65 5.55 2.45 5.55L4.05 6.95L4.05 12.45" fill="rgb(145,184,227)" fill-opacity="1"/><path d="M4.05,6.95L5.2 7.9Q5.95 7.9 6.3 6.6Q6.7 5.3 7.4 5.3L8.25 5.8Q8.65 5.8 9.25 4.55L9.25 4.5Q9.9 3.1 10.55 2.95L10.55 7.4L10.45 8.15Q10 9.9 7.55 11.2L4.05 12.45L4.05 6.95" fill="rgb(83,126,173)" fill-opacity="1"/><path d="M10.55,-1.4Q10.35 0.7 7.55 2.2L6.25 2.8L4.05 3.45L0.3 3.8Q-3.05 3.8 -5.65 2.8L-6.95 2.2Q-9.9 0.65 -9.95 -1.6" stroke="rgb(204,204,204)" stroke-linecap="round" stroke-linejoin="round" stroke-miterlimit="3" stroke-width="1.5" fill="none"/><path d="M-9.95,5.3L-9.95 -1.7Q-9.95 -4 -6.95 -5.6Q-3.95 -7.2 0.3 -7.2Q4.55 -7.2 7.55 -5.6Q10.55 -4 10.55 -1.7L10.55 -1.4L10.55 2.95" stroke="rgb(102,102,102)" stroke-linecap="round" stroke-linejoin="round" stroke-miterlimit="3" stroke-width="1.5" fill="none"/><path d="M10.55,2.95L10.55 7.4L10.45 8.15Q10 9.9 7.55 11.2L4.05 12.45L0.3 12.8Q-3.95 12.8 -6.95 11.2Q-9.85 9.65 -9.95 7.45L-9.95 7.3L-9.95 5.3" stroke="rgb(58,90,120)" stroke-linecap="round" stroke-linejoin="round" stroke-miterlimit="3" stroke-width="1.5" fill="none"/><path d="M3.75,-8.45L3.75 -2.45M0.25,-7.45L0.25 -1.45M-3.25,-8.45L-3.25 -2.45" stroke="rgb(153,0,0)" stroke-linecap="round" stroke-linejoin="round" stroke-miterlimit="3" stroke-width="4" fill="none"/><path d="M0.25,-7.45L0.25 -1.45M3.75,-8.45L3.75 -2.45M-3.25,-8.45L-3.25 -2.45" stroke="rgb(255,0,0)" stroke-linecap="round" stroke-linejoin="round" stroke-miterlimit="3" stroke-width="2" fill="none"/><path d="M-4.7,-7.25Q-5.2 -7.75 -5.2 -8.45Q-5.2 -9.2 -4.7 -9.7Q-4.2 -10.2 -3.6 -12.75Q-2.75 -10.2 -2.25 -9.7Q-1.75 -9.2 -1.75 -8.45Q-1.75 -7.75 -2.25 -7.25Q-2.75 -6.75 -3.4 -6.75L-3.45 -6.75Q-4.2 -6.75 -4.7 -7.25z" stroke="rgb(180,125,1)" stroke-linecap="round" stroke-linejoin="round" stroke-miterlimit="3" stroke-width="2" fill="none"/><path d="M-4.7,-7.25Q-5.2 -7.75 -5.2 -8.45Q-5.2 -9.2 -4.7 -9.7Q-4.2 -10.2 -3.6 -12.75Q-2.75 -10.2 -2.25 -9.7Q-1.75 -9.2 -1.75 -8.45Q-1.75 -7.75 -2.25 -7.25Q-2.75 -6.75 -3.4 -6.75L-3.45 -6.75Q-4.2 -6.75 -4.7 -7.25" fill="rgb(255,255,0)" fill-opacity="1"/><path d="M2.5,-7.25Q2 -7.75 2 -8.45Q2 -9.2 2.5 -9.7Q3 -10.2 3.6 -12.75Q4.45 -10.2 4.95 -9.7Q5.45 -9.2 5.45 -8.45Q5.45 -7.75 4.95 -7.25Q4.45 -6.75 3.8 -6.75L3.75 -6.75Q3 -6.75 2.5 -7.25z" stroke="rgb(180,125,1)" stroke-linecap="round" stroke-linejoin="round" stroke-miterlimit="3" stroke-width="2" fill="none"/><path d="M2.5,-7.25Q2 -7.75 2 -8.45Q2 -9.2 2.5 -9.7Q3 -10.2 3.6 -12.75Q4.45 -10.2 4.95 -9.7Q5.45 -9.2 5.45 -8.45Q5.45 -7.75 4.95 -7.25Q4.45 -6.75 3.8 -6.75L3.75 -6.75Q3 -6.75 2.5 -7.25" fill="rgb(255,255,0)" fill-opacity="1"/><path d="M1.45,-6.25Q0.95 -5.75 0.3 -5.75L0.25 -5.75Q-0.5 -5.75 -1 -6.25Q-1.5 -6.75 -1.5 -7.45Q-1.5 -8.2 -1 -8.7Q-0.5 -9.2 0.1 -11.75Q0.95 -9.2 1.45 -8.7Q1.95 -8.2 1.95 -7.45Q1.95 -6.75 1.45 -6.25z" stroke="rgb(180,125,1)" stroke-linecap="round" stroke-linejoin="round" stroke-miterlimit="3" stroke-width="2" fill="none"/><path d="M1.45,-6.25Q0.95 -5.75 0.3 -5.75L0.25 -5.75Q-0.5 -5.75 -1 -6.25Q-1.5 -6.75 -1.5 -7.45Q-1.5 -8.2 -1 -8.7Q-0.5 -9.2 0.1 -11.75Q0.95 -9.2 1.45 -8.7Q1.95 -8.2 1.95 -7.45Q1.95 -6.75 1.45 -6.25" fill="rgb(255,255,0)" fill-opacity="1"/></g></g></g></g></svg>
