<svg xmlns="http://www.w3.org/2000/svg" width="30" height="29" viewBox="-14 -16 32 30"><g><defs/></g><g id="0"><defs/><g><g type="shape" id="0:2:87"><defs/><g transform="matrix(1,0,0,1,-0.6,-0.2)"><path d="M-2,-0.15L0.15 11.8Q-3.8 7.45 -5.1 0.05Q-4.3 -0.15 -3.9 -0.65L-2 -0.15" fill="rgb(202,163,75)" fill-opacity="1"/><path d="M0.15,11.8L-2 -0.15L-0.15 -0.2L2.75 -0.9Q2.1 5.45 0.15 11.8" fill="rgb(242,203,115)" fill-opacity="1"/><path d="M0.15,11.8Q2.1 5.45 2.75 -0.9Q3.65 -1.25 4.35 -1.7L5 -2.25L5.45 -2.25Q4.7 6.8 0.15 11.8" fill="rgb(255,238,150)" fill-opacity="1"/><path d="M5.45,-2.25Q4.7 6.8 0.15 11.8Q-3.8 7.45 -5.1 0.05" stroke="rgb(104,82,32)" stroke-linecap="round" stroke-linejoin="round" stroke-miterlimit="3" stroke-width="1.5" fill="none"/><path d="M-8.9,-1.55Q-8.9 -2.65 -8.25 -3.4L-6.8 -4.65L-6.85 -5.1L-6.85 -5.25L-6.7 -6.7Q-5.25 -7.75 -3.6 -8.45L-3.75 -7.7L-3.6 -6.95Q-3.4 -6.4 -2.8 -5.95Q-1.85 -5.2 -0.5 -5.2Q0.85 -5.2 1.8 -5.95Q2.75 -6.65 2.75 -7.7L2.75 -8.05Q2.6 -8.9 1.8 -9.5L2.5 -9.55L2.75 -9.55L4.25 -9.45L5.45 -7.8L5.8 -6.8Q6.8 -6.8 7.9 -6.1L7.95 -6.05Q7.55 -4.2 5 -4.1L4.95 -5.9Q2.05 -2.75 -4.15 -2.4Q-5.9 -0.7 -8.9 -1.55" fill="rgb(133,64,9)" fill-opacity="1"/><path d="M-6.7,-6.7Q-6.35 -8.5 -5.15 -10Q-3.45 -12.15 -0.6 -11.75Q2.25 -11.35 3.85 -9.85L4.25 -9.45L2.75 -9.55L2.5 -9.55L1.8 -9.5Q2.6 -8.9 2.75 -8.05L2.75 -7.7Q2.75 -6.65 1.8 -5.95Q0.85 -5.2 -0.5 -5.2Q-1.85 -5.2 -2.8 -5.95Q-3.4 -6.4 -3.6 -6.95L-3.75 -7.7L-3.6 -8.45Q-5.25 -7.75 -6.7 -6.7" fill="rgb(168,99,44)" fill-opacity="1"/><path d="M-4.15,-2.4Q2.05 -2.75 4.95 -5.9L5 -4.1Q7.55 -4.2 7.95 -6.05Q8.95 -5.45 8.95 -4.9Q8.95 -4.1 8.25 -3.3Q7.25 -2.25 5.6 -2.25L5.45 -2.25L5 -2.25L4.35 -1.7Q3.65 -1.25 2.75 -0.9L-0.15 -0.2L-2 -0.15L-3.9 -0.65Q-4.3 -0.15 -5.1 0.05L-6.35 0.2Q-8.9 0.2 -8.9 -1.55Q-5.9 -0.7 -4.15 -2.4" fill="rgb(93,24,0)" fill-opacity="1"/><path d="M4.25,-9.45L5.45 -7.8L5.8 -6.8Q6.8 -6.8 7.9 -6.1L7.95 -6.05Q8.95 -5.45 8.95 -4.9Q8.95 -4.1 8.25 -3.3Q7.25 -2.25 5.6 -2.25L5.45 -2.25L5 -2.25L4.35 -1.7Q3.65 -1.25 2.75 -0.9L-0.15 -0.2L-2 -0.15L-3.9 -0.65Q-4.3 -0.15 -5.1 0.05L-6.35 0.2Q-8.9 0.2 -8.9 -1.55Q-8.9 -2.65 -8.25 -3.4L-6.8 -4.65L-6.85 -5.1L-6.85 -5.25L-6.7 -6.7Q-6.35 -8.5 -5.15 -10Q-3.45 -12.15 -0.6 -11.75Q2.25 -11.35 3.85 -9.85L4.25 -9.45M-6.8,-4.65Q-6.3 -3.75 -5.05 -2.9" stroke="rgb(43,21,0)" stroke-linecap="round" stroke-linejoin="round" stroke-miterlimit="3" stroke-width="1.5" fill="none"/></g></g></g></g></svg>
