<svg xmlns="http://www.w3.org/2000/svg" width="30" height="29" viewBox="-14 -16 32 30"><g><defs/></g><g id="0"><defs/><g><g type="shape" id="0:3:57"><defs/><g transform="matrix(1.04782,0,0,1.05103,0,0)"><path d="M3.75,-5.25L5.5 -5.7Q9.5 -5.7 10.5 -4.1Q11.45 -2.45 11.5 -0.15Q11.5 2.15 10.5 3.85Q9.5 5.5 5.5 5.5Q4.45 5.45 3.75 5Q3 4.5 3.05 3.85Q3 3.2 3.75 2.75L7.85 2.4Q8.85 -0.1 8 -2.5Q4.45 -2.5 3.75 -3Q3 -3.45 3.05 -4.1Q3 -4.8 3.75 -5.25" fill="rgb(186,186,186)" fill-opacity="1"/><path d="M3.75,-5.25L5.5 -5.7Q9.5 -5.7 10.5 -4.1Q11.45 -2.45 11.5 -0.15Q11.5 2.15 10.5 3.85Q9.5 5.5 5.5 5.5Q4.45 5.45 3.75 5Q3 4.5 3.05 3.85Q3 3.2 3.75 2.75L7.85 2.4Q8.85 -0.1 8 -2.5Q4.45 -2.5 3.75 -3Q3 -3.45 3.05 -4.1Q3 -4.8 3.75 -5.25z" stroke="rgb(102,102,102)" stroke-linecap="round" stroke-linejoin="round" stroke-miterlimit="3" stroke-width="1.5" fill="none"/><path d="M1.2,-3.3L2.9 -3.85L3.95 -4.4L2.9 -4.95L0.95 -5.6L0.55 -5.65L0.45 -5.8Q-0.2 -6.7 0.3 -7.75Q0.8 -9 1.95 -9.3L2.9 -8.95Q5.35 -7.9 5.35 -6.4L5.35 -6.35L5.35 -6.3L5.35 6.4Q5.35 7.9 2.9 8.95L1.65 9.4L1.5 8.25L1.05 0.55Q0.95 -1.35 1.2 -3.3" fill="rgb(186,186,186)" fill-opacity="1"/><path d="M-4.9,1.2Q-5.3 -1.3 -4.05 -2.8L-3.05 -2.8L1.2 -3.3Q0.95 -1.35 1.05 0.55L1.5 8.25L1.65 9.4L-3.05 10L-4.35 9.95Q-4.2 5.55 -4.9 1.2M-4.8,-9.9L-4.35 -9.95L-3.2 -10L-3.1 -10L-3.05 -10Q-0.2 -10 1.95 -9.3Q0.8 -9 0.3 -7.75Q-0.2 -6.7 0.45 -5.8L0.55 -5.65L-3.05 -6L-4.2 -5.95L-4.25 -5.95Q-6.05 -6.85 -5.2 -9.2L-4.8 -9.9" fill="rgb(204,204,204)" fill-opacity="1"/><path d="M2.9,-3.85L1.2 -3.3L-3.05 -2.8L-4.05 -2.8Q-6.9 -2.95 -9 -3.85L-10.05 -4.4L-9 -4.95Q-6.95 -5.8 -4.25 -5.95L-4.2 -5.95L-3.05 -6L0.55 -5.65L0.95 -5.6L2.9 -4.95L3.95 -4.4L2.9 -3.85" fill="rgb(102,51,0)" fill-opacity="1"/><path d="M-4.35,9.95Q-7 9.8 -9 8.95Q-11.45 7.9 -11.45 6.4L-11.45 -6.3L-11.45 -6.35L-11.45 -6.4Q-11.45 -7.9 -9 -8.95Q-7.2 -9.7 -4.8 -9.9L-5.2 -9.2Q-6.05 -6.85 -4.25 -5.95Q-6.95 -5.8 -9 -4.95L-10.05 -4.4L-9 -3.85Q-6.9 -2.95 -4.05 -2.8Q-5.3 -1.3 -4.9 1.2Q-4.2 5.55 -4.35 9.95" fill="rgb(255,255,255)" fill-opacity="1"/><path d="M5.35,-6.35L5.35 -6.3M-11.45,-6.3L-11.45 -6.35M-11.45,-6.3Q-11.45 -5.25 -10.05 -4.4L-9 -3.85Q-6.9 -2.95 -4.05 -2.8L-3.05 -2.8L1.2 -3.3L2.9 -3.85L3.95 -4.4Q5.35 -5.25 5.35 -6.3" stroke="rgb(153,153,153)" stroke-linecap="round" stroke-linejoin="round" stroke-miterlimit="3" stroke-width="2" fill="none"/><path d="M5.35,-6.4L5.35 6.4Q5.35 7.9 2.9 8.95L1.65 9.4L-3.05 10L-4.35 9.95Q-7 9.8 -9 8.95Q-11.45 7.9 -11.45 6.4L-11.45 -6.4Q-11.45 -7.85 -9 -8.95Q-7 -9.8 -4.35 -9.95L-3.2 -10L-3.1 -10L-3.05 -10Q-0.2 -10 1.95 -9.3L2.9 -8.95Q5.35 -7.85 5.35 -6.4z" stroke="rgb(102,102,102)" stroke-linecap="round" stroke-linejoin="round" stroke-miterlimit="3" stroke-width="1.5" fill="none"/></g></g></g></g></svg>
