<svg xmlns="http://www.w3.org/2000/svg" width="30" height="29" viewBox="-14 -16 32 30"><g><defs><linearGradient gradientTransform="matrix(-0.0461121, -0.0322266, 0.238098, -0.0985565, -46.6, 11.45)" gradientUnits="userSpaceOnUse" spreadMethod="pad" tp="2" x1="-819.2" x2="819.2" y1="0" y2="0" id="f78:6"><stop offset="0" stop-color="rgb(229,177,76)"/><stop offset="1" stop-color="rgb(235,187,115)"/></linearGradient></defs></g><g id="0"><defs/><g><g type="shape" id="0:1:78"><defs/><g transform="matrix(0.247894,0,0,0.248444,0.65,0.6)"><path d="M-41.85,0L-41.5 0.5L-41.85 0" fill="rgb(255,255,153)" fill-opacity="1"/><path d="M40.4,18.15Q38.9 19.9 36.85 21.5L36.85 5.25L40.4 1.95L40.4 18.15M25.6,11.4L31.4 8.75L32.8 7.95L32.8 24.2L31.4 25L25.6 27.65L25.6 11.4M21.15,29.2Q14.45 31.15 6.7 31.75L6.7 15.5Q14.45 14.9 21.15 12.95L21.15 29.2M2.9,31.95L0.05 32L-10.55 31.35L-10.55 15.1L0.05 15.75L2.9 15.7L2.9 31.95M-31.05,8.9Q-25.7 11.7 -19.4 13.4L-19.4 29.65Q-25.7 27.95 -31.05 25.15L-31.05 8.9M-41.2,17.15Q-43.9 13.6 -44.3 9.6L-44.35 8.1L-44.35 -7.9L-44.3 -6.75Q-43.95 -3.2 -41.85 0L-41.5 0.5L-41.2 0.8L-41.2 17.15" fill="rgb(207,156,84)" fill-opacity="1"/><path d="M41.9,0L40.4 1.95L36.85 5.25L32.8 7.95L31.4 8.75L25.6 11.4L21.15 12.95Q14.45 14.9 6.7 15.5L2.9 15.7L0.05 15.75L-10.55 15.1L-15.9 14.2L-19.4 13.4Q-25.7 11.7 -31.05 8.9L-31.35 8.75L-34.1 7.15L-36.85 5.2L-38 4.05Q-40 1.45 -41.35 -4.45Q-43.05 -12.05 -34.5 -19.6Q-25.95 -27.2 -7.45 -29.15Q11.05 -31.1 24.9 -27.95Q28.3 -26.7 31.4 -25.05Q44.3 -18.1 44.4 -8.35Q44.25 -3.6 41.9 0M-44.3,-6.75L-44.3 -9.55Q-44 -12.6 -42.4 -15.35L-42.75 -13.6Q-44 -6.6 -41.85 0Q-43.95 -3.2 -44.3 -6.75M-8.3,9.85Q36.55 11.75 36.45 -12.55Q22.2 6.5 -8.3 9.85" fill="rgb(225,165,66)" fill-opacity="1"/><path d="M-41.2,0.8L-41.5 0.5L-41.85 0Q-44 -6.6 -42.75 -13.6L-42.4 -15.35Q-36.45 -23.35 -27.1 -26.8Q-18.25 -30 -9.05 -31.55L0.05 -32L7.25 -31.75Q14.55 -30.95 21.5 -29L24.9 -27.95Q11.05 -31.1 -7.45 -29.15Q-25.95 -27.2 -34.5 -19.6Q-43.05 -12.05 -41.35 -4.45Q-40 1.45 -38 4.05L-41.2 0.8" fill="rgb(254,203,86)" fill-opacity="1"/><path d="M40.4,1.95L41.9 0Q44.25 -3.6 44.4 -8.35L44.4 -7.9L44.4 8.1L44.25 10.2Q43.65 14.45 40.4 18.15L40.4 1.95M32.8,7.95L36.85 5.25L36.85 21.5L32.8 24.2L32.8 7.95M25.6,27.65L21.15 29.2L21.15 12.95L25.6 11.4L25.6 27.65M2.9,15.7L6.7 15.5L6.7 31.75L2.9 31.95L2.9 15.7M-10.55,31.35L-15.9 30.45L-19.4 29.65L-19.4 13.4L-15.9 14.2L-10.55 15.1L-10.55 31.35M-41.2,0.8L-38 4.05L-36.85 5.2L-34.1 7.15L-31.35 8.75L-31.05 8.9L-31.05 25.15L-31.35 25L-34.3 23.25Q-36.45 21.9 -38.15 20.4Q-39.95 18.85 -41.2 17.15L-41.2 0.8" fill="rgb(224,174,93)" fill-opacity="1"/><path d="M36.45,-12.55Q36.55 11.75 -8.3 9.85Q22.2 6.5 36.45 -12.55" fill="rgb(197,137,39)" fill-opacity="1"/><path d="M-44.35,-7.9L-44.35 -8.15L-44.3 -9.55L-44.3 -6.75L-44.35 -7.9" fill="url(#f78:6)"/><path d="M24.9,-27.95Q28.3 -26.7 31.4 -25.05Q44.3 -18.1 44.4 -8.35L44.4 -7.9L44.4 8.1L44.25 10.2Q43.65 14.45 40.4 18.15Q38.9 19.9 36.85 21.5L32.8 24.2L31.4 25L25.6 27.65L21.15 29.2Q14.45 31.15 6.7 31.75L2.9 31.95L0.05 32L-10.55 31.35L-15.9 30.45L-19.4 29.65Q-25.7 27.95 -31.05 25.15L-31.35 25L-34.3 23.25Q-36.45 21.9 -38.15 20.4Q-39.95 18.85 -41.2 17.15Q-43.9 13.6 -44.3 9.6L-44.35 8.1L-44.35 -7.9L-44.35 -8.15L-44.3 -9.55Q-44 -12.6 -42.4 -15.35Q-36.45 -23.35 -27.1 -26.8Q-18.25 -30 -9.05 -31.55L0.05 -32L7.25 -31.75Q14.55 -30.95 21.5 -29L24.9 -27.95M-44.35,-7.9L-44.3 -6.75Q-43.95 -3.2 -41.85 0L-41.5 0.5L-41.2 0.8L-38 4.05L-36.85 5.2L-34.1 7.15L-31.35 8.75L-31.05 8.9Q-25.7 11.7 -19.4 13.4L-15.9 14.2L-10.55 15.1L0.05 15.75L2.9 15.7L6.7 15.5Q14.45 14.9 21.15 12.95L25.6 11.4L31.4 8.75L32.8 7.95L36.85 5.25L40.4 1.95L41.9 0Q44.25 -3.6 44.4 -8.35M-41.85,0L-41.5 0.5" stroke="rgb(102,51,0)" stroke-linecap="round" stroke-linejoin="round" stroke-miterlimit="3" stroke-width="2" fill="none"/><path d="M-19.4,13.4L-19.4 29.65M-31.05,25.15L-31.05 8.9M-10.55,31.35L-10.55 15.1M-41.2,17.15L-41.2 0.8M36.85,21.5L36.85 5.25M40.4,18.15L40.4 1.95M32.8,24.2L32.8 7.95M6.7,15.5L6.7 31.75M21.15,29.2L21.15 12.95M25.6,27.65L25.6 11.4M2.9,31.95L2.9 15.7" stroke="rgb(186,125,52)" stroke-linecap="round" stroke-linejoin="round" stroke-miterlimit="3" stroke-width="1" fill="none"/></g></g><g type="shape" id="0:2:79"><defs/><g transform="matrix(0.123947,0,0,0.0621185,1.55,-1.15)"><path d="M3.2,-64.95L24.4 -54.75Q28.05 -52.6 30.65 -49.4Q32.3 -47.4 33.6 -44.95Q34.55 -43.2 35.8 -41.5Q39.15 -36.75 39.15 -31.1L38.35 -30.75Q37.7 -30.4 37.25 -31.1Q31.45 -40.75 24.7 -49.7L24.2 -50.35Q21.8 -53.15 18.5 -54.6L17.85 -55.35L12.2 -59.1L2.25 -64.75L2.05 -65L3.2 -64.95M-55.15,-62.9L-54.7 -65.75L-54.05 -65.95L-53.7 -66.5L-53.9 -67.55L-53.45 -70.9L-52.95 -70.75L-51.15 -67.25L-47.8 -65.85L-47.55 -65.3L-45.15 -64.25L-46 -64L-36.15 -63.7L-39.15 -61.25L-31.7 -64.7L-31.3 -64.45L-32.2 -63.3L-33.05 -62.45Q-34.8 -60.65 -37.1 -59.7Q-46.45 -55.8 -53.8 -62.95L-54.15 -63.45L-55 -62.75L-55.15 -62.9M-14.3,-42.8L-14.35 -42.1L-15.75 -42.45L-16.7 -39L-16.55 -38.75L-17.75 -38.35L-18 -39.55L-16.75 -41.4Q-15.8 -42.75 -16.4 -44.5L-15 -43.9L-14.3 -42.8M-20.55,-42.8Q-20.2 -43.85 -20.55 -44.85Q-22.5 -43.25 -21.6 -41L-23.7 -40.45L-21.8 -45.95L-22.25 -47.45L-23.2 -48.5Q-23.7 -49.1 -23.4 -49.55L-21.15 -48.3L-20.8 -47.95Q-19.5 -46.65 -19.55 -44.7Q-19.65 -42.75 -21.05 -41.45L-20.55 -42.8M-32.25,-41.4L-31.7 -42L-29.65 -44.5L-29.55 -45.65L-29.1 -45.7L-28.1 -47.9L-27.3 -51.15L-26.5 -48.55L-27.25 -44.95Q-26.25 -42.75 -26.8 -40.4Q-27.3 -38.45 -28.75 -37.15Q-29.55 -36.45 -30.6 -36.1L-30.15 -37.35Q-29.45 -38.85 -29.15 -40.45L-28.7 -43.35Q-29.85 -42.6 -31.05 -41.8L-32.25 -41.4M-31.85,-35.9Q-33.2 -33.2 -32.85 -30.55L-32.05 -31.4L-35.85 -26.95Q-36.9 -26.35 -38 -25.8L-35.75 -30.35L-34.1 -33.2Q-33.7 -33.9 -33.75 -34.55Q-33.95 -36.15 -34.55 -37.65L-34.85 -38.4L-34.1 -37.85L-31.9 -36.65L-31.75 -35.75L-31.85 -35.9M-51.05,26.2L-49.7 19.55L-48.75 15.35Q-48.25 13.1 -47.1 11.1L-46.5 9.9L-46.45 9.8L-46.3 9.55L-45.25 8.65L-44.8 8.65L-44.7 8.65L-44.7 8.9L-44.7 9L-44.75 9.95L-45.6 16.9L-45.75 17.65L-45.65 17.5Q-44 15.35 -41.95 13.6Q-38.95 11.05 -36.1 8L-36.05 8L-35.8 7.7Q-31.15 2.45 -30.65 -4.55Q-30.55 -6.15 -30.75 -7.7L-30.8 -8.15Q-31.8 -16.8 -32.3 -25.3Q-32.35 -26.5 -31.25 -27Q-28.2 -21.95 -27.1 -16Q-24.55 -22.85 -26.25 -30Q-27.65 -30.45 -28.3 -31.75Q-28.55 -32.2 -28.25 -32.65L-26.7 -33.1Q-25.6 -33.4 -24.55 -33.85Q-21.85 -34.95 -20.05 -37.35L-19.55 -37.45L-18.9 -36.7Q-18.45 -36 -18.75 -35.4Q-20.95 -31.6 -25.1 -30.3Q-24.15 -29.45 -23.75 -28.35L-23.45 -27.55L-21.55 -27L-21.6 -26.95L-22.55 -26.5L-20 -25.5Q-16.1 -24 -12.2 -23.5L-5.1 -22.35L-3.35 -22.35Q9.6 -22.35 21.1 -28.65L21.2 -28.95Q21.75 -28.95 22.15 -28.4Q22.55 -27.85 22.55 -27.1L22.5 -26.85L20.8 -25.25L16.55 -22.65Q13.25 -21.2 9.6 -20.6L8.55 -20.45Q3.7 -19.25 -1.1 -19.25L-3.35 -19.35L-5.8 -19.5L-13.2 -21Q-15.65 -21.5 -17.95 -22.35Q-20.65 -23.15 -22.95 -24.35L-23.3 -24.85L-23.35 -23.45L-24.15 -17.35L-24.8 -15.15Q-25.5 -13.6 -26.85 -12.35L-26.85 -8.15Q-27.15 0.4 -31.35 7.75Q-36.75 17.1 -46.55 21.65L-46.95 23.9Q-47.45 27.95 -46.8 32Q-47.6 33 -48.8 33.45L-49.05 33.25L-50.25 30.95Q-51.4 28.75 -51.05 26.2M27.9,16.05L28 15.45L30.95 4.9L32.1 2.25Q34 -1.8 36.45 -5.35L36.75 -5.85L36.95 -5.95Q38.95 -4.9 41.15 -5.35L41.95 -5.3L46.85 -9.45Q48 -10.5 48.55 -11.95Q49.1 -13.45 48.85 -14.95L49.35 -15.2L49.9 -12.85L50.15 -13.45L48.65 -20.75L49.05 -21.05Q50.75 -18.65 51.45 -16.2Q52.25 -13.55 52.15 -10.95L52.95 -13L53.5 -15.1L53.7 -16.1L54.45 -16.45L54.85 -13.95L54.9 -11.65L56.75 -11.85L57.35 -12.1L58.5 -12.75L59.35 -13.3L60.3 -13.1L60.6 -12.25L60.25 -11.15L60.1 -10.85L59.75 -10.65Q58.55 -10 57.35 -9.45L65.95 -4.7Q64.75 -8.7 62.35 -12.1L59.15 -15.95L53.8 -21.25L47.2 -26.2L42.95 -28.4L42.25 -28.95L42.1 -29.05L40.8 -30.4L40.65 -30.55L40.6 -30.65L40.75 -31.1Q43.65 -30.1 46.75 -29.6L49.45 -28.65Q52.3 -27.15 54.8 -25.25L60.05 -19.85Q68.9 -10 71.65 2.95L70.6 3.7L64.3 -1.25L52.85 -6.2L49 -4.95Q47.05 -4.4 45.45 -3.25Q43.85 -2.15 42.65 -0.5L38.65 5.1Q36.75 7.95 35 10.9L29.85 19.75L29.5 19.45L27.9 16.05M-7.35,29.5L-7.75 30L-9 30.85L-11.6 32.45Q-17.3 35.45 -22.9 32.65L-22.95 32.15L-21.6 31.95Q-14.05 30.75 -7.35 26.75L-6.45 26.55L-6.25 26.6L-6.2 26.6L-6.3 27.15L-7.35 29.5M-33.45,58.4L-36.6 57.65L-36.65 57.4Q-36.95 56.4 -36.05 56.1L-35.45 56.5L-35 56.45L-34.2 55.75L-33.8 55.75L-28.1 55.9L-24.25 56.65Q-11.7 57.25 0.85 56.2Q4.8 56.05 8.45 55.05Q9.45 52.05 11.65 49.95L11.95 49.7L13.4 50Q13.6 51.9 13.2 53.65L12.85 54.7Q12.15 56.55 10.75 58.15Q9.65 59.35 8.25 59.45Q-2.2 61.15 -12.65 60.25L-18.85 60.1Q-26.1 60 -33.1 58.5L-33.45 58.4M-2.1,50.5L-3.25 51.4Q-4.3 50.35 -4.4 48.95L-4.25 47.55L-0.6 33.65L0.7 28.65L3.25 21.55L3.35 21.35Q4.05 20.1 4.9 19Q5.15 19.05 5.35 19.25L5.5 19.75L5 22.4L4.35 25.65L4.35 25.7L4.15 26.6L0.95 40.1L0.55 41.65Q0.1 43.35 -0.05 45.1Q-0.2 46.7 -0.75 48.15L-1.05 48.85L-2.1 50.5M-60.5,-21.2L-59.55 -20.05Q-58.35 -18.35 -58.25 -16.3Q-60.35 -18.15 -61.4 -20.7L-61.9 -22.25L-60.5 -21.2M-64.8,-8.35L-64.9 -8.15L-65.25 -7.8L-65.3 -8.15L-66.45 -15.05Q-66.7 -16.25 -67.35 -17.3L-68 -18.1L-67.55 -18.5L-66.15 -18.4L-64.5 -16.05L-63.95 -14.35Q-63.2 -11.05 -64.8 -8.35M-13.1,-46.65L-13.6 -46.25L-15.4 -46.15Q-15.45 -48.4 -13.35 -49.45L-14.15 -53.15L-12.3 -51.15Q-11.05 -48.6 -13.1 -46.65" fill="rgb(215,156,47)" fill-opacity="1"/><path d="M18.45,-54.6L16.8 -54.2L10.95 -55.3L7.9 -56.05Q3.8 -57 1.3 -60.35L-0.8 -61.4L-4.2 -62.95Q-6.65 -64 -9.15 -64.65Q-17.55 -66.9 -25.8 -65.65L-25.9 -65.65L-31.3 -64.45L-31.7 -64.7L-39.15 -61.25L-36.15 -63.7L-34.2 -65.05Q-30.4 -67.65 -25.8 -68.65L-25.55 -68.7Q-20.3 -69.8 -14.35 -68.9Q-5.85 -67.65 2.05 -65L2.25 -64.75L12.2 -59.1L17.85 -55.35L18.5 -54.6L18.45 -54.6M-41.6,-20.25L-44.25 -21.65L-44.65 -22.2L-44.2 -22.9L-44.15 -23.15Q-39.5 -23.6 -35.9 -20.65L-34.55 -19Q-33.75 -18 -33.3 -16.75Q-32.8 -15.25 -34.25 -14.65L-35.4 -17.7L-35.9 -17.9L-41.6 -20.25M-20,-25.5L-20.65 -26.95L-21.2 -28.45L-21.2 -28.85L-21.05 -29.5L-19.65 -28.4Q-17.65 -26.7 -15.4 -25.6L-11.4 -24.2Q-8.25 -23.1 -5.1 -22.35L-12.2 -23.5Q-16.1 -24 -20 -25.5M29.5,19.45L29.15 19.5L27.85 19.7L25.9 16.6Q24.5 13.9 23.5 11.05Q21.95 6.75 21.95 2.4Q21.95 -0.6 22.3 -3.6Q22.6 -6.15 23.4 -8.6Q24.8 -12.85 25.25 -17.25Q25.65 -20.15 24.6 -22.85L24.55 -23.05L23.6 -25.25L22.85 -26.6L22.55 -27.1Q22.55 -27.85 22.15 -28.4Q21.75 -28.95 21.2 -28.95L17.25 -34.45L22.3 -30.05L23.45 -28.85L24.05 -28.7L23.85 -28.4L25.05 -26.85L25.55 -26.05L25.85 -25.25L25.9 -25.15L26.65 -22.55Q27.6 -18.85 27.6 -15.1Q27.65 -11.3 26.6 -7.6L24.8 -1.3Q24.6 -0.5 24.7 0.3L25.45 6.05Q26.3 10.95 28 15.45L27.9 16.05L29.5 19.45M36.95,-5.95L36.75 -5.85Q34.95 -6.9 33.6 -8.45Q31.7 -10.7 30.7 -13.6Q29.5 -16.9 29.95 -20.4Q31.45 -15.9 34.3 -12.1Q37.2 -8.2 41.15 -5.35Q38.95 -4.9 36.95 -5.95M42.95,-28.4L47.2 -26.2L53.8 -21.25L45.45 -25.25Q42.2 -27.1 39.1 -29.3L38.8 -29.5Q38.45 -29.7 39.3 -29.8L42.95 -28.4M-50.25,30.95L-49.05 33.25Q-52.15 34 -54.3 31.75L-58.65 26.75L-61.55 22.9Q-66.45 16.05 -69.85 8.45L-71.45 4.45Q-73.7 -1.75 -73.2 -8.15L-73.1 -12.2L-74 -13.1Q-74.2 -15.5 -73.55 -17.8Q-72.85 -20.1 -71.1 -21.75L-69.4 -23.3L-67.65 -27.85Q-64.85 -33.8 -61 -39.05L-60.5 -39.85L-61.05 -39.1L-55.15 -62.9L-55 -62.75L-56.45 -45.15L-44.9 -56.1L-43.95 -56.1L-44.6 -54.75L-44.9 -53.8Q-45.8 -48.35 -48.75 -43.8L-51.95 -38.45Q-55.45 -32.1 -58.5 -25.55L-60.5 -21.2L-61.9 -22.25L-62.5 -22.85L-63.4 -23.45L-65 -24.25Q-64.15 -23.2 -63.95 -21.85Q-63.55 -18.95 -64.5 -16.05L-66.15 -18.4L-67.55 -18.5L-68 -18.1L-67.35 -17.3Q-66.7 -16.25 -66.45 -15.05L-65.3 -8.15L-65.25 -7.8L-64.9 -8.15L-64.8 -8.35Q-63.2 -11.05 -63.95 -14.35Q-62.05 -12.7 -59.6 -12.2L-58.8 -12.45L-58.25 -11.8L-58.7 -8.7L-58.9 -8.15Q-59.45 -6.85 -60.3 -5.7Q-61.55 -4.15 -63.2 -3.65L-65.3 -3.5L-65.7 -3.55L-64.95 -0.85L-64.95 -0.8Q-62.8 6.75 -59.3 14Q-56.1 20.75 -51.05 26.2Q-51.4 28.75 -50.25 30.95M-23.3,24.15L-23.25 23.9L-23.9 23.7Q-19.05 22.45 -14.3 20.75Q-11.5 19.05 -9.05 16.6Q-3.55 11.55 1.15 6.05L1.35 5.9Q2.5 6.7 2.85 7.65Q3.45 9.35 1.3 11.65Q-2.5 15.6 -6.65 19.15Q-10.65 22.5 -15.25 23.25L-17.05 23.8L-17.1 23.85L-21.75 25L-21.9 25.7L-21.95 26.05L-23 27.75L-23.2 28.1Q-23.85 28.4 -24.05 27.8L-23.6 25.9L-23.3 25.35L-23.35 25.2L-23.35 24.7L-23.3 24.2L-23.35 24.2L-23.3 24.15M-34.2,55.75L-35 56.45L-35.45 56.5L-36.05 56.1L-33.25 50.05L-32.55 49.25L-32 49.1L-31.25 49.55L-30.15 49.4L-29.75 49.4L-25.4 49.8Q-19.5 49.3 -13.85 47.8L-13.75 47.5L-13.2 45.6Q-10.9 38.25 -8.2 31.1L-7.75 30L-7.35 29.5L-6.3 27.15L-6.1 27.55L-12.2 47.75L-12.05 48.25Q-11.95 48.65 -12.45 49.1L-12.95 49.5Q-14.7 51.4 -17.4 51.9L-23.85 52.35Q-27.7 52.7 -31.35 51.5L-31.65 52.4Q-32.45 54.2 -33.8 55.75L-34.2 55.75M-1.05,48.85L-0.7 48.8L0.95 48.45L6.6 48.2L8.05 47.95Q8.35 48.65 8.15 49.2Q7.7 50.25 5.3 50.65L0.2 50.85L0.1 50.85L-0.4 50.8L-2.1 50.5L-1.05 48.85M-29.1,-45.7L-29.55 -45.65L-29.65 -44.5L-31.7 -42L-32.2 -41.9L-28.6 -49.35L-28.1 -47.9L-29.1 -45.7" fill="rgb(255,252,208)" fill-opacity="1"/><path d="M39.1,-29.3Q42.2 -27.1 45.45 -25.25L53.8 -21.25L59.15 -15.95L62.35 -12.1Q64.75 -8.7 65.95 -4.7L57.35 -9.45Q58.55 -10 59.75 -10.65L60.1 -10.85L60.25 -11.15L60.6 -12.25L60.3 -13.1L59.35 -13.3L58.5 -12.75L57.35 -12.1L56.75 -11.85L54.9 -11.65L54.85 -13.95L54.45 -16.45L53.7 -16.1L53.5 -15.1L52.95 -13L52.15 -10.95Q52.25 -13.55 51.45 -16.2Q50.75 -18.65 49.05 -21.05L48.65 -20.75L50.15 -13.45L49.9 -12.85L49.35 -15.2L48.85 -14.95Q49.1 -13.45 48.55 -11.95Q48 -10.5 46.85 -9.45L41.95 -5.3L41.15 -5.35Q37.2 -8.2 34.3 -12.1Q31.45 -15.9 29.95 -20.4Q29.5 -16.9 30.7 -13.6Q31.7 -10.7 33.6 -8.45Q34.95 -6.9 36.75 -5.85L36.45 -5.35Q35.35 -6 34.4 -6.8L30.9 -10.05L29.35 -11.9Q28.9 -8.8 29 -5.3Q29.15 0 30.95 4.9L28 15.45Q26.3 10.95 25.45 6.05L24.7 0.3Q24.6 -0.5 24.8 -1.3L26.6 -7.6Q27.65 -11.3 27.6 -15.1Q27.6 -18.85 26.65 -22.55L25.9 -25.15L25.85 -25.25L25.55 -26.05L25.05 -26.85L23.85 -28.4L24.05 -28.7L23.45 -28.85L22.3 -30.05L17.25 -34.45L21.2 -28.95L21.1 -28.65Q9.6 -22.35 -3.35 -22.35L-5.1 -22.35Q-8.25 -23.1 -11.4 -24.2L-15.4 -25.6Q-17.65 -26.7 -19.65 -28.4L-21.05 -29.5L-21.2 -28.85L-21.2 -28.45L-20.65 -26.95L-20 -25.5L-22.55 -26.5L-21.6 -26.95L-21.55 -27L-23.45 -27.55L-23.75 -28.35Q-24.15 -29.45 -25.1 -30.3Q-20.95 -31.6 -18.75 -35.4Q-18.45 -36 -18.9 -36.7L-19.55 -37.45L-20.05 -37.35Q-21.85 -34.95 -24.55 -33.85Q-25.6 -33.4 -26.7 -33.1L-28.25 -32.65Q-28.55 -32.2 -28.3 -31.75Q-27.65 -30.45 -26.25 -30Q-24.55 -22.85 -27.1 -16Q-28.2 -21.95 -31.25 -27Q-32.35 -26.5 -32.3 -25.3Q-31.8 -16.8 -30.8 -8.15L-30.75 -7.7Q-30.55 -6.15 -30.65 -4.55Q-31.15 2.45 -35.8 7.7Q-35.85 7.6 -36 7.6L-36.1 8Q-38.95 11.05 -41.95 13.6Q-44 15.35 -45.65 17.5L-45.7 17.4L-45.6 16.9L-44.75 9.95L-44.7 9L-44.7 8.9L-44.7 8.65L-44.8 8.65L-45.25 8.65L-46.3 9.55L-46.45 9.8Q-45.75 6.05 -43.05 2Q-40.05 -2.55 -40.4 -8.15Q-41.2 -12.55 -38.45 -16Q-36.75 -16.35 -35.95 -14.55L-35.85 -14.2L-35.9 -17.9L-35.4 -17.7L-34.25 -14.65Q-32.8 -15.25 -33.3 -16.75Q-33.75 -18 -34.55 -19L-35.9 -20.65L-35.85 -26.95L-32.05 -31.4L-31.75 -35.75L-31.9 -36.65L-34.1 -37.85L-32.3 -38.5L-31.05 -41.8Q-29.85 -42.6 -28.7 -43.35L-29.15 -40.45Q-29.45 -38.85 -30.15 -37.35L-30.6 -36.1Q-29.55 -36.45 -28.75 -37.15Q-27.3 -38.45 -26.8 -40.4Q-26.25 -42.75 -27.25 -44.95L-26.5 -48.55L-23.9 -51L-22.9 -50.6Q-21.45 -49.8 -21.15 -48.3L-23.4 -49.55Q-23.7 -49.1 -23.2 -48.5L-22.25 -47.45L-21.8 -45.95L-23.7 -40.45L-21.6 -41L-21.05 -41.45Q-19.65 -42.75 -19.55 -44.7Q-19.5 -46.65 -20.8 -47.95L-18.65 -50.65L-17.65 -49.6Q-15.6 -47.1 -15 -43.9L-16.4 -44.5Q-15.8 -42.75 -16.75 -41.4L-18 -39.55L-17.75 -38.35L-16.55 -38.75Q-15.8 -38.75 -15.25 -39.25Q-14.85 -39.6 -14.75 -40.1L-15.25 -35.3L-12.95 -34.3Q-10.65 -33.3 -8.4 -34.25L-3.35 -32.5Q1.9 -31.55 6.95 -34.05L13 -35.15Q11.5 -41.5 14.45 -46.85L15.3 -47.6Q21.5 -40.4 25.2 -32L25.25 -31.9L25.3 -31.95L25.35 -32.05L25.95 -32.4L26.55 -32.6Q28.05 -32.2 28.55 -30.65L28.75 -30.1L29.65 -29.7L30.3 -29.35Q31.05 -27.2 32.05 -25.25Q33.45 -22.4 35.5 -19.95Q37.45 -17.5 40 -15.75L43.45 -13.5L41.9 -16.35Q39.7 -20.55 39.2 -25.25L39 -28.65L39.1 -29.3M3.25,7.25L4 7.65L4.65 8.15L3.7 18.85L3.35 21.35L3.25 21.55L0.7 28.65L-0.6 33.65L-4.25 47.55L-4.4 48.95Q-4.3 50.35 -3.25 51.4L-2.1 50.5L-0.4 50.8L0.1 50.85L0.2 50.85L5.3 50.65Q7.7 50.25 8.15 49.2L10.65 49.3L11.2 49.45L11.65 49.95Q9.45 52.05 8.45 55.05Q4.8 56.05 0.85 56.2Q-11.7 57.25 -24.25 56.65L-28.1 55.9L-33.8 55.75Q-32.45 54.2 -31.65 52.4L-31.35 51.5Q-27.7 52.7 -23.85 52.35L-17.4 51.9Q-14.7 51.4 -12.95 49.5L-12.45 49.1Q-11.95 48.65 -12.05 48.25L-12.2 47.75L-6.1 27.55L-6.3 27.15L-6.2 26.6L-6.25 26.6L-6.25 26.55L-6.45 26.55L-7.35 26.75Q-14.05 30.75 -21.6 31.95Q-25.95 28.9 -23.35 24.2L-23.3 24.2L-23.35 24.7L-23.35 25.2L-23.3 25.35L-23.6 25.9L-24.05 27.8Q-23.85 28.4 -23.2 28.1L-23 27.75L-21.95 26.05L-21.9 25.7L-21.75 25L-17.1 23.85L-17.05 23.8L-15.25 23.25Q-10.65 22.5 -6.65 19.15Q-2.5 15.6 1.3 11.65Q3.45 9.35 2.85 7.65L3.25 7.25M-58.25,-11.8L-58.8 -12.45L-59.6 -12.2Q-62.05 -12.7 -63.95 -14.35L-64.5 -16.05Q-63.55 -18.95 -63.95 -21.85Q-64.15 -23.2 -65 -24.25L-63.4 -23.45L-62.5 -22.85L-61.9 -22.25L-61.4 -20.7Q-60.35 -18.15 -58.25 -16.3Q-58.35 -18.35 -59.55 -20.05L-60.5 -21.2L-58.5 -25.55Q-55.45 -32.1 -51.95 -38.45L-48.75 -43.8Q-45.8 -48.35 -44.9 -53.8L-44.6 -54.75L-43.95 -56.1L-44.9 -56.1L-56.45 -45.15L-55 -62.75L-54.15 -63.45L-53.8 -62.95Q-46.45 -55.8 -37.1 -59.7L-37.95 -58.15L-46.4 -42.6L-48.35 -38.5L-51.3 -31.2L-53.85 -23.8L-56.05 -16.35Q-57 -12.55 -58.25 -8.9Q-58.3 -8.75 -58.7 -8.7L-58.25 -11.8M-51.05,26.2Q-56.1 20.75 -59.3 14Q-62.8 6.75 -64.95 -0.8L-64.95 -0.85L-65.3 -3.5L-63.2 -3.65L-62.8 -3.8Q-59.75 2.65 -56 9.2L-49.7 19.55L-51.05 26.2" fill="rgb(241,190,73)" fill-opacity="1"/><path d="M-53.9,-67.55L-55.75 -72.7L-55.4 -73.05L-54 -71.65L-50.5 -70.75Q-38.3 -68 -25.8 -68.8L-25.65 -68.8L-25.55 -68.7L-25.8 -68.65Q-30.4 -67.65 -34.2 -65.05L-36.15 -63.7L-46 -64L-45.15 -64.25L-47.55 -65.3L-47.8 -65.85L-51.15 -67.25L-52.95 -70.75L-53.45 -70.9L-53.9 -67.55M-31.3,-64.45L-25.9 -65.65L-26.95 -64.4L-32.2 -63.3L-31.3 -64.45M-14.45,-41.15L-14.7 -40.45L-14.75 -40.1Q-14.85 -39.6 -15.25 -39.25Q-15.8 -38.75 -16.55 -38.75L-16.7 -39L-15.75 -42.45L-14.35 -42.1L-14.45 -41.15M-21.05,-41.45L-21.6 -41Q-22.5 -43.25 -20.55 -44.85Q-20.2 -43.85 -20.55 -42.8L-21.05 -41.45M-31.75,-35.75L-32.05 -31.4L-32.85 -30.55Q-33.2 -33.2 -31.85 -35.9L-31.75 -35.75M22.85,-26.6L23.6 -25.25L24.55 -23.05L24.15 -22.85L22.9 -22.4L20.25 -21.65L16.55 -20.6Q6.8 -16.25 -3.35 -15.3L-5.45 -15.1Q-9.6 -14.95 -14.05 -15.2L-20.7 -16.15L-23.7 -8.15Q-25.55 -2.25 -26.45 3.85Q-28.45 16.85 -40 23.95Q-42.75 24.5 -45.45 25.2Q-44.35 30.7 -45.2 36.7Q-45.45 38.1 -46.65 38.65Q-49.45 38.8 -51.95 37.25Q-56.55 32.25 -58.65 26.75L-54.3 31.75Q-52.15 34 -49.05 33.25L-48.8 33.45Q-47.6 33 -46.8 32Q-47.45 27.95 -46.95 23.9L-46.55 21.65Q-36.75 17.1 -31.35 7.75Q-27.15 0.4 -26.85 -8.15L-26.85 -12.35Q-25.5 -13.6 -24.8 -15.15L-24.15 -17.35L-23.35 -23.45L-22.95 -24.35Q-20.65 -23.15 -17.95 -22.35Q-15.65 -21.5 -13.2 -21L-5.8 -19.5L-3.35 -19.35L-1.1 -19.25Q3.7 -19.25 8.55 -20.45L9.6 -20.6Q13.25 -21.2 16.55 -22.65L20.8 -25.25L22.5 -26.85L22.55 -27.1L22.85 -26.6M29.5,19.45L29.85 19.75L35 10.9Q36.75 7.95 38.65 5.1L42.65 -0.5Q43.85 -2.15 45.45 -3.25Q47.05 -4.4 49 -4.95L52.85 -6.2L64.3 -1.25L60.8 -1.45L59.85 -1.1L57.4 -1.35Q52.15 -2.05 47.8 0.7Q44.75 2.6 43.2 5.5Q41.45 8.8 39.35 11.9Q38.15 13.75 37.1 15.7Q34.95 19.8 32.35 23.6Q31.7 24.55 30.55 24.85L29.15 19.5L29.5 19.45M-1.05,48.85L-0.75 48.15Q-0.2 46.7 -0.05 45.1Q0.1 43.35 0.55 41.65L0.95 40.1L4.15 26.6L4.35 25.7L4.35 25.65L5.85 22.55Q4.75 35.4 0.95 48.45L-0.7 48.8L-1.05 48.85M-33.1,58.5Q-26.1 60 -18.85 60.1L-12.65 60.25Q-2.2 61.15 8.25 59.45Q9.65 59.35 10.75 58.15Q12.15 56.55 12.85 54.7L13.15 54.45L13.6 54.15L14.05 54.05Q15.15 57.85 12.7 61.25L12.3 61.6Q-12.2 66.05 -36.95 61.1Q-38.05 59.9 -37 58L-34.15 58.35L-33.1 58.5M-12.3,-51.15L-11.6 -50.5Q-11.15 -49.9 -11.05 -49.1Q-10.95 -48.35 -11.2 -47.6Q-11.8 -45.8 -13.55 -44.95L-13.6 -46.25L-13.1 -46.65Q-11.05 -48.6 -12.3 -51.15" fill="rgb(161,110,63)" fill-opacity="1"/><path d="M39.3,-29.8L39.25 -29.8L39.8 -30.6L40 -30.8L40.65 -30.55L40.8 -30.4L42.1 -29.05L42.25 -28.95L42.95 -28.4L39.3 -29.8M24.6,-22.85Q25.65 -20.15 25.25 -17.25L25.15 -16.6L25.1 -18.15Q24.95 -20.55 24.15 -22.85L24.55 -23.05L24.6 -22.85M12.85,54.7L13.2 53.65L13.15 54.45L12.85 54.7M-33.1,58.5L-34.15 58.35L-33.45 58.4L-33.1 58.5M-13.85,47.8Q-19.5 49.3 -25.4 49.8L-29.75 49.4L-30.15 49.4Q-27.9 48.65 -24.5 48.45L-13.75 47.5L-13.85 47.8M-35.55,-36.05Q-35.5 -37.1 -34.55 -37.65Q-33.95 -36.15 -33.75 -34.55Q-33.7 -33.9 -34.1 -33.2L-35.75 -30.35L-35.55 -36.05" fill="rgb(225,182,108)" fill-opacity="1"/><path d="M-35.75,-30.35L-38 -25.8Q-36.9 -26.35 -35.85 -26.95L-35.9 -20.65Q-39.5 -23.6 -44.15 -23.15L-44.2 -22.9L-44.65 -22.2L-44.25 -21.65L-41.6 -20.25L-35.9 -17.9L-35.85 -14.2L-35.95 -14.55Q-36.75 -16.35 -38.45 -16Q-41.2 -12.55 -40.4 -8.15Q-40.05 -2.55 -43.05 2Q-45.75 6.05 -46.45 9.8L-47.1 11.1Q-48.25 13.1 -48.75 15.35L-49.7 19.55L-56 9.2Q-59.75 2.65 -62.8 -3.8L-63.2 -3.65Q-61.55 -4.15 -60.3 -5.7Q-59.45 -6.85 -58.9 -8.15L-58.7 -8.7Q-58.3 -8.75 -58.25 -8.9Q-57 -12.55 -56.05 -16.35L-53.85 -23.8L-51.3 -31.2L-48.35 -38.5L-46.4 -42.6L-37.95 -58.15L-37.1 -59.7Q-34.8 -60.65 -33.05 -62.45L-32.2 -63.3L-26.95 -64.4L-25.9 -65.65L-25.8 -65.65Q-17.55 -66.9 -9.15 -64.65Q-6.65 -64 -4.2 -62.95L-0.8 -61.4L1.3 -60.35Q3.8 -57 7.9 -56.05L10.95 -55.3L16.8 -54.2L18.45 -54.6L18.5 -54.6Q21.8 -53.15 24.2 -50.35L24.7 -49.7Q31.45 -40.75 37.25 -31.1Q37.7 -30.4 38.35 -30.75L39.15 -31.1L39.8 -30.6L39.25 -29.8L39.3 -29.8Q38.45 -29.7 38.8 -29.5L39 -28.65L39.2 -25.25Q39.7 -20.55 41.9 -16.35L43.45 -13.5L40 -15.75Q37.45 -17.5 35.5 -19.95Q33.45 -22.4 32.05 -25.25Q31.05 -27.2 30.3 -29.35L29.65 -29.7L28.75 -30.1L28.55 -30.65Q28.05 -32.2 26.55 -32.6L25.95 -32.4L25.35 -32.05L25.3 -31.95L25.2 -32Q21.5 -40.4 15.3 -47.6L14.45 -46.85Q11.5 -41.5 13 -35.15L6.95 -34.05Q1.9 -31.55 -3.35 -32.5L-8.4 -34.25Q-10.65 -33.3 -12.95 -34.3L-15.25 -35.3L-14.75 -40.1L-14.7 -40.45L-14.45 -41.15L-14.35 -42.1L-14.3 -42.8L-15 -43.9Q-15.6 -47.1 -17.65 -49.6L-18.65 -50.65L-20.8 -47.95L-21.15 -48.3Q-21.45 -49.8 -22.9 -50.6L-23.9 -51L-26.5 -48.55L-27.3 -51.15L-28.1 -47.9L-28.6 -49.35L-32.2 -41.9L-31.7 -42L-32.25 -41.4L-31.05 -41.8L-32.3 -38.5L-34.1 -37.85L-34.85 -38.4L-34.55 -37.65Q-35.5 -37.1 -35.55 -36.05L-35.75 -30.35M30.95,4.9Q29.15 0 29 -5.3Q28.9 -8.8 29.35 -11.9L30.9 -10.05L34.4 -6.8Q35.35 -6 36.45 -5.35Q34 -1.8 32.1 2.25L30.95 4.9M-13.55,-44.95Q-11.8 -45.8 -11.2 -47.6Q-10.95 -48.35 -11.05 -49.1Q-11.15 -49.9 -11.6 -50.5L-12.3 -51.15L-14.15 -53.15L-13.35 -49.45Q-15.45 -48.4 -15.4 -46.15L-13.6 -46.25L-13.55 -44.95" fill="rgb(225,165,66)" fill-opacity="1"/></g></g></g></g></svg>
