<svg xmlns="http://www.w3.org/2000/svg" width="30" height="29" viewBox="-14 -16 32 30"><g><defs/></g><g id="0"><defs/><g><g type="shape" id="0:1:59"><defs/><g transform="matrix(1,0,0,1,0,0)"><path d="M1.95,-6.2L1.85 -4.6L1.3 1.2L0.95 2.75Q0.65 3.3 -0.05 3.3Q-0.7 3.3 -0.95 2.75Q-1.25 2.25 -1.35 1.15L-1.75 -4.45L-1.9 -6.8Q-1.9 -7.8 -1.35 -8.35Q-0.8 -8.9 0.15 -8.9Q1.2 -8.9 1.6 -8.2Q1.95 -7.5 1.95 -6.2M1.95,7.1Q1.95 7.9 1.35 8.35Q0.8 8.85 0.05 8.85Q-0.75 8.85 -1.3 8.35Q-1.9 7.9 -1.9 7.1Q-1.9 6.35 -1.35 5.85Q-0.8 5.35 0 5.35Q0.8 5.35 1.4 5.85Q1.95 6.35 1.95 7.1" fill="rgb(51,51,51)" fill-opacity="1"/></g></g></g></g></svg>
