<svg xmlns="http://www.w3.org/2000/svg" width="30" height="29" viewBox="-16 -16 31 30"><g><defs/></g><g id="0"><defs/><g><g type="shape" id="0:2:56"><defs/><g transform="matrix(0.994385,0,0,0.994064,0,0)"><path d="M2.55,10.65Q-5.05 14.35 -9.5 7.95Q-2.1 5.9 2.55 10.65M-11.75,7.3Q-15.05 0.8 -8 -3.55Q-6.3 2.3 -11.75 7.3" fill="rgb(0,153,0)" fill-opacity="1"/><path d="M-9.5,7.95Q-5.05 14.35 2.55 10.65Q-2.1 5.9 -9.5 7.95M-11.75,7.3Q-15.05 0.8 -8 -3.55Q-6.3 2.3 -11.75 7.3" stroke="rgb(0,51,0)" stroke-linecap="round" stroke-linejoin="round" stroke-miterlimit="3" stroke-width="1" fill="none"/><path d="M2.95,-0.6Q-3.4 7.35 -15.45 8.85" stroke="rgb(0,51,0)" stroke-linecap="round" stroke-linejoin="round" stroke-miterlimit="3" stroke-width="2" fill="none"/><path d="M4.85,-5.1L4.25 -4.75Q2.85 -6.25 2.05 -6.6Q0.95 -7.1 0.5 -8.2Q0.05 -9.3 0.55 -10.4Q1.05 -11.55 2.15 -11.95L4.4 -11.9Q5.5 -11.45 5.95 -10.3Q6.4 -9.2 5.9 -8.1Q5.55 -7.3 5.45 -5.25L4.85 -5.1M7,-4.95Q7.5 -6.8 7.45 -7.6Q7.3 -8.8 8.05 -9.75Q8.8 -10.7 10 -10.85Q11.2 -10.95 12.15 -10.2Q13.1 -9.45 13.2 -8.25Q13.35 -7.05 12.6 -6.1Q11.85 -5.15 10.65 -5.05Q9.75 -4.95 7.95 -3.95L7 -4.95M8.05,-1.75L8.3 -2.5Q10.1 -2 11 -2.05Q12.15 -2.2 13.1 -1.45Q14.05 -0.7 14.2 0.5Q14.3 1.7 13.55 2.65Q12.8 3.6 11.65 3.7Q10.4 3.85 9.45 3.1Q8.5 2.35 8.4 1.15Q8.3 0.4 7.6 -1.05L8.05 -1.75M4.75,-0.45L5.65 -0.25Q6.05 1.2 6.5 1.8Q7.2 2.75 7.05 3.95Q6.85 5.1 5.85 5.85Q4.85 6.55 3.7 6.4Q2.5 6.2 1.8 5.25Q1.05 4.25 1.25 3.05Q1.4 1.85 2.4 1.2L4.05 -0.9L4.75 -0.45M3.45,-1.85L3.5 -1.7Q1.6 -1.25 0.95 -0.7Q-0.05 0 -1.25 -0.15Q-2.4 -0.35 -3.15 -1.35Q-3.85 -2.35 -3.65 -3.5Q-3.5 -4.7 -2.55 -5.4Q-1.55 -6.15 -0.35 -5.95Q0.85 -5.8 1.55 -4.8Q2 -4.2 3.3 -3.35Q3.15 -2.6 3.45 -1.85" fill="rgb(255,204,0)" fill-opacity="1"/><path d="M7.95,-3.95L8.1 -3.65L8.3 -2.5L8.05 -1.75L7.6 -1.05L6.7 -0.4L5.65 -0.25L4.75 -0.45L4.05 -0.9Q3.7 -1.25 3.5 -1.7L3.45 -1.85Q3.15 -2.6 3.3 -3.35L3.45 -3.8L4.25 -4.75L4.85 -5.1L5.45 -5.25L6.75 -5.05L7 -4.95L7.95 -3.95" fill="rgb(255,255,255)" fill-opacity="1"/><path d="M4.25,-4.75Q2.85 -6.25 2.05 -6.6Q0.95 -7.1 0.5 -8.2Q0.05 -9.3 0.55 -10.4Q1.05 -11.55 2.15 -11.95L4.4 -11.9Q5.5 -11.45 5.95 -10.3Q6.4 -9.2 5.9 -8.1Q5.55 -7.3 5.45 -5.25L6.75 -5.05L7 -4.95Q7.5 -6.8 7.45 -7.6Q7.3 -8.8 8.05 -9.75Q8.8 -10.7 10 -10.85Q11.2 -10.95 12.15 -10.2Q13.1 -9.45 13.2 -8.25Q13.35 -7.05 12.6 -6.1Q11.85 -5.15 10.65 -5.05Q9.75 -4.95 7.95 -3.95L8.1 -3.65L8.3 -2.5Q10.1 -2 11 -2.05Q12.15 -2.2 13.1 -1.45Q14.05 -0.7 14.2 0.5Q14.3 1.7 13.55 2.65Q12.8 3.6 11.65 3.7Q10.4 3.85 9.45 3.1Q8.5 2.35 8.4 1.15Q8.3 0.4 7.6 -1.05L6.7 -0.4L5.65 -0.25Q6.05 1.2 6.5 1.8Q7.2 2.75 7.05 3.95Q6.85 5.1 5.85 5.85Q4.85 6.55 3.7 6.4Q2.5 6.2 1.8 5.25Q1.05 4.25 1.25 3.05Q1.4 1.85 2.4 1.2L4.05 -0.9Q3.7 -1.25 3.5 -1.7Q1.6 -1.25 0.95 -0.7Q-0.05 0 -1.25 -0.15Q-2.4 -0.35 -3.15 -1.35Q-3.85 -2.35 -3.65 -3.5Q-3.5 -4.7 -2.55 -5.4Q-1.55 -6.15 -0.35 -5.95Q0.85 -5.8 1.55 -4.8Q2 -4.2 3.3 -3.35L3.45 -3.8L4.25 -4.75L4.85 -5.1L5.45 -5.25M5.65,-0.25L4.75 -0.45L4.05 -0.9M3.5,-1.7L3.45 -1.85Q3.15 -2.6 3.3 -3.35M8.3,-2.5L8.05 -1.75L7.6 -1.05M7,-4.95L7.95 -3.95" stroke="rgb(153,102,0)" stroke-linecap="round" stroke-linejoin="round" stroke-miterlimit="3" stroke-width="1" fill="none"/></g></g></g></g></svg>
