<svg xmlns="http://www.w3.org/2000/svg" width="30" height="29" viewBox="-14 -16 32 30"><g><defs><radialGradient cx="0" cy="0" fx="0" fy="0" gradientTransform="matrix(0.00549316, 0.00549316, -0.008255, 0.008255, -1.45, -3.3)" gradientUnits="userSpaceOnUse" r="819.2" spreadMethod="pad" tp="3" id="f90:0"><stop offset="0.5529411764705883" stop-color="rgb(255,0,0)"/><stop offset="1" stop-color="rgb(153,0,0)"/></radialGradient></defs></g><g id="0"><defs/><g><g type="shape" id="0:1:90"><defs/><g transform="matrix(1.57141,0,0,1.57141,0,0)"><path d="M0.45,-5.9Q1.55 -7 3.15 -7Q4.7 -7 5.9 -5.9Q7.1 -4.7 7 -3.25Q6.8 -0.7 3.75 1.6Q0.55 3.9 0.1 7L-2.3 4.95L-4.45 2.55L-6.25 -0.2Q-7.1 -1.65 -7 -3.25Q-6.95 -4.8 -5.85 -5.85Q-4.75 -6.95 -3.15 -6.95Q-1.6 -6.9 -0.5 -5.9L0 -5.4L0.45 -5.9" fill="url(#f90:0)"/><path d="M0,-5.4L-0.5 -5.9Q-1.6 -6.9 -3.15 -6.95Q-4.75 -6.95 -5.85 -5.85Q-6.95 -4.8 -7 -3.25Q-7.1 -1.65 -6.25 -0.2L-4.45 2.55L-2.3 4.95L0.1 7Q0.55 3.9 3.75 1.6Q6.8 -0.7 7 -3.25Q7.1 -4.7 5.9 -5.9Q4.7 -7 3.15 -7Q1.55 -7 0.45 -5.9L0 -5.4Q-0.7 -4.45 -0.7 -3.25" stroke="rgb(102,0,0)" stroke-linecap="round" stroke-linejoin="round" stroke-miterlimit="3" stroke-width="1" fill="none"/></g></g></g></g></svg>
