<svg xmlns="http://www.w3.org/2000/svg" width="30" height="29" viewBox="-14 -16 32 30"><g><defs/></g><g id="0"><defs/><g><g type="sprite" id="0:1:85"><defs/><g transform="matrix(0.299988,0,0,0.299988,0,7.2)"><g type="shape" id="0:1:85:2:84"><defs/><g transform="matrix(1,0,0,1,0,0)"><path d="M32.2,-35.9Q45.5 -28.35 45.5 -17.75Q45.5 -7.2 32.2 0.3Q21.35 6.4 6.85 7.55L-1.55 17.5L-5.9 15.75L-9.2 14.4L-13.7 12.55Q-18.45 0.1 -36.1 3.45L-43.15 0.55L-41 -5.3L-40.35 -5.85Q-45.45 -11.25 -45.45 -17.75Q-45.45 -28.35 -32.1 -35.9Q-18.85 -43.4 0.05 -43.4Q18.9 -43.4 32.2 -35.9" fill="rgb(0,0,0)" fill-opacity="0.4"/><path d="M0.35,5.3L0.1 5.3Q21.95 -8.7 13.2 -26.65Q18.15 -42.8 0.75 -64.3L-0.55 -65.45L0.4 -65.45Q22 -65.15 32.45 -51.4Q44.05 -13.95 0.35 5.3M-35.8,3.45Q-35.3 -2.4 -34.2 -6.3Q-32.85 -11.3 -30.6 -13.3L-25.3 -5.8L-25.3 -5.75L-35.8 3.45M-6.75,-6.45Q-9.05 -15.25 -17.55 -19.8L-18.1 -20.05L-9.55 -28.95Q-4.2 -25.9 -1.1 -19.85Q0.2 -16.85 0.85 -13.8L-6.75 -6.45" fill="rgb(204,204,204)" fill-opacity="1"/><path d="M0.35,5.3Q44.05 -13.95 32.45 -51.4L35.1 -47.3Q40.95 -36.95 40.95 -23.3Q40.95 -11.5 28.8 -3.05Q26.05 -1.15 23 0.3Q13.1 5.1 0.35 5.3M-1.4,5.3L-7.95 13.75L-7.35 11.4Q-6.55 8.1 -6.2 5.1Q-5.45 -1.4 -6.75 -6.45L0.85 -13.8Q2.7 -4.8 -1.1 4.9L-1.4 5.3" fill="rgb(153,153,153)" fill-opacity="1"/><path d="M-1.1,4.9Q2.7 -4.8 0.85 -13.8Q0.2 -16.85 -1.1 -19.85Q-4.2 -25.9 -9.55 -28.95L-18.1 -20.05L-17.55 -19.8Q-9.05 -15.25 -6.75 -6.45Q-5.45 -1.4 -6.2 5.1Q-6.55 8.1 -7.35 11.4L-7.95 13.75L-8.1 14.15L-9.2 13.85L-14.4 12.4Q-13.45 7.85 -13.3 4.05Q-13.2 1.55 -13.4 -0.6Q-14.2 -7.95 -18.9 -11.5L-18.95 -11.55L-19 -11.6Q-20.85 -13 -23.3 -13.8Q-27.7 -15.95 -30.6 -13.3Q-32.85 -11.3 -34.2 -6.3Q-35.3 -2.4 -35.8 3.45L-35.85 3.5L-43.3 0.1L-43.3 -0.55Q-43.4 -5.3 -40.15 -14.05Q-42.25 -18.4 -42.25 -23.3Q-42.25 -36.4 -35.8 -47.3Q-25.15 -65.45 -0.55 -65.45L0.75 -64.3Q18.15 -42.8 13.2 -26.65Q21.95 -8.7 0.1 5.3L-0.05 5.3L-0.45 5.3L-0.65 5.3L-1.4 5.3L-1.1 4.9" fill="rgb(255,255,255)" fill-opacity="1"/><path d="M-18.95,-11.55L-18.9 -11.5Q-14.2 -7.95 -13.4 -0.6L-13.95 -0.5L-25.3 -5.75L-25.3 -5.8L-30.6 -13.3Q-27.7 -15.95 -23.3 -13.8Q-20.85 -13 -19 -11.6L-18.95 -11.55" fill="rgb(102,102,102)" fill-opacity="1"/><path d="M32.45,-51.4Q22 -65.15 0.4 -65.45L-0.55 -65.45Q-25.15 -65.45 -35.8 -47.3Q-42.25 -36.4 -42.25 -23.3Q-42.25 -18.4 -40.15 -14.05M32.45,-51.4L35.1 -47.3Q40.95 -36.95 40.95 -23.3Q40.95 -11.5 28.8 -3.05Q26.05 -1.15 23 0.3Q13.1 5.1 0.35 5.3M-30.6,-13.3Q-32.85 -11.3 -34.2 -6.3Q-35.3 -2.4 -35.8 3.45L-25.3 -5.75M-9.2,13.85L-14.4 12.4Q-13.45 7.85 -13.3 4.05Q-13.2 1.55 -13.4 -0.6Q-14.2 -7.95 -18.9 -11.5L-18.95 -11.55L-19.4 -11L-25.3 -5.8M-1.4,5.3L-7.95 13.75L-7.35 11.4Q-6.55 8.1 -6.2 5.1Q-5.45 -1.4 -6.75 -6.45Q-9.05 -15.25 -17.55 -19.8L-18.1 -20.05Q-28.75 -25.6 -34.35 -22.75Q-37.3 -21.25 -38.8 -17.45L-40.15 -14.05Q-43.4 -5.3 -43.3 -0.55M-43.3,0.1L-35.85 3.5M-30.6,-13.3Q-27.7 -15.95 -23.3 -13.8Q-20.85 -13 -19 -11.6L-18.95 -11.55M0.85,-13.8Q0.2 -16.85 -1.1 -19.85Q-4.2 -25.9 -9.55 -28.95Q-14.4 -31.7 -21.1 -32.05Q-30.7 -29.35 -34.65 -23.25M0.85,-13.8Q2.7 -4.8 -1.1 4.9" stroke="rgb(0,0,0)" stroke-linecap="round" stroke-linejoin="round" stroke-miterlimit="3" stroke-width="4" fill="none"/><path d="M-25.3,-5.75L-25.3 -5.8" stroke="rgb(153,153,153)" stroke-linecap="round" stroke-linejoin="round" stroke-miterlimit="3" stroke-width="2" fill="none"/><path d="M-7.95,13.75L-8.1 14.15L-9.2 13.85" stroke="rgb(102,102,102)" stroke-linecap="round" stroke-linejoin="round" stroke-miterlimit="3" stroke-width="2" fill="none"/><path d="M-35.85,3.5L-35.8 3.45L-35.8 3.5L-35.85 3.5z" stroke="rgb(0,204,0)" stroke-linecap="round" stroke-linejoin="round" stroke-miterlimit="3" stroke-width="2" fill="none"/></g></g></g></g></g></g></svg>
