<svg xmlns="http://www.w3.org/2000/svg" width="30" height="29" viewBox="-14 -16 32 30"><g><defs/></g><g id="0"><defs/><g><g type="shape" id="0:5:75"><defs/><g transform="matrix(1.49695,0,0,1.49744,0,0)"><path d="M0,4.7L0.05 8.3L-7 5.55L-7 1.9L0 4.7" fill="rgb(153,153,153)" fill-opacity="1"/><path d="M-7,1.9L-1 -1.05L7.05 1.55L0 4.7L-7 1.9" fill="rgb(255,255,255)" fill-opacity="1"/><path d="M0,4.7L7.05 1.55L7.05 4.7L0.05 8.3L0 4.7" fill="rgb(102,102,102)" fill-opacity="1"/><path d="M7.05,1.55L7.05 4.7L0.05 8.3L-7 5.55L-7 1.9L-1 -1.05L7.05 1.55z" stroke="rgb(51,51,51)" stroke-linecap="round" stroke-linejoin="round" stroke-miterlimit="3" stroke-width="1" fill="none"/><path d="M2.1,1.6Q2.1 2.05 1.5 2.4L0 2.7L-1.5 2.4L-2.15 1.6L-1.85 1.05L-1.5 0.85L0 0.55L1.5 0.85L1.8 1.05L2.1 1.6" fill="rgb(153,153,153)" fill-opacity="1"/><path d="M2.1,1.6Q2.1 2.05 1.5 2.4L0 2.7L-1.5 2.4L-2.15 1.6L-1.85 1.05L-1.5 0.85L0 0.55L1.5 0.85L1.8 1.05L2.1 1.6z" stroke="rgb(102,102,102)" stroke-linecap="round" stroke-linejoin="round" stroke-miterlimit="3" stroke-width="1" fill="none"/><path d="M-0.1,1.05L-0.1 -2.6" stroke="rgb(0,0,0)" stroke-linecap="round" stroke-linejoin="round" stroke-miterlimit="3" stroke-width="2" fill="none"/><path d="M3.45,1L3.7 1.45L3.55 1.95Q2.9 2.3 2.3 1.95L2.05 1.45L2.05 1.4Q2.1 0.95 2.6 0.9L3.45 1" fill="rgb(255,0,0)" fill-opacity="1"/><path d="M2.3,1.95Q2.9 2.3 3.55 1.95L3.7 1.45L3.45 1L3.95 1.6L4.05 2Q4.05 2.8 3.2 2.9L2.15 2.75Q1.8 2.6 1.8 2.2Q1.8 1.75 2.05 1.45L2.3 1.95" fill="rgb(153,0,0)" fill-opacity="1"/><path d="M-0.15,0.4L-1 0.25L-1.7 -0.15L-1.8 -6.6L-0.15 -7.4L-0.15 0.4" fill="rgb(204,204,204)" fill-opacity="1"/><path d="M-0.15,-7.4L1.6 -6.8L1.1 0.2L-0.15 0.4L-0.15 -7.4" fill="rgb(102,102,102)" fill-opacity="1"/><path d="M-0.15,0.4L-1 0.25L-1.7 -0.15L-1.8 -6.6L-0.15 -7.4L1.6 -6.8L1.1 0.2L-0.15 0.4z" stroke="rgb(51,51,51)" stroke-linecap="round" stroke-linejoin="round" stroke-miterlimit="3" stroke-width="1" fill="none"/></g></g></g></g></svg>
