<svg xmlns="http://www.w3.org/2000/svg" width="30" height="29" viewBox="-14 -16 32 30"><g><defs/></g><g id="0"><defs/><g><g type="shape" id="0:4:56"><defs/><g transform="matrix(0.956177,0,0,0.956223,0,0)"><path d="M0.3,6.3L0.3 1.9L4.4 1.9L4.4 4.7L3.45 5.3Q1.85 6.2 0.3 6.3M0.3,8.7L0.3 7.5Q2.3 7.35 4.4 5.9L4.4 7.1L3.5 7.7Q1.85 8.6 0.3 8.7M4.4,8.3L4.4 10.7Q2.3 12.15 0.3 12.3L0.3 9.9Q2.3 9.75 4.4 8.3" fill="rgb(186,186,186)" fill-opacity="1"/><path d="M-3.35,5.4L-4.4 4.7L-4.4 1.9L0.3 1.9L0.3 6.3Q1.85 6.2 3.45 5.3L4.4 5.9Q2.3 7.35 0.3 7.5L0.3 6.3Q-1.55 6.45 -3.35 5.4M0.3,7.5L0.3 8.7Q1.85 8.6 3.5 7.7L4.4 8.3Q2.3 9.75 0.3 9.9L0.3 8.7Q-1.55 8.85 -3.35 7.8L-4.4 7.1L-4.4 5.9Q-2.15 7.7 0.3 7.5M0.3,9.9L0.3 12.3Q-2.15 12.5 -4.4 10.7L-4.4 8.3Q-2.15 10.1 0.3 9.9" fill="rgb(204,204,204)" fill-opacity="1"/><path d="M0.3,8.7L0.3 9.9Q-2.15 10.1 -4.4 8.3L-3.35 7.8Q-1.55 8.85 0.3 8.7M-4.4,5.9L-3.35 5.4Q-1.55 6.45 0.3 6.3L0.3 7.5Q-2.15 7.7 -4.4 5.9" fill="rgb(255,255,255)" fill-opacity="1"/><path d="M3.45,5.3L4.4 4.7L4.4 1.9L0.3 1.9M4.4,5.9L4.4 7.1L3.5 7.7L4.4 8.3L4.4 10.7Q2.3 12.15 0.3 12.3Q-2.15 12.5 -4.4 10.7L-4.4 8.3M-3.35,7.8L-4.4 7.1L-4.4 5.9M-3.35,5.4L-4.4 4.7L-4.4 1.9L0.3 1.9" stroke="rgb(102,102,102)" stroke-linecap="round" stroke-linejoin="round" stroke-miterlimit="3" stroke-width="1.5" fill="none"/><path d="M8.35,-3.95Q8.35 -0.5 5.9 1.95Q3.45 4.4 0 4.4Q-3.45 4.4 -5.9 1.95Q-8.35 -0.5 -8.35 -3.95Q-8.35 -7.4 -5.9 -9.85Q-3.45 -12.3 0 -12.3Q3.45 -12.3 5.9 -9.85Q8.35 -7.4 8.35 -3.95" fill="rgb(255,255,153)" fill-opacity="1"/><path d="M8.35,-3.95Q8.35 -0.5 5.9 1.95Q3.45 4.4 0 4.4Q-3.45 4.4 -5.9 1.95Q-8.35 -0.5 -8.35 -3.95Q-8.35 -7.4 -5.9 -9.85Q-3.45 -12.3 0 -12.3Q3.45 -12.3 5.9 -9.85Q8.35 -7.4 8.35 -3.95z" stroke="rgb(180,125,1)" stroke-linecap="round" stroke-linejoin="round" stroke-miterlimit="3" stroke-width="1.5" fill="none"/><path d="M-1.15,0.1L-1.55 -1.15L-2 -1.1L-2.8 -0.85Q-3.95 -0.35 -3.95 0.3Q-3.95 0.95 -2.8 1.4L-0.05 1.9L2.7 1.4Q3.85 0.95 3.85 0.3Q3.85 -0.35 2.7 -0.85L1.6 -1.15L1.15 0.1M-3.25,-6.3L-1.55 -1.15L-0.05 -1.3L1.6 -1.15L3.25 -6.3" stroke="rgb(254,208,103)" stroke-linecap="round" stroke-linejoin="round" stroke-miterlimit="3" stroke-width="1" fill="none"/><path d="M6.6,-2.55Q4.5 -8.45 -1 -8.65L1.5 -10.4Q7.3 -8.05 6.6 -2.55" fill="rgb(255,255,255)" fill-opacity="1"/></g></g></g></g></svg>
