<svg xmlns="http://www.w3.org/2000/svg" width="30" height="29" viewBox="-14 -16 32 30"><g><defs/></g><g id="0"><defs/><g><g type="shape" id="0:1:82"><defs/><g transform="matrix(1,0,0,1,0,0)"><path d="M6.7,-0.15L7.6 -2.05L8.1 0L10.15 0.2L8.4 1.35L8.85 3.4L7.2 2.05L5.4 3.05L6.2 1.15L4.65 -0.25L6.7 -0.15M1.1,-7.65L4.05 -7.25L1.5 -5.75L2.05 -2.8L-0.2 -4.75L-2.8 -3.35L-1.65 -6.1L-3.8 -8.15L-0.85 -7.9L0.45 -10.55L1.1 -7.65" fill="rgb(250,228,96)" fill-opacity="1"/><path d="M-5.8,-3.3Q-4.95 5.8 7.1 8.1Q4.1 10.55 0.45 10.55Q-3.95 10.55 -7.05 7.45L-8.15 6.15Q-9.1 -0.35 -5.8 -3.3" fill="rgb(153,153,153)" fill-opacity="1"/><path d="M-8.15,6.15Q-10.1 3.45 -10.1 -0.05Q-10.1 -4.45 -7.05 -7.55L-5.5 -8.8Q-6.1 -5.8 -5.8 -3.3Q-9.1 -0.35 -8.15 6.15" fill="rgb(186,186,186)" fill-opacity="1"/><path d="M6.7,-0.15L7.6 -2.05L8.1 0L10.15 0.2L8.4 1.35L8.85 3.4L7.2 2.05L5.4 3.05L6.2 1.15L4.65 -0.25L6.7 -0.15M1.1,-7.65L4.05 -7.25L1.5 -5.75L2.05 -2.8L-0.2 -4.75L-2.8 -3.35L-1.65 -6.1L-3.8 -8.15L-0.85 -7.9L0.45 -10.55L1.1 -7.65" stroke="rgb(194,119,16)" stroke-linecap="round" stroke-linejoin="round" stroke-miterlimit="3" stroke-width="1" fill="none"/><path d="M-5.8,-3.3Q-4.95 5.8 7.1 8.1Q4.1 10.55 0.45 10.55Q-3.95 10.55 -7.05 7.45L-8.15 6.15Q-10.1 3.45 -10.1 -0.05Q-10.1 -4.45 -7.05 -7.55L-5.5 -8.8Q-6.1 -5.8 -5.8 -3.3z" stroke="rgb(102,102,102)" stroke-linecap="round" stroke-linejoin="round" stroke-miterlimit="3" stroke-width="1" fill="none"/></g></g></g></g></svg>
