<svg xmlns="http://www.w3.org/2000/svg" width="30" height="29" viewBox="-16 -16 31 30">
	<g transform="matrix(1.75066,0.412643,-0.411652,1.74652,-4.7,-2.05)">
		<g>
			<path d="M5.3,4.85L3.7 4.8L1.3 5.1L-0.2 4.85Q-1.55 4.25 -0.95 2.5L-0.8 2.05L-0.4 1.45Q0.25 0.65 1.1 0.3Q2.55 -0.3 4.2 -0.3Q5.65 -0.25 6.85 0.4Q8.5 1.35 8.75 2.8L8.7 3.8L8.15 4.55L7.2 4.9L5.3 4.85" fill="rgb(255,153,0)"/>
			<path d="M4.9,5.5L3.4 5.45L0.95 5.7L-0.65 5.45Q-1.5 5.1 -1.65 4.25Q-1.85 3.1 -1.1 1.95Q-0.4 0.8 1 0.1Q2.3 -0.55 4.2 -0.55Q5.7 -0.5 7 0.2Q8.75 1.2 9 2.75L8.95 3.9L8.35 4.75L8.3 4.8L6.9 5.55L4.9 5.5M7.2,4.9L8.15 4.55L8.7 3.8L8.75 2.8Q8.5 1.35 6.85 0.4Q5.65 -0.25 4.2 -0.3Q2.55 -0.3 1.1 0.3Q0.25 0.65 -0.4 1.45L-0.8 2.05L-0.95 2.5Q-1.55 4.25 -0.2 4.85L1.3 5.1L3.7 4.8L5.3 4.85L7.2 4.9" fill="rgb(253,73,53)"/>
		</g>
		<g transform="matrix(0.244019,0,0,0.244019,5.8,-4.45)">
			<path d="M13.2,14.7L14.3 13.9L13.25 14.95L13.2 14.7" fill="rgb(255,102,0)"/>
			<path d="M13.2,14.7Q11.65 15.7 9.7 15.75Q6.6 15.85 4.25 13.6Q1.8 11.35 1.55 8.1Q1.25 4.85 3.35 2.45Q4.5 1.05 6 0.45L6.05 0.45L6.35 0.3L6.7 0.2L8.45 0Q11.55 -0.1 14 2.1L14.55 2.65L15.4 3.7L15.75 4.25Q16.55 5.8 16.7 7.6L16.75 8.2L16.65 9.7Q16.25 11.65 14.9 13.25L14.3 13.9L13.2 14.7" fill="rgb(255,153,0)"/>
			<path d="M13.25,14.95Q11.1 16.8 8.75 16.9Q5.4 17 2.9 14.6Q0.3 12.3 0.05 8.85Q-0.25 5.4 1.95 2.8Q3.65 0.85 6 0.45Q4.5 1.05 3.35 2.45Q1.25 4.85 1.55 8.1Q1.8 11.35 4.25 13.6Q6.6 15.85 9.7 15.75Q11.65 15.7 13.2 14.7L13.25 14.95" fill="rgb(253,73,53)"/>
			<path d="M14.3,13.9L13.25 14.95Q11.1 16.8 8.75 16.9Q5.4 17 2.9 14.6Q0.3 12.3 0.05 8.85Q-0.25 5.4 1.95 2.8Q3.65 0.85 6 0.45Q4.5 1.05 3.35 2.45Q1.25 4.85 1.55 8.1Q1.8 11.35 4.25 13.6Q6.6 15.85 9.7 15.75Q11.65 15.7 13.2 14.7L14.3 13.9L14.9 13.25Q16.25 11.65 16.65 9.7L16.75 8.2L16.7 7.6Q16.55 5.8 15.75 4.25L15.4 3.7L14.55 2.65L14 2.1Q11.55 -0.1 8.45 0L6.7 0.2L6.35 0.3" stroke="rgb(253,73,53)" stroke-linecap="round" stroke-linejoin="round" stroke-miterlimit="3" stroke-width="1" fill="none"/>
		</g>
		<g transform="matrix(0.244019,0,0,0.244019,0.85,-5.8)">
			<path d="M13.2,14.7L14.3 13.9L13.25 14.95L13.2 14.7" fill="rgb(255,102,0)"/>
			<path d="M13.2,14.7Q11.65 15.7 9.7 15.75Q6.6 15.85 4.25 13.6Q1.8 11.35 1.55 8.1Q1.25 4.85 3.35 2.45Q4.5 1.05 6 0.45L6.05 0.45L6.35 0.3L6.7 0.2L8.45 0Q11.55 -0.1 14 2.1L14.55 2.65L15.4 3.7L15.75 4.25Q16.55 5.8 16.7 7.6L16.75 8.2L16.65 9.7Q16.25 11.65 14.9 13.25L14.3 13.9L13.2 14.7" fill="rgb(255,153,0)"/>
			<path d="M13.25,14.95Q11.1 16.8 8.75 16.9Q5.4 17 2.9 14.6Q0.3 12.3 0.05 8.85Q-0.25 5.4 1.95 2.8Q3.65 0.85 6 0.45Q4.5 1.05 3.35 2.45Q1.25 4.85 1.55 8.1Q1.8 11.35 4.25 13.6Q6.6 15.85 9.7 15.75Q11.65 15.7 13.2 14.7L13.25 14.95" fill="rgb(253,73,53)"/>
			<path d="M14.3,13.9L13.25 14.95Q11.1 16.8 8.75 16.9Q5.4 17 2.9 14.6Q0.3 12.3 0.05 8.85Q-0.25 5.4 1.95 2.8Q3.65 0.85 6 0.45Q4.5 1.05 3.35 2.45Q1.25 4.85 1.55 8.1Q1.8 11.35 4.25 13.6Q6.6 15.85 9.7 15.75Q11.65 15.7 13.2 14.7L14.3 13.9L14.9 13.25Q16.25 11.65 16.65 9.7L16.75 8.2L16.7 7.6Q16.55 5.8 15.75 4.25L15.4 3.7L14.55 2.65L14 2.1Q11.55 -0.1 8.45 0L6.7 0.2L6.35 0.3" stroke="rgb(253,73,53)" stroke-linecap="round" stroke-linejoin="round" stroke-miterlimit="3" stroke-width="1" fill="none"/>
		</g>
		<g transform="matrix(0.255646,0,0,0.255646,-4.35,-4.2)">
			<path d="M13.2,14.7L14.3 13.9L13.25 14.95L13.2 14.7" fill="rgb(255,102,0)"/>
			<path d="M13.2,14.7Q11.65 15.7 9.7 15.75Q6.6 15.85 4.25 13.6Q1.8 11.35 1.55 8.1Q1.25 4.85 3.35 2.45Q4.5 1.05 6 0.45L6.05 0.45L6.35 0.3L6.7 0.2L8.45 0Q11.55 -0.1 14 2.1L14.55 2.65L15.4 3.7L15.75 4.25Q16.55 5.8 16.7 7.6L16.75 8.2L16.65 9.7Q16.25 11.65 14.9 13.25L14.3 13.9L13.2 14.7" fill="rgb(255,153,0)"/>
			<path d="M13.25,14.95Q11.1 16.8 8.75 16.9Q5.4 17 2.9 14.6Q0.3 12.3 0.05 8.85Q-0.25 5.4 1.95 2.8Q3.65 0.85 6 0.45Q4.5 1.05 3.35 2.45Q1.25 4.85 1.55 8.1Q1.8 11.35 4.25 13.6Q6.6 15.85 9.7 15.75Q11.65 15.7 13.2 14.7L13.25 14.95" fill="rgb(253,73,53)"/>
			<path d="M14.3,13.9L13.25 14.95Q11.1 16.8 8.75 16.9Q5.4 17 2.9 14.6Q0.3 12.3 0.05 8.85Q-0.25 5.4 1.95 2.8Q3.65 0.85 6 0.45Q4.5 1.05 3.35 2.45Q1.25 4.85 1.55 8.1Q1.8 11.35 4.25 13.6Q6.6 15.85 9.7 15.75Q11.65 15.7 13.2 14.7L14.3 13.9L14.9 13.25Q16.25 11.65 16.65 9.7L16.75 8.2L16.7 7.6Q16.55 5.8 15.75 4.25L15.4 3.7L14.55 2.65L14 2.1Q11.55 -0.1 8.45 0L6.7 0.2L6.35 0.3" stroke="rgb(253,73,53)" stroke-linecap="round" stroke-linejoin="round" stroke-miterlimit="3" stroke-width="1" fill="none"/>
		</g>
	</g>
</svg>
