<svg xmlns="http://www.w3.org/2000/svg" width="30" height="29" viewBox="-16 -16 31 30">
	<defs>
		<linearGradient gradientTransform="matrix(0, 0.0139923, 0.0148621, 0, 31.25, 38.25)" gradientUnits="userSpaceOnUse" spreadMethod="pad" x1="-819.2" x2="819.2" y1="0" y2="0" id="f75:4">
			<stop offset="0" stop-color="rgb(241,189,70)"/>
			<stop offset="1" stop-color="rgb(253,249,211)"/>
		</linearGradient>
		<linearGradient gradientTransform="matrix(0, 0.0193176, 0.0205383, 0, 31.45, 47.7)" gradientUnits="userSpaceOnUse" spreadMethod="pad" x1="-819.2" x2="819.2" y1="0" y2="0" id="f75:5">
			<stop offset="0" stop-color="rgb(241,189,70)"/>
			<stop offset="0.807843137254902" stop-color="rgb(177,122,44)"/>
		</linearGradient>
		<linearGradient gradientTransform="matrix(0, 0.0126801, 0.0134735, 0, 46.6, 34.85)" gradientUnits="userSpaceOnUse" spreadMethod="pad" x1="-819.2" x2="819.2" y1="0" y2="0" id="f75:6">
			<stop offset="0" stop-color="rgb(95,152,193)"/>
			<stop offset="1" stop-color="rgb(30,67,87)"/>
		</linearGradient>
		<linearGradient gradientTransform="matrix(0, 0.00765991, 0.00813293, 0, 49.65, 32.55)" gradientUnits="userSpaceOnUse" spreadMethod="pad" x1="-819.2" x2="819.2" y1="0" y2="0" id="f75:9">
			<stop offset="0" stop-color="rgb(95,152,193)"/>
			<stop offset="1" stop-color="rgb(30,67,87)"/>
		</linearGradient>
		<linearGradient gradientTransform="matrix(0, 0.00363159, 0.00384521, 0, 31.25, 38.05)" gradientUnits="userSpaceOnUse" spreadMethod="pad" x1="-819.2" x2="819.2" y1="0" y2="0" id="f75:11">
			<stop offset="0" stop-color="rgb(226,167,64)"/>
			<stop offset="1" stop-color="rgb(241,189,70)"/>
		</linearGradient>
		<linearGradient gradientTransform="matrix(0, 0.00765991, 0.00813293, 0, 46.25, 32.55)" gradientUnits="userSpaceOnUse" spreadMethod="pad" x1="-819.2" x2="819.2" y1="0" y2="0" id="f75:16">
			<stop offset="0" stop-color="rgb(95,152,193)"/>
			<stop offset="1" stop-color="rgb(30,67,87)"/>
		</linearGradient>
		<linearGradient gradientTransform="matrix(0, 0.00404358, 0.00428772, 0, 31.2, 15.3)" gradientUnits="userSpaceOnUse" spreadMethod="pad" x1="-819.2" x2="819.2" y1="0" y2="0" id="f75:17">
			<stop offset="0" stop-color="rgb(254,227,121)"/>
			<stop offset="0.2588235294117647" stop-color="rgb(226,167,64)"/>
			<stop offset="0.3725490196078432" stop-color="rgb(177,122,44)"/>
			<stop offset="1" stop-color="rgb(88,60,24)"/>
		</linearGradient>
		<linearGradient gradientTransform="matrix(0, 0.0126801, 0.0134735, 0, 16.7, 34.85)" gradientUnits="userSpaceOnUse" spreadMethod="pad" x1="-819.2" x2="819.2" y1="0" y2="0" id="f75:23">
			<stop offset="0" stop-color="rgb(95,152,193)"/>
			<stop offset="1" stop-color="rgb(30,67,87)"/>
		</linearGradient>
		<linearGradient gradientTransform="matrix(0, 0.00765991, 0.00813293, 0, 13.45, 32.55)" gradientUnits="userSpaceOnUse" spreadMethod="pad" x1="-819.2" x2="819.2" y1="0" y2="0" id="f75:24">
			<stop offset="0" stop-color="rgb(95,152,193)"/>
			<stop offset="1" stop-color="rgb(30,67,87)"/>
		</linearGradient>
		<linearGradient gradientTransform="matrix(0, 0.00765991, 0.00813293, 0, 17.1, 32.55)" gradientUnits="userSpaceOnUse" spreadMethod="pad" x1="-819.2" x2="819.2" y1="0" y2="0" id="f75:25">
			<stop offset="0" stop-color="rgb(95,152,193)"/>
			<stop offset="1" stop-color="rgb(30,67,87)"/>
		</linearGradient>
		<linearGradient gradientTransform="matrix(0, 0.0126801, 0.0134735, 0, 31.85, 34.85)" gradientUnits="userSpaceOnUse" spreadMethod="pad" x1="-819.2" x2="819.2" y1="0" y2="0" id="f75:26">
			<stop offset="0" stop-color="rgb(95,152,193)"/>
			<stop offset="1" stop-color="rgb(30,67,87)"/>
		</linearGradient>
		<linearGradient gradientTransform="matrix(0, 0.00765991, 0.00813293, 0, 32.3, 32.55)" gradientUnits="userSpaceOnUse" spreadMethod="pad" x1="-819.2" x2="819.2" y1="0" y2="0" id="f75:27">
			<stop offset="0" stop-color="rgb(95,152,193)"/>
			<stop offset="1" stop-color="rgb(30,67,87)"/>
		</linearGradient>
		<linearGradient gradientTransform="matrix(0, 0.00765991, 0.00813293, 0, 32.2, 32.55)" gradientUnits="userSpaceOnUse" spreadMethod="pad" x1="-819.2" x2="819.2" y1="0" y2="0" id="f75:28">
			<stop offset="0" stop-color="rgb(95,152,193)"/>
			<stop offset="1" stop-color="rgb(30,67,87)"/>
		</linearGradient>
	</defs>
	<g transform="matrix(0.430298,0,0,0.429138,-13,-15)">
		<path d="M18.85,25L16.35 24.4L17.75 20.4L18.15 19.25L14.15 19.1L6.55 18.05Q5 19.6 4 21.5L2.6 24.45L2.6 24.5Q4.55 31.7 7.9 38.25Q10.75 43.75 13.8 47.45Q17.05 51.3 20.15 53.9Q24.6 57.6 31.2 60.95Q35.9 58.5 42.35 52.8Q48.2 47.6 51 43.9Q56.45 36.65 58.95 29.3L59.95 25.5L60.2 24.5L60 23.9L59.1 22Q57.75 19.55 56.6 18.25Q52.95 19.4 47.8 19.5L44.8 19.45L45.15 20.45L46.55 24.55L43.95 25.2L42.45 20L41.5 16.6L40.85 13.65Q40.1 10.7 39.15 8.4Q36.15 1.05 31.7 1.05Q27.25 1.05 24.75 5.9Q23.9 7.45 23.35 9.5L22.75 11.65L20.6 18.95L20.45 19.5L18.85 25M43.65,16.5L44.2 17.9L44.35 17.9L47.8 18.1Q53.3 18.2 56.85 17.1L60.5 21.5L62.75 24.25Q59.1 37.85 50.65 49.15Q42.55 59.85 31.2 67.05Q24.4 62.2 19.8 58Q14.75 53.4 11.2 48.6Q7.5 43.6 4.8 37.6Q2.1 31.65 0 23.95Q0.8 22.4 2.65 20.45L6.4 16.4Q8.85 17.3 14.4 17.6L18.7 17.75L21.1 10.95L21.8 8.9Q22.6 6.8 23.65 5.15Q26.95 0 31.9 0Q36.8 0 40.55 7.95Q41.7 10.35 42.75 13.55L43.65 16.5M33.25,12.3L31.7 12.15L32.15 10.5L34.4 10.2L34.95 10.1L34.2 12.45L33.25 12.3M34.95,12.6L35.7 10.05L36.55 9.95Q36.9 9.95 37.15 10.75L37.25 11.2L37.3 11.1Q37.5 10.45 37.25 10.05Q36.95 9.6 36.35 9.7L34.15 10L31.35 10.25L30 10.1L28.35 9.85Q26.35 9.6 25.85 10.1Q25.5 10.4 25.65 10.9L25.9 10.5Q26.3 9.85 26.95 10L27.65 10.15L26.75 12.3L27.35 12.6L26.75 12.75L25.6 11.9Q25.2 11.3 25.1 10.55L25.1 9.9L25.35 9.55Q25.6 9.35 25.95 9.3L27.2 9.25L28.4 9.4L29.85 9.6L31.45 9.7L33.1 9.6L34.55 9.4L35.75 9.25L37 9.3Q37.65 9.4 37.85 9.9L37.85 10.55L37.4 11.9L36.25 12.75L35.9 12.85L35.8 12.8L34.95 12.6M30.15,12.15L30.7 10.6L31.35 10.6L30.9 12.15L30.15 12.15M26.8,23.1L27.7 19.85L30.3 20.65L32.2 20.65L34.75 19.7L35.7 23.1L35.3 23L32.4 22.05L30.15 22.05L27.35 22.95L26.8 23.1" fill="rgb(35,31,32)"/>
		<path d="M42.4,20.15L40.95 15.6L39.65 11.9Q37.7 6.45 36 4.3Q34.15 1.95 31.4 1.9L29.75 2.1Q28.4 2.6 27.1 3.8Q25.05 6 23.55 10.6L23.1 11.8L20.45 19.55L20.45 19.5L20.6 18.95L22.75 11.65L23.35 9.5Q23.9 7.45 24.75 5.9Q27.25 1.05 31.7 1.05Q36.15 1.05 39.15 8.4Q40.1 10.7 40.85 13.65L41.5 16.6L42.45 20L42.4 20.15M53.9,24.1L51.7 25.1L50.7 24.7Q50.2 24.5 49.8 24.9Q48.95 25.65 47.8 25.95Q46.05 25.75 44.8 26.55L43.8 26.9Q43.15 26.75 42.95 26.9L42.95 28.15L42.1 28.45Q41.7 29.25 41.7 29.95Q41.7 31 40.85 31.55L42.35 26.3L55.25 23.25L54.15 28L54 26.7L54.25 25.3Q54.2 24.85 53.85 25.6L53.9 24.1M49.6,36.85L49.45 35.5L42.95 36.65L42.7 35.15L44.5 32.05L43.3 36.25L50.1 34.9L49.6 36.85M38.75,25.9L37.7 26.55Q36.4 25.65 34.8 25.15Q32.5 24.45 30.1 24.5L25.75 24.9L24.1 25.5L25.75 18.8L27.5 19.3L30.9 19.7L35.25 19.2L36.9 18.7L38.75 25.9M35.3,23L35.7 23.1L34.75 19.7L32.2 20.65L30.3 20.65L27.7 19.85L26.8 23.1L27.35 22.95L27.05 24.4L30.25 22.8L32.2 22.8L35.7 24.4L35.3 23M22.6,31.7L21.7 29.85Q21.75 28.35 20.5 27.15Q19.65 26.4 18.65 26L17 26.25L16.65 25.5L13.6 24.95L12.95 25.2L12.55 25.3Q11.45 24.45 10.2 24.3Q9.2 24.45 8.55 25.3L8.1 23.3L21.2 26.2L22.6 31.7M18.6,31.9L19.85 34.9L19.75 35.25L16.45 34.65L14.2 34.8L14 33.75L19.45 34.8L18.6 31.9M14.6,40.9L21.35 41.5L19.8 36.75Q21.2 38.65 21.7 41L21.85 42.2L15.95 41.5L15.5 43.7L14.6 40.9M25.05,25.75L30.45 25.2Q33.2 25.2 35.85 26.3Q38.3 27.25 38.95 29.75L37.25 27.9L36.7 27.85L35.55 26.85L33.4 26.75Q31.75 25.6 29.9 26.3Q28.4 25.6 26.9 26.5Q26.15 26.85 25.75 27.8Q25.25 28.95 25.25 30.2L25.05 25.75M33.5,34.05Q32.6 34.9 31.6 34.85Q30.65 34.7 30.45 34.05Q30.25 33.5 30.45 31.55L30.45 31L30.55 29.8L31 33.75L31.45 34.1Q32.3 33.95 33 33.5Q34.15 32.5 34.05 31L34.2 31.7Q34.3 33.2 33.5 34.05" fill="rgb(255,255,255)"/>
		<path d="M21.95,25.7L21.7 25.7L18.85 25L20.45 19.5L20.45 19.55L23.1 11.8Q27.15 3.65 31.4 3.65Q35.7 3.65 40 13.4L40.95 15.6L42.4 20.15L42.45 20L43.95 25.2L43.1 25.45L43.1 25.5L41.85 25.8L41.85 25.75L41.65 25.8L40.9 26.65L37.85 18.2Q38.6 17.65 38.85 16.9Q39.05 16.1 38.6 15.2L38.55 15.05L37.95 14Q37.25 13.3 35.9 12.85L36.25 12.75L37.4 11.9L37.85 10.55L37.85 9.9Q37.65 9.4 37 9.3L35.75 9.25L34.55 9.4L33.1 9.6L31.45 9.7L29.85 9.6L28.4 9.4L27.2 9.25L25.95 9.3Q25.6 9.35 25.35 9.55L25.1 9.9L25.1 10.55Q25.2 11.3 25.6 11.9L26.75 12.75L25.5 13.3L24.4 14.05Q23.95 14.5 23.85 15Q23.35 15.9 23.55 16.75Q23.7 17.75 24.8 18.4L21.95 25.7" fill="rgb(129,131,133)"/>
		<path d="M58,21.5Q57.05 20.25 56.1 19.95L55.55 19.85L55.35 19.9L50.45 20.25L45.15 20.45L44.8 19.45L47.8 19.5Q52.95 19.4 56.6 18.25Q57.75 19.55 59.1 22L60 23.9L58 21.5M11.95,20.05L8.2 19.7L7.15 19.5L6.75 19.8L5.45 21.15L2.8 24.7L2.7 24.7L2.6 24.45L4 21.5Q5 19.6 6.55 18.05L14.15 19.1L18.15 19.25L17.75 20.4L11.95 20.05M31.25,13.1L31.45 13.1L32.9 13.3Q33.65 13.55 33.65 14.05L33.1 14.55L30.95 14.8L29.05 14.55Q28.7 14.35 28.7 14Q28.7 13.7 29.3 13.45Q30 13.1 31.1 13.1L31.25 13.1" fill="rgb(253,249,211)"/>
		<path d="M54.75,34.9L53.3 36.25Q51.65 37.55 50.6 37.8L50 37.85L51.35 33.85L50.5 34L51.6 32L54.55 29.5L56.9 21.9L46.55 24.55L45.15 20.45L50.45 20.25L55.35 19.9L55.55 19.85L56.1 19.95Q57.05 20.25 58 21.5L60 23.9L59.3 25.8L56.25 32.45L54.6 35.4L54.75 34.9M14.7,45Q11.4 41.3 7.7 34.8L6.85 33.2Q5.15 30.05 3.6 26.7L2.7 24.7L2.8 24.7L5.45 21.15L6.75 19.8L7.15 19.5L8.2 19.7L11.95 20.05L17.75 20.4L16.35 24.4L6.45 22.05L8.8 29.4L9.25 29.7L12.35 32.7L17.7 33.3L18 33.9L13.15 33L13.7 35.3L13.25 35.45L14 38.2L16.25 40.5L13.8 40.3L14.2 41.65L13.65 41.65L14.7 45M44.7,35.3L45.1 34.35L48.9 34.35L44.7 35.3" fill="url(#f75:4)"/>
		<path d="M2.7,24.7L3.6 26.7Q5.15 30.05 6.85 33.2L7.7 34.8Q11.4 41.3 14.7 45L14.9 45.6L16.15 46.45L16.85 47.1Q20.05 49.8 24.2 52.5L29.5 55.75L30.6 56.35L31.2 56.5L33 55.5L36.9 53.3Q39.9 51.35 43.35 48.7Q49.65 43.75 54.6 35.4L56.25 32.45L59.3 25.8L60 23.9L60.2 24.5L59.95 25.5L58.95 29.3Q56.45 36.65 51 43.9Q48.2 47.6 42.35 52.8Q35.9 58.5 31.2 60.95Q24.6 57.6 20.15 53.9Q17.05 51.3 13.8 47.45Q10.75 43.75 7.9 38.25Q4.55 31.7 2.6 24.5L2.6 24.45L2.7 24.7M31.6,58.6L31.65 59.8Q34.05 58.3 39.4 54.05L44.2 49.9L39.75 52.6L31.8 57.3Q31.6 57.4 31.6 58.6M30.6,58.4L30.25 57.2L27.6 55.6L23.3 52.95L19.15 50.05Q16.7 48.3 16.6 48.65Q16.4 49.15 17.95 50.55L21.6 53.5L26.85 57.3L30.65 59.95L30.6 58.4" fill="url(#f75:5)"/>
		<path d="M51.35,33.85L50 37.85L49.55 39.2L43.55 39.05L43.3 40.25L43.2 40.7L43.05 41.65L42.35 45.05L36.4 45.15L41.65 25.8L41.85 25.75L41.85 25.8L43.1 25.5L43.1 25.45L43.95 25.2L46.55 24.55L56.9 21.9L54.55 29.5L52.05 30.05L45.4 31.5L45.2 32.15L45.1 32.55L45 32.8L44.8 33.5L44.2 35.45L51.35 33.85M40,34.4L37.5 43L37 44.75L41.3 44.5L41.8 44.5L42.85 38.4L49.15 38.6L49.6 36.9L49.6 36.85L50.1 34.9L43.3 36.25L44.5 32.05L44.9 30.7L53.9 29.1L54.15 28L55.25 23.25L42.35 26.3L40.85 31.55L40 34.4" fill="url(#f75:6)"/>
		<path d="M53.1,28.5Q51.1 29.4 48.8 29.55L45.05 30.2Q46 29.6 47 29.4Q48.55 28.85 50.15 28.65Q53.15 28.45 53.85 25.6Q54.2 24.85 54.25 25.3L54 26.7L53.1 28.5M48.7,38.2L44.35 37.85L46.65 37.9L47.05 37.3L48.4 37.35L48.7 36.5L49.25 35.95L49.15 36.7L48.7 38.2M39.8,36.45L39.05 43.1L40.05 43.05L40.65 43.4L41.8 40.1Q42.3 42.15 41.25 44L40.7 44.05L37.65 43.95L37.9 43.1L39.8 36.45M17.65,36.25L14.8 36.35L14.7 34.7L15.35 35.9L18 35.7Q18.8 35.4 18.85 36.1Q18.65 36.5 18.25 36.35L17.65 36.25M23.25,40.1L22.9 35.8L24.45 41.65L24.8 43.7L16.05 43.9Q17.35 43.05 18.9 43.3L21.25 43.1L23.05 42.6L23.65 42L23.25 40.1M18.25,30L10.05 28.65L9.3 25.3L11.5 28.3L18.25 30M36.85,34.45L36.4 34.4Q36.05 35.2 35.2 35.6Q34 36.15 32.65 35.9Q32.3 36.1 31.75 35.9Q31.45 35.2 32.65 35.2L34 35.35L34.65 35L35.35 34.6L36.1 33.9L37.6 32.85L38.1 31.75L38.55 30.6L38.3 31.95Q38.05 33.55 36.85 34.45M31.05,28L30.2 29.85L29.75 28.85L30.5 27.3L33 27.45L34.35 29.15L34.35 30.3L33.2 28.7Q32.8 28.2 32.05 28.05L31.05 28M28.9,42.55L30.65 43L31 42.85L31.05 42.45L30.75 36.85L31.1 37.15L32.3 43L32.25 43.7L31.9 44L28.25 44.3L27.75 41.55L26.85 35.8L28.4 41.5L28.9 42.55" fill="rgb(130,183,222)"/>
		<path d="M45.1,32.55L49.6 32.3L50.5 31.35L49.75 31.3Q49.15 31.5 48.85 31.8L48.35 31.55L45.2 32.15L45.4 31.5L52.05 30.05L52.55 29.95L49.55 32.55L45 32.8L45.1 32.55M47.65,39.3L45.25 40.95L43.25 40.7L45.45 40.65L46.05 39.95L43.3 40.25L43.55 39.05L47.65 39.3M33.65,38.25L32.9 38.1L33.75 37.7L32.3 37.45L33.75 37.15L33.85 37.1L35.55 36.6Q37 35.9 38 34.65L37.95 34.75Q37.45 36.2 36.2 37.3Q34.65 38.55 32.6 38.8Q33.15 38.55 33.65 38.25M33.1,45.1L33.1 45.15L31.45 49.7L29.3 49.8L28.3 45.4L32.9 45.15L33.1 45.1M10.55,29.7L13.25 30.2L15.95 30.75L14.9 30.85L14.1 30.8L13.4 30.85Q13.05 31.1 13.55 31.2L14.4 31.35Q15.2 31.6 15.65 31.35L16.2 31.3L16.95 31.45L17.85 31.65L17.9 31.75L13.6 31.5L10.55 29.7M15.25,37.4L19.35 37.35L19.65 38.3L18.95 38.3L18.3 37.9L17.6 38.4L16.5 38.1Q16.15 38.4 16.6 38.65Q17.05 38.9 17.6 38.95L16.8 39.1L15.25 37.4M32.2,29.95L31.3 31.05L31.2 31.4L31.1 30.9L32.4 29.5L31.3 29.2L32.3 29L32.7 29.4L33.05 29.95L33.2 30.3L33.4 30.8L32.2 29.95M22.8,48.1L20.2 47.1L22.8 49.1L26.3 48.45L23.8 47.75L22.8 48.1M27.15,49.1L22.8 49.45L16.6 45.3L25.9 45.3L27.15 49.1M29.35,48.2L29.7 49.55L30.35 49.25L31.1 49.4L31.6 48.7L31.6 48.25L30.9 48.75L29.9 48.75L29.35 48.2M36.15,48.4L34.7 49L38.35 49.3L39 47.6L37.6 48.4L36.15 48.4M36.8,45.65L41.35 45.3L38.4 49.7L33.85 49.3L36.8 45.65" fill="rgb(95,152,193)"/>
		<path d="M50,33.35L44.8 33.5L45 32.8L49.55 32.55L52.55 29.95L52.05 30.05L54.55 29.5L51.6 32L50 33.35" fill="url(#f75:9)"/>
		<path d="M47.65,36.4L45.85 37.2L43.8 37.1Q41.15 36.8 40 34.4L40.85 31.55Q41.7 31 41.7 29.95Q41.7 29.25 42.1 28.45L42.95 28.15L42.95 26.9Q43.15 26.75 43.8 26.9L44.8 26.55Q46.05 25.75 47.8 25.95Q48.95 25.65 49.8 24.9Q50.2 24.5 50.7 24.7L51.7 25.1L53.9 24.1L53.85 25.6Q53.15 28.45 50.15 28.65Q48.55 28.85 47 29.4Q46 29.6 45.05 30.2L48.8 29.55Q51.1 29.4 53.1 28.5L54 26.7L54.15 28L53.9 29.1L44.9 30.7L44.5 32.05L42.7 35.15L42.95 36.65L49.45 35.5L49.6 36.85L49.6 36.9L49.15 36.7L49.25 35.95L48.7 36.5L47.65 36.4M37.9,43.1L37.65 43.95L40.7 44.05L41.3 44.5L37 44.75L37.5 43L37.9 43.1M13.6,24.95L16.65 25.5L17 26.25L18.65 26Q19.65 26.4 20.5 27.15Q21.75 28.35 21.7 29.85L17.4 27.4L16.05 26.3Q15.1 25.2 13.55 25.55L12.95 25.2L13.6 24.95M23.65,42L23.05 42.6L21.25 43.1L18.9 43.3Q17.35 43.05 16.05 43.9L24.8 43.7L24.45 41.65L25.15 41.9L25.8 44.4L15.75 44.5L15.5 43.7L15.95 41.5L21.85 42.2L21.7 41Q21.2 38.65 19.8 36.75L16.15 36.6L17.65 36.25L18.25 36.35Q18.65 36.5 18.85 36.1Q20.75 36 21.4 37.7Q21.95 39.2 23.25 40.1L23.65 42M38.65,32.4L38.3 31.95L38.55 30.6L38.1 31.75L34.2 31.7L34.05 31Q33.8 29.75 33 28.9Q32.1 28 30.95 28.5L30.55 29.8L30.45 31L25.25 30.4L25.25 30.2Q25.25 28.95 25.75 27.8Q26.15 26.85 26.9 26.5Q28.4 25.6 29.9 26.3Q31.75 25.6 33.4 26.75L35.55 26.85L36.7 27.85L37.25 27.9L38.95 29.75L38.65 32.4M32.05,28.05Q32.8 28.2 33.2 28.7L34.35 30.3L34.35 29.15L33 27.45L30.5 27.3L29.75 28.85L30.2 29.85L31.05 28L32.05 28.05M28.25,44.3L31.9 44L32.25 43.7L32.3 43L32.8 43.1L33.1 44.4L27.95 44.75L27.35 41.6L27.75 41.55L28.25 44.3M28.4,41.5L31.05 42.45L31 42.85L30.65 43L28.9 42.55L28.4 41.5" fill="rgb(223,239,250)"/>
		<path d="M24.15,52.05L28.1 52.15L28.6 51.35L29.1 52.9L32.3 52.65L32.8 51.45L33.15 52.05L38.65 51.7L43.1 45.6L43.6 43.1L46.4 42.75L48.15 41.05L48.65 39.8L49.55 39.2L50 37.85L50.6 37.8Q51.65 37.55 53.3 36.25L54.75 34.9L54.6 35.4Q49.65 43.75 43.35 48.7Q39.9 51.35 36.9 53.3L33 55.5L31.2 56.5L30.6 56.35L29.5 55.75L24.2 52.5Q20.05 49.8 16.85 47.1L16.15 46.45L24.15 52.05M19.35,40.75L17.9 40.6L19.35 40.2L19.35 40.75" fill="url(#f75:11)"/>
		<path d="M38.85,50.5L32.75 49.8L32.65 48.35L31.9 50.45L28.9 50.45L28.45 48.9L27.9 49.85L22.95 50.25L15.05 44.9L27 45.05L21.7 25.7L21.95 25.7L24.1 25.5L27.4 44.9L32.9 45.15L28.3 45.4L29.3 49.8L31.45 49.7L33.1 45.15L33.85 45.15L32.15 37.5L32.3 37.45L32.6 38.8Q34.65 38.55 36.2 37.3Q37.45 36.2 37.95 34.75L38.4 34.15L38.95 33.1Q40 31.2 39.45 29L39.45 28.9L39.4 28.9L39.25 28.45L39.35 28.3L40.9 26.65L41.65 25.8L36.4 45.15L42.35 45.05L38.85 50.5M33.85,37.1L34.15 37L35.55 36.6L33.85 37.1M25.9,45.3L16.6 45.3L22.8 49.45L27.15 49.1L25.9 45.3M33.85,49.3L38.4 49.7L41.35 45.3L36.8 45.65L33.85 49.3" fill="rgb(30,67,87)"/>
		<path d="M45.2,32.15L48.35 31.55L48.85 31.8Q49.15 31.5 49.75 31.3L50.5 31.35L49.6 32.3L45.1 32.55L45.2 32.15M43.2,40.7L43.3 40.25L46.05 39.95L45.45 40.65L43.25 40.7L43.2 40.7M32.6,38.8L32.3 37.45L33.75 37.7L32.9 38.1L33.65 38.25Q33.15 38.55 32.6 38.8M16.95,31.45L16.2 31.3L15.65 31.35Q15.2 31.6 14.4 31.35L13.55 31.2Q13.05 31.1 13.4 30.85L14.1 30.8L14.9 30.85L15.95 30.75L16.05 30.75L16.8 30.85L17.7 31L17.85 31.65L16.95 31.45M17.6,38.95Q17.05 38.9 16.6 38.65Q16.15 38.4 16.5 38.1L17.6 38.4L18.3 37.9L18.95 38.3L19.65 38.3L19.75 38.6L17.6 38.95M32.4,29.5L31.1 30.9L31.3 29.2L32.4 29.5M23.8,47.75L26.3 48.45L22.8 49.1L20.2 47.1L22.8 48.1L23.8 47.75M29.9,48.75L30.9 48.75L31.6 48.25L31.6 48.7L31.1 49.4L30.35 49.25L29.7 49.55L29.35 48.2L29.9 48.75M37.6,48.4L39 47.6L38.35 49.3L34.7 49L36.15 48.4L37.6 48.4" fill="rgb(132,192,233)"/>
		<path d="M13.65,41.65L14.2 41.65L15.05 44.9L22.95 50.25L27.9 49.85L28.45 48.9L28.9 50.45L31.9 50.45L32.65 48.35L32.75 49.8L38.85 50.5L42.35 45.05L43.05 41.65L45.95 41.7L48.65 39.8L48.15 41.05L46.4 42.75L43.6 43.1L43.1 45.6L38.65 51.7L33.15 52.05L32.8 51.45L32.3 52.65L29.1 52.9L28.6 51.35L28.1 52.15L24.15 52.05L16.15 46.45L14.9 45.6L14.7 45L13.65 41.65M44.8,33.5L50 33.35L51.6 32L50.5 34L48.9 34.35L45.1 34.35L44.7 35.3L44.2 35.45L44.8 33.5M13,32.1L18.1 32.4L18.6 34.05L18 33.9L17.7 33.3L12.35 32.7L9.25 29.7L13 32.1M19.35,40.2L17.9 40.6L16.25 40.5L14 38.2L13.25 35.45L13.7 35.3L14.25 37.4L16.45 39.8L20 39.4L20.5 40.85L19.35 40.75L19.35 40.2M32.7,29.4L33.15 30.05L33.05 29.95L32.7 29.4M32.2,30.5L33.45 31.4L33.3 32.05Q32.9 33.1 31.65 33.3L31.4 32.2L32.2 30.5" fill="rgb(177,122,44)"/>
		<path d="M37.9,43.1L37.5 43L40 34.4Q41.15 36.8 43.8 37.1L45.85 37.2L47.65 36.4L48.7 36.5L48.4 37.35L47.05 37.3L46.65 37.9L44.35 37.85L48.7 38.2L49.15 36.7L49.6 36.9L49.15 38.6L42.85 38.4L41.8 44.5L41.3 44.5L40.7 44.05L41.25 44Q42.3 42.15 41.8 40.1L40.65 43.4L40.05 43.05L39.05 43.1L39.8 36.45L37.9 43.1M22.6,31.7L25.15 41.9L24.45 41.65L22.9 35.8L23.25 40.1Q21.95 39.2 21.4 37.7Q20.75 36 18.85 36.1Q18.8 35.4 18 35.7L15.35 35.9L14.7 34.7L14.8 36.35L17.65 36.25L16.15 36.6L14.6 36.6L14.2 34.8L16.45 34.65L19.75 35.25L19.85 34.9L18.6 31.9L18.2 30.5L9.5 29.05L8.55 25.3Q9.2 24.45 10.2 24.3Q11.45 24.45 12.55 25.3L12.95 25.2L13.55 25.55Q15.1 25.2 16.05 26.3L17.4 27.4L21.7 29.85L22.6 31.7M11.5,28.3L9.3 25.3L10.05 28.65L18.25 30L11.5 28.3M25.25,30.4L30.45 31L30.45 31.55Q30.25 33.5 30.45 34.05Q30.65 34.7 31.6 34.85Q32.6 34.9 33.5 34.05Q34.3 33.2 34.2 31.7L38.1 31.75L37.6 32.85L36.1 33.9L35.35 34.6L34.65 35L34 35.35L32.65 35.2Q31.45 35.2 31.75 35.9Q32.3 36.1 32.65 35.9Q34 36.15 35.2 35.6Q36.05 35.2 36.4 34.4L36.85 34.45Q38.05 33.55 38.3 31.95L38.65 32.4Q38.05 34 36.45 35.15Q34.2 36.8 31.3 36.5L32.8 43.1L32.3 43L31.1 37.15L30.75 36.85L31.05 42.45L28.4 41.5L26.85 35.8L27.75 41.55L27.35 41.6L25.25 30.4" fill="rgb(189,221,245)"/>
		<path d="M43.25,40.7L45.25 40.95L47.65 39.3L43.55 39.05L49.55 39.2L48.65 39.8L45.95 41.7L43.05 41.65L43.2 40.7L43.25 40.7" fill="url(#f75:16)"/>
		<path d="M30.9,12.15L31.3 12.15L31.7 12.15L33.25 12.3L34.2 12.45L34.95 12.6L35.8 12.8L35.9 12.85Q37.25 13.3 37.95 14L38.55 15.05L38.55 15.1Q38.8 16.25 37.45 17.1L37.1 17.3L36.6 17.55L32.9 18.4L28 18.25L26.05 17.7L25.25 17.3L24.55 16.8Q23.9 16.1 23.8 15.5Q23.75 15.25 23.85 15Q23.95 14.5 24.4 14.05L25.5 13.3L26.75 12.75L27.35 12.6L28.6 12.3L30.15 12.15L30.9 12.15M31.1,13.1L27.1 13.7L26.3 13.95L25.75 14.25L25.4 14.4Q24.95 14.65 24.9 15.1Q24.8 15.5 25.1 16Q25.75 17.05 27.3 17.5L27.45 17.5L26.15 16.15L27.05 16.4L28.05 16.8L29.25 17.25L30.9 17.4L32.7 17.25L34.1 16.8L35.3 16.4L36.35 16.15L34.65 17.6L35.2 17.45L36 17.1L37.1 16.4Q37.75 15.85 37.5 15.1Q37.25 14.45 36.45 14L36 13.8Q34.95 13.3 33.4 13.15L32.15 13.1L31.45 13.1L31.25 13.1L31.1 13.1" fill="url(#f75:17)"/>
		<path d="M31.3,12.15L30.9 12.15L31.35 10.6L30.7 10.6L30.15 12.15L28.6 12.3L27.35 12.6L26.75 12.3L27.65 10.15L26.95 10Q26.3 9.85 25.9 10.5L25.65 10.9Q25.5 10.4 25.85 10.1Q26.35 9.6 28.35 9.85L30 10.1L31.35 10.25L34.15 10L36.35 9.7Q36.95 9.6 37.25 10.05Q37.5 10.45 37.3 11.1L37.25 11.2L37.15 10.75Q36.9 9.95 36.55 9.95L35.7 10.05L34.95 12.6L34.2 12.45L34.95 10.1L34.4 10.2L32.15 10.5L31.7 12.15L31.3 12.15" fill="rgb(76,77,78)"/>
		<path d="M23.1,11.8L23.55 10.6Q25.05 6 27.1 3.8Q28.4 2.6 29.75 2.1L31.4 1.9Q34.15 1.95 36 4.3Q37.7 6.45 39.65 11.9L40.95 15.6L40 13.4Q35.7 3.65 31.4 3.65Q27.15 3.65 23.1 11.8M39.35,28.3L39.25 28.45L37.7 26.55L38.75 25.9L39.35 28.3M39.4,28.9L39.45 28.9L39.45 29L39.4 28.9M26.05,17.7L28 18.25L32.9 18.4L36.6 17.55L36.9 18.7L35.25 19.2L30.9 19.7L27.5 19.3L25.75 18.8L26.05 17.7M35.7,24.4L32.2 22.8L30.25 22.8L27.05 24.4L27.35 22.95L30.15 22.05L32.4 22.05L35.3 23L35.7 24.4" fill="rgb(206,205,205)"/>
		<path d="M32.15,13.1L33.4 13.15Q34.95 13.3 36 13.8L36.45 14Q37.25 14.45 37.5 15.1Q37.75 15.85 37.1 16.4L36 17.1L35.2 17.45L34.65 17.6L36.35 16.15L35.3 16.4L34.1 16.8L32.7 17.25L30.9 17.4L29.25 17.25L28.05 16.8L27.05 16.4L26.15 16.15L27.45 17.5L27.3 17.5Q25.75 17.05 25.1 16Q24.8 15.5 24.9 15.1Q24.95 14.65 25.4 14.4L25.75 14.25L26.3 13.95L27.1 13.7L31.1 13.1Q30 13.1 29.3 13.45Q28.7 13.7 28.7 14Q28.7 14.35 29.05 14.55L30.95 14.8L33.1 14.55L33.65 14.05Q33.65 13.55 32.9 13.3L31.45 13.1L32.15 13.1" fill="rgb(241,189,70)"/>
		<path d="M24.8,18.4Q23.7 17.75 23.55 16.75Q23.35 15.9 23.85 15Q23.75 15.25 23.8 15.5Q23.9 16.1 24.55 16.8L25.25 17.3L24.8 18.4M37.45,17.1Q38.8 16.25 38.55 15.1L38.55 15.05L38.6 15.2Q39.05 16.1 38.85 16.9Q38.6 17.65 37.85 18.2L37.45 17.1" fill="rgb(71,71,70)"/>
		<path d="M38.75,25.9L36.9 18.7L36.6 17.55L37.1 17.3L37.45 17.1L37.85 18.2L40.9 26.65L39.35 28.3L38.75 25.9M24.8,18.4L25.25 17.3L26.05 17.7L25.75 18.8L24.1 25.5L21.95 25.7L24.8 18.4" fill="rgb(75,74,75)"/>
		<path d="M21.7,25.7L27 45.05L15.05 44.9L14.2 41.65L13.8 40.3L16.25 40.5L17.9 40.6L19.35 40.75L20.5 40.85L20 39.4L19.75 38.6L19.65 38.3L19.35 37.35L15.25 37.4L14.25 37.4L13.7 35.3L13.15 33L18 33.9L18.6 34.05L18.1 32.4L17.9 31.75L17.85 31.65L17.7 31L16.8 30.85L13.25 30.2L10.55 29.7L8.8 29.4L6.45 22.05L16.35 24.4L18.85 25L21.7 25.7M21.2,26.2L8.1 23.3L8.55 25.3L9.5 29.05L18.2 30.5L18.6 31.9L19.45 34.8L14 33.75L14.2 34.8L14.6 36.6L16.15 36.6L19.8 36.75L21.35 41.5L14.6 40.9L15.5 43.7L15.75 44.5L25.8 44.4L25.15 41.9L22.6 31.7L21.2 26.2" fill="url(#f75:23)"/>
		<path d="M8.8,29.4L10.55 29.7L13.6 31.5L17.9 31.75L18.1 32.4L13 32.1L9.25 29.7L8.8 29.4M13.25,30.2L16.8 30.85L16.05 30.75L15.95 30.75L13.25 30.2" fill="url(#f75:24)"/>
		<path d="M14.25,37.4L15.25 37.4L16.8 39.1L17.6 38.95L19.75 38.6L20 39.4L16.45 39.8L14.25 37.4" fill="url(#f75:25)"/>
		<path d="M32.9,45.15L27.4 44.9L24.1 25.5L25.75 24.9L30.1 24.5Q32.5 24.45 34.8 25.15Q36.4 25.65 37.7 26.55L39.25 28.45L39.4 28.9L39.45 29Q40 31.2 38.95 33.1L38.4 34.15L37.95 34.75L38 34.65Q37 35.9 35.55 36.6L34.15 37L33.85 37.1L33.75 37.15L32.3 37.45L32.15 37.5L33.85 45.15L33.1 45.15L33.1 45.1L32.9 45.15M27.35,41.6L27.95 44.75L33.1 44.4L32.8 43.1L31.3 36.5Q34.2 36.8 36.45 35.15Q38.05 34 38.65 32.4L38.95 29.75Q38.3 27.25 35.85 26.3Q33.2 25.2 30.45 25.2L25.05 25.75L25.25 30.2L25.25 30.4L27.35 41.6" fill="url(#f75:26)"/>
		<path d="M30.55,29.8L30.95 28.5Q32.1 28 33 28.9Q33.8 29.75 34.05 31Q34.15 32.5 33 33.5Q32.3 33.95 31.45 34.1L31 33.75L30.55 29.8M31.2,31.4L31.3 31.05L31.4 32.2L31.65 33.3Q32.9 33.1 33.3 32.05L33.45 31.4L33.4 30.8L33.2 30.3L33.15 30.05L32.7 29.4L32.3 29L31.3 29.2L31.1 30.9L31.2 31.4" fill="url(#f75:27)"/>
		<path d="M33.05,29.95L33.15 30.05L33.2 30.3L33.05 29.95M31.4,32.2L31.3 31.05L32.2 29.95L33.4 30.8L33.45 31.4L32.2 30.5L31.4 32.2" fill="url(#f75:28)"/>
		<path d="M31.8,57.3L39.75 52.6L44.2 49.9L39.4 54.05Q34.05 58.3 31.65 59.8L31.6 58.6Q31.6 57.4 31.8 57.3M30.65,59.95L26.85 57.3L21.6 53.5L17.95 50.55Q16.4 49.15 16.6 48.65Q16.7 48.3 19.15 50.05L23.3 52.95L27.6 55.6L30.25 57.2L30.6 58.4L30.65 59.95" fill="rgb(206,149,50)"/>
	</g>
</svg>
