<svg xmlns="http://www.w3.org/2000/svg" width="30" height="29" viewBox="-14 -16 32 30"><g><defs/></g><g id="0"><defs/><g><g type="shape" id="0:1:83"><defs/><g transform="matrix(1,0,0,1,0,0)"><path d="M0.5,-2.45Q-0.5 -3.1 -1.55 -3.15L-1.8 -3.15Q-2.7 -3 -3.25 -2.45L-3.2 -2.15L-2.95 -1.9L0.35 -1.9L0.5 -2.1L0.55 -2.35L0.5 -2.45M4.55,-0.75L2.7 -1L1.05 -0.75Q0.45 -0.5 0.65 -0.1L1.65 0.5L3.6 0.8L5.2 0.5Q5.85 0.25 5.7 -0.1Q5.5 -0.5 4.55 -0.75M-7.45,3.5L-4.45 -5.25Q4.25 -4.7 11.3 0.6L-7.45 3.5M-3.7,0.6L-5.35 0.85Q-5.95 1.15 -5.75 1.5Q-5.6 1.85 -4.75 2.1L-2.75 2.4L-1.2 2.1Q-0.55 1.85 -0.7 1.5L-1.8 0.85L-3.7 0.6" fill="rgb(255,255,153)" fill-opacity="1"/><path d="M5.7,-0.1Q5.85 0.25 5.2 0.5L3.6 0.8L1.65 0.5L0.65 -0.1Q0.45 -0.5 1.05 -0.75L2.7 -1L4.55 -0.75Q5.5 -0.5 5.7 -0.1M-1.8,0.85L-0.7 1.5Q-0.55 1.85 -1.2 2.1L-2.75 2.4L-4.75 2.1Q-5.6 1.85 -5.75 1.5Q-5.95 1.15 -5.35 0.85L-3.7 0.6L-1.8 0.85" fill="rgb(204,51,0)" fill-opacity="1"/><path d="M0.55,-2.35L0.5 -2.1L0.35 -1.9L-2.95 -1.9L-3.2 -2.15L-3.25 -2.45Q-2.7 -3 -1.8 -3.15L-1.55 -3.15Q-0.5 -3.1 0.5 -2.45L0.55 -2.35" fill="rgb(0,153,0)" fill-opacity="1"/><path d="M-4.45,-5.25Q-6.55 -9.1 -3.85 -8.85Q3.3 -8.5 12.6 -2.35Q10.45 -1.95 11.3 0.6Q4.25 -4.7 -4.45 -5.25" fill="rgb(255,153,0)" fill-opacity="1"/><path d="M11.3,0.6L-9.25 8.85L-7.45 3.5L11.3 0.6" fill="rgb(255,204,102)" fill-opacity="1"/><path d="M11.3,0.6Q10.45 -1.95 12.6 -2.35Q14.9 0.1 11.3 0.6" fill="rgb(204,153,0)" fill-opacity="1"/><path d="M11.3,0.6Q14.9 0.1 12.6 -2.35Q3.3 -8.5 -3.85 -8.85Q-6.55 -9.1 -4.45 -5.25M11.3,0.6L-9.25 8.85L-7.45 3.5L-4.45 -5.25" stroke="rgb(180,125,1)" stroke-linecap="round" stroke-linejoin="round" stroke-miterlimit="3" stroke-width="1.5" fill="none"/></g></g></g></g></svg>
