<svg xmlns="http://www.w3.org/2000/svg" width="30" height="29" viewBox="-14 -16 32 30"><g><defs/></g><g id="0"><defs/><g><g type="shape" id="0:3:89"><defs/><g transform="matrix(1,0,0,1,-0.6,-2.2)"><path d="M2.2,-2.15L1.05 -1.7L-0.6 -1.3L-0.9 -1.25L-2.45 -1.1L-4.05 -1.2L-4.95 -1.3L-7.2 -1.75L-7.4 -1.8Q-9.2 -2.3 -11.15 -3.15L-11.15 -4.2Q-10.9 -4.5 -10.5 -4.5L-10.25 -4.4L-9.65 -3.3Q-9.1 -3.8 -9.7 -4.7Q-8.75 -6.25 -7.4 -5.8L-6.9 -4.5L-6.85 -3.55L-7.4 -3L-5.25 -2.65L-4.95 -3.35Q-4.9 -4.3 -4.4 -4.3Q-3.4 -4.3 -3.95 -3L-3.75 -2.95Q-3.35 -3 -3.6 -3.8Q-3.6 -4.4 -3.1 -4.4Q-2.45 -4.4 -2.65 -3.45L-2.65 -3.35L-2.4 -3.15L-2.3 -2.55Q3.75 -2.85 9.3 -5.9L8.3 -5L2.2 -2.15M10,-7.8L10.95 -7L11.35 -6.65L10.9 -6.65L9.75 -6.4L10 -7.8M-7.25,-6.45L-7.85 -6.65L-8.15 -7.6Q-7.85 -8.75 -6.8 -8.75L-6 -8L-5.9 -8.4L-6.2 -9.2Q-5.75 -12.1 -3.4 -11.8L-3 -9.35L-2.6 -10.55Q-1.7 -10.8 -1.1 -9.9L-1.15 -9.75Q-1.35 -8.35 -0.9 -8L-1.05 -7.45Q-2.05 -8.05 -1.9 -9.45Q-2.65 -8.8 -3.45 -9.3L-3.9 -10.85Q-4.95 -9.8 -5.35 -8.2L-7.1 -6.9L-7.25 -6.45M1.4,-7.45L0.95 -7.6L0.9 -9.65L0.35 -9.65L0.15 -9.3Q-0.6 -8.9 -0.7 -9.75L0.55 -10.7Q1.95 -10.25 2.05 -8.05L1.4 -7.45M2.3,-8.1L2.35 -8.95L3.4 -8.25L3.35 -6.55L2.3 -8.1M3.95,-7Q4.1 -8.1 3.75 -9.15L3.45 -9.9L4.7 -11.3L5.2 -11.25L5.7 -9.85L5.95 -9.95L5.75 -11.4L7 -12.55L7.8 -12.35Q8.35 -10.35 7.65 -8.4L7.4 -8.1L6.6 -8.35L6.55 -8.7Q6.6 -9.2 6.9 -9.45Q8.1 -10.7 7.15 -11.5L6 -10.4Q6.3 -9.6 5.85 -9.15L5.35 -9.2L4.75 -10.15L4.15 -9.1Q4.9 -8.05 4.6 -7.05L3.95 -7M8,-7.45L7.9 -8.5Q8.3 -9.15 8.6 -9L8.9 -8L8.35 -7.05L8 -7.45M2.3,-11.3L3.7 -12.2L3.9 -11.85L2.9 -10.15L2.95 -9.75L2.2 -9.7L1.4 -11.3L1.75 -11.9L2.3 -11.3M2.8,-12.9L2.35 -12.85Q1.45 -12.5 1.15 -11.5L0.5 -11.3L-0.05 -12.75L0.2 -13.1L1.05 -12.8L1.55 -13.15Q2.3 -13.55 2.8 -12.9M-0.25,-4.55L-0.35 -5.3L0.7 -5.4L1.35 -6.45L1.85 -5.85Q1.3 -6.05 1.5 -4.9L1.55 -4.75L0.55 -4.3L-0.25 -4.55M6.25,-6.8L6 -5.6L4.8 -5.3L4.8 -4.8Q4.45 -4.95 4.45 -5.45Q4.45 -6 5.15 -6L5.55 -6L5.45 -6.5Q5.45 -7.15 6 -7.15Q6.7 -7.15 6.55 -6.2L6.5 -5.75L6.25 -6.8M-0.85,-10.55Q-1.35 -11.4 -2.3 -11.3L-2.65 -11.85L-2.4 -12.05L-2.15 -12.1Q-0.95 -11.85 -0.4 -11.05L-0.85 -10.55M-5.05,-6.45L-3.5 -7.8L-3.4 -7.45Q-3.4 -7.05 -4.15 -6.85L-3.5 -5.8Q-3.5 -5.35 -3.9 -5.25L-5.05 -6.45M-1.6,-6.55Q-0.7 -6.35 -0.6 -6.95Q-0.15 -6.95 -0.15 -6.4Q-0.15 -5.35 -1.4 -5.35Q-2.25 -5.35 -2.45 -5.85L-2.55 -6.3Q-2.55 -7.15 -2.05 -7.15Q-1.6 -7.15 -1.6 -6.55M-1.3,-4.8Q-0.15 -4.45 -0.2 -3.25L-1.65 -3.6L-1.7 -4.15L-1.3 -4.8" fill="rgb(225,225,72)" fill-opacity="1"/><path d="M10,-7.8L9.95 -7.8L9.45 -8.05Q9.4 -7.25 8.6 -6.8L8.35 -7.05L8.9 -8L8.6 -9Q8.3 -9.15 7.9 -8.5L7.65 -8.4Q8.35 -10.35 7.8 -12.35L7 -12.55L5.75 -11.4L5.95 -9.95L5.7 -9.85L5.2 -11.25L4.7 -11.3L3.45 -9.9L3.75 -9.15Q4.1 -8.1 3.95 -7L3.8 -6.65L3.35 -6.55L3.4 -8.25L2.35 -8.95L2.3 -8.1L2.05 -8.05Q1.95 -10.25 0.55 -10.7L-0.7 -9.75L-0.9 -8Q-1.35 -8.35 -1.15 -9.75L-1.1 -9.9Q-1.7 -10.8 -2.6 -10.55L-3 -9.35L-3.4 -11.8Q-5.75 -12.1 -6.2 -9.2L-5.9 -8.4L-6 -8L-6.8 -8.75Q-7.85 -8.75 -8.15 -7.6L-7.85 -6.65L-7.25 -6.45Q-6.8 -5.8 -6.8 -5.15L-6.9 -4.5L-7.4 -5.8Q-8.75 -6.25 -9.7 -4.7Q-9.1 -3.8 -9.65 -3.3L-10.25 -4.4L-10.5 -4.5Q-10.9 -4.5 -11.15 -4.2L-11.15 -4.6Q-10.75 -5.2 -9.95 -5L-8.3 -6.55L-8.35 -7.15Q-8.5 -9.5 -6.55 -9.35L-6.55 -10.15Q-5.35 -13.1 -2.85 -12.15Q-1.85 -14 -0.25 -13.4Q1.35 -15.25 3.25 -13.65L3.35 -13.05L4.1 -12.7L4.3 -12L5.35 -11.9L5.85 -12.95Q8.9 -14.1 8.75 -10.15L9.35 -8.7Q10.1 -8.7 10.6 -8.05L10.95 -7L10 -7.8M1.75,-11.9L1.4 -11.3L2.2 -9.7L2.95 -9.75L2.9 -10.15L3.9 -11.85L3.7 -12.2L1.75 -11.9M-0.05,-12.75L0.5 -11.3L1.15 -11.5Q1.45 -12.5 2.35 -12.85L2.8 -12.9Q2.65 -13.7 2.4 -13.7Q0.85 -13.7 0.2 -13.1L-0.05 -12.75M0.55,-4.3L1.55 -4.75L1.5 -4.9Q1.3 -6.05 1.85 -5.85L2.1 -5.1L1.8 -4.55Q0.55 -2.85 -0.25 -4.55L0.55 -4.3M6.5,-5.75Q6.4 -5.05 5.85 -4.7L4.8 -4.7L4.8 -4.8L4.8 -5.3L6 -5.6L6.25 -6.8L6.5 -5.75M-2.4,-12.05L-2.65 -11.85L-2.3 -11.3Q-1.35 -11.4 -0.85 -10.55L-0.4 -11.05L-0.85 -12.9L-2.4 -12.05M-3.5,-7.8L-5.05 -6.45L-3.9 -5.25Q-5.4 -4.5 -5.55 -6.5Q-5.25 -7.65 -4.4 -8.1L-3.5 -7.8" fill="rgb(109,108,18)" fill-opacity="1"/><path d="M-7.4,-1.8L-7.2 -1.75L-4.95 -1.3L-4.05 -1.2L-2.45 -1.1L-0.9 -1.25L-0.6 -1.3L1.05 -1.7L2.2 -2.15Q0.25 6.15 2.2 14.4L-7.55 14.4Q-7.8 5.95 -11.15 -2.45L-11.15 -3.15Q-9.2 -2.3 -7.4 -1.8" fill="rgb(225,0,0)" fill-opacity="1"/><path d="M-2.3,-2.55L-2.4 -3.15L-2.65 -3.35L-2.65 -3.45Q-2.45 -4.4 -3.1 -4.4Q-3.6 -4.4 -3.6 -3.8Q-3.35 -3 -3.75 -2.95L-3.95 -3Q-3.4 -4.3 -4.4 -4.3Q-4.9 -4.3 -4.95 -3.35L-5.25 -2.65L-7.4 -3L-6.85 -3.55L-6.9 -4.5L-6.8 -5.15Q-6.8 -5.8 -7.25 -6.45L-7.1 -6.9L-5.35 -8.2Q-4.95 -9.8 -3.9 -10.85L-3.45 -9.3Q-2.65 -8.8 -1.9 -9.45Q-2.05 -8.05 -1.05 -7.45L-0.9 -8L-0.7 -9.75Q-0.6 -8.9 0.15 -9.3L0.35 -9.65L0.9 -9.65L0.95 -7.6L1.4 -7.45L2.05 -8.05L2.3 -8.1L3.35 -6.55L3.8 -6.65L3.95 -7L4.6 -7.05Q4.9 -8.05 4.15 -9.1L4.75 -10.15L5.35 -9.2L5.85 -9.15Q6.3 -9.6 6 -10.4L7.15 -11.5Q8.1 -10.7 6.9 -9.45Q6.6 -9.2 6.55 -8.7L6.6 -8.35L7.4 -8.1L7.65 -8.4L7.9 -8.5L8 -7.45L8.35 -7.05L8.6 -6.8Q9.4 -7.25 9.45 -8.05L9.95 -7.8L10 -7.8L9.75 -6.4L9.3 -5.9Q3.75 -2.85 -2.3 -2.55M1.75,-11.9L3.7 -12.2L2.3 -11.3L1.75 -11.9M1.55,-13.15L1.05 -12.8L0.2 -13.1Q0.85 -13.7 2.4 -13.7Q2.65 -13.7 2.8 -12.9Q2.3 -13.55 1.55 -13.15M1.35,-6.45L0.7 -5.4L-0.35 -5.3L-0.25 -4.55Q0.55 -2.85 1.8 -4.55L2.1 -5.1L1.85 -5.85L1.35 -6.45M4.8,-4.7L5.85 -4.7Q6.4 -5.05 6.5 -5.75L6.55 -6.2Q6.7 -7.15 6 -7.15Q5.45 -7.15 5.45 -6.5L5.55 -6L5.15 -6Q4.45 -6 4.45 -5.45Q4.45 -4.95 4.8 -4.8L4.8 -4.7M-0.85,-12.9L-0.4 -11.05Q-0.95 -11.85 -2.15 -12.1L-2.4 -12.05L-0.85 -12.9M-4.4,-8.1Q-5.25 -7.65 -5.55 -6.5Q-5.4 -4.5 -3.9 -5.25Q-3.5 -5.35 -3.5 -5.8L-4.15 -6.85Q-3.4 -7.05 -3.4 -7.45L-3.5 -7.8L-4.4 -8.1M-2.05,-7.15Q-2.55 -7.15 -2.55 -6.3L-2.45 -5.85Q-2.25 -5.35 -1.4 -5.35Q-0.15 -5.35 -0.15 -6.4Q-0.15 -6.95 -0.6 -6.95Q-0.7 -6.35 -1.6 -6.55Q-1.6 -7.15 -2.05 -7.15M-1.7,-4.15L-1.65 -3.6L-0.2 -3.25Q-0.15 -4.45 -1.3 -4.8L-1.7 -4.15" fill="rgb(255,255,102)" fill-opacity="1"/><path d="M8.3,-5L10.9 -6.25Q8.3 2.65 7.4 10.9L2.2 14.4Q0.25 6.15 2.2 -2.15L8.3 -5" fill="rgb(143,1,1)" fill-opacity="1"/><path d="M-7.9,-1.3Q-5.65 6.55 -5.15 14.4M-0.6,-1.3Q-1.05 6.75 0.3 14.4M-1.6,14.4L-2.45 -1.1M-4.95,-1.3L-3.55 14.4" stroke="rgb(255,255,204)" stroke-linecap="round" stroke-linejoin="round" stroke-miterlimit="3" stroke-width="0.7" fill="none"/><path d="M6.2,-4Q4.75 4.35 5.8 12M4.2,13.1Q2.55 8.25 3.6 -2.15" stroke="rgb(255,153,0)" stroke-linecap="round" stroke-linejoin="round" stroke-miterlimit="3" stroke-width="0.7" fill="none"/><path d="M2.2,-2.15L1.05 -1.7L-0.6 -1.3L-0.9 -1.25L-2.45 -1.1L-4.05 -1.2L-4.95 -1.3L-7.2 -1.75L-7.4 -1.8Q-9.3 -2.35 -11.35 -3.25L-11.2 -2.65Q-7.8 5.85 -7.55 14.4L2.2 14.4L7.4 10.9Q8.3 2.65 10.9 -6.25L2.2 -2.15z" stroke="rgb(102,0,0)" stroke-linecap="round" stroke-linejoin="round" stroke-miterlimit="3" stroke-width="1.5" fill="none"/></g></g></g></g></svg>
