<svg xmlns="http://www.w3.org/2000/svg" width="30" height="29" viewBox="-14 -16 32 30"><g><defs/></g><g id="0"><defs/><g><g type="shape" id="0:1:80"><defs/><g transform="matrix(1,0,0,1,0,0)"><path d="M7.45,-11.55L9.7 -11.25L7.45 -10.3Q6.2 -9.65 5.1 -8.75L5.05 -8.65L5.1 -8.4L5.7 -8.5L5.75 -8.55L5.8 -8.6L6.05 -8.75L9.5 -7.75L11.45 -7.2L11.7 -7.15L12.1 -6.85L13.6 -5.3Q10.65 -6.15 7.75 -5.3L7.7 -5.15Q9.2 -5 10.4 -4.3Q11.7 -3.5 12.55 -2.05L12.7 -1.85L12.7 -1.8L12.65 -1.8L12.5 -1.85L12.35 -1.9Q10.65 -2.35 8.95 -1.95L8.55 -1.85L8.9 -1.8L8.95 -1.75L9 -1.75L9.2 -1.7L11.5 0L11.5 0.8L11.85 2.95L11.7 2.3L12.05 4L12.05 6.15L11.5 8.05L10.3 9.6L8.75 10.45L7.6 10.8L4.85 11.35L3.5 11.45L0.15 11.6L-3.8 11.55L-5.95 11.4Q-8.35 11.15 -9.85 9.7Q-11.4 8.2 -11.9 6.05L-12.1 4.7L-12.1 4.5L-11.85 2.25L-11.9 1.65L-10.95 -0.65L-10 -2.15L-9.95 -2.25L-10.25 -2.25Q-11.9 -2.3 -13.3 -1.45L-13.55 -1.25L-13.45 -1.5L-12.9 -2.4L-12.2 -3.4L-11.35 -4.3Q-10.1 -5.6 -8.35 -6.45L-8.3 -6.45L-8.3 -6.55L-8.35 -6.55Q-9.5 -7.25 -10.8 -7.35L-11.1 -7.35L-11.2 -7.35L-11.9 -7.25L-11.95 -7.25L-11.9 -7.3Q-9.95 -8.15 -7.85 -8.45L-5.15 -8.6L-5.05 -8.6L-5.05 -8.65Q-5.45 -10.1 -6.6 -11L-7 -11.3Q-2.5 -11.75 0.2 -8.2L0.65 -8.8Q2.15 -10.3 3.95 -10.95L4.15 -11.05L7.25 -11.55L7.45 -11.55M1.7,-3.75L0.65 -3.65L-0.05 -3.35L-0.4 -3.65Q-1.95 -3.95 -3.25 -3.2Q-4.75 -2.35 -5.7 -0.95Q-6.95 0.9 -6.85 3.15L-6.6 4Q-5.85 5.4 -4.3 5.9L-1.7 5.75L-1.35 5.6L-1.25 5.6L-0.2 5.15Q0.8 6 2.15 6.2Q3.45 6.35 4.7 5.75L5.85 4.95L6.4 4.2L6.65 3.8Q7.1 1.95 6.5 0.2Q5.8 -1.8 4.05 -2.85Q2.95 -3.55 1.7 -3.75M6.7,6.15L6.95 6.3L7.65 6.45Q6.6 7.95 5 8.7Q2.6 9.75 -0.05 10Q-5.15 10.4 -7.9 6.8L-7.25 6.65L-7.05 6.4Q-8.15 5.35 -9.05 7.15L-8.95 7.6L-8.45 7.15L-7.45 8.15Q-5.55 9.85 -3.35 10.45L-3.25 10.5L0.15 10.7L3 10.15Q6 9.2 8.3 6.6L9.05 6.9L9 6.7Q8.25 5.45 6.85 5.75L6.7 6.15M-12.05,4.7L-12 4.5L-12.1 4.5L-12.05 4.7" fill="rgb(51,204,255)" fill-opacity="1"/><path d="M4.05,-2.85Q5.8 -1.8 6.5 0.2Q7.1 1.95 6.65 3.8L6.4 4.2L5.85 4.95L4.7 5.75Q3.45 6.35 2.15 6.2Q0.8 6 -0.2 5.15L-1.25 5.6L-1.35 5.6L-1.7 5.75L-4.3 5.9Q-5.85 5.4 -6.6 4L-6.85 3.15Q-6.95 0.9 -5.7 -0.95Q-4.75 -2.35 -3.25 -3.2Q-1.95 -3.95 -0.4 -3.65L-0.05 -3.35L0.65 -3.65L1.7 -3.75Q2.95 -3.55 4.05 -2.85M2.95,2.3L2.75 1.55L2.25 1.25Q1.9 1.2 1.7 1.55L1.5 2.3L1.7 3.05L2.25 3.35L2.75 3.05L2.95 2.3M-2.15,1.45Q-2.4 1.1 -2.7 1.15Q-3.05 1.1 -3.3 1.45L-3.5 2.3L-3.3 3.1L-2.7 3.4L-2.15 3.1L-1.9 2.3Q-1.9 1.8 -2.15 1.45" fill="rgb(255,255,255)" fill-opacity="1"/><path d="M6.85,5.75Q8.25 5.45 9 6.7L9.05 6.9L8.3 6.6Q6 9.2 3 10.15L0.15 10.7L-3.25 10.5L-3.35 10.45Q-5.55 9.85 -7.45 8.15L-8.45 7.15L-8.95 7.6L-9.05 7.15Q-8.15 5.35 -7.05 6.4L-7.25 6.65L-7.9 6.8Q-5.15 10.4 -0.05 10Q2.6 9.75 5 8.7Q6.6 7.95 7.65 6.45L6.95 6.3L6.7 6.15L6.85 5.75M2.75,3.05L2.25 3.35L1.7 3.05L1.5 2.3L1.7 1.55Q1.9 1.2 2.25 1.25L2.75 1.55L2.95 2.3L2.75 3.05M-1.9,2.3L-2.15 3.1L-2.7 3.4L-3.3 3.1L-3.5 2.3L-3.3 1.45Q-3.05 1.1 -2.7 1.15Q-2.4 1.1 -2.15 1.45Q-1.9 1.8 -1.9 2.3" fill="rgb(0,0,0)" fill-opacity="1"/><path d="M-12.1,4.5L-12 4.5L-12.05 4.7L-12.1 4.5" fill="rgb(0,0,0)" fill-opacity="0.2"/><path d="M7.45,-11.55L9.7 -11.25L7.45 -10.3Q6.2 -9.65 5.1 -8.75L5.05 -8.65L5.1 -8.4L5.7 -8.5L5.75 -8.55L5.8 -8.6L6.05 -8.75L9.5 -7.75L11.45 -7.2L11.7 -7.15L12.1 -6.85L13.6 -5.3Q10.65 -6.15 7.75 -5.3L7.7 -5.15Q9.2 -5 10.4 -4.3Q11.7 -3.5 12.55 -2.05L12.7 -1.85L12.7 -1.8L12.65 -1.8L12.5 -1.85L12.35 -1.9Q10.65 -2.35 8.95 -1.95L8.55 -1.85L8.9 -1.8L8.95 -1.75L9 -1.75L9.2 -1.7L11.5 0L11.5 0.8L11.85 2.95L11.7 2.3L12.05 4L12.05 6.15L11.5 8.05L10.3 9.6L8.75 10.45L7.6 10.8L4.85 11.35L3.5 11.45L0.15 11.6L-3.8 11.55L-5.95 11.4Q-8.35 11.15 -9.85 9.7Q-11.4 8.2 -11.9 6.05L-12.1 4.7L-12.1 4.5L-11.85 2.25L-11.9 1.65L-10.95 -0.65L-10 -2.15L-9.95 -2.25L-10.25 -2.25Q-11.9 -2.3 -13.3 -1.45L-13.55 -1.25L-13.45 -1.5L-12.9 -2.4L-12.2 -3.4L-11.35 -4.3Q-10.1 -5.6 -8.35 -6.45L-8.3 -6.45L-8.3 -6.55L-8.35 -6.55Q-9.5 -7.25 -10.8 -7.35L-11.1 -7.35L-11.2 -7.35L-11.9 -7.25L-11.95 -7.25L-11.9 -7.3Q-9.95 -8.15 -7.85 -8.45L-5.15 -8.6L-5.05 -8.6L-5.05 -8.65Q-5.45 -10.1 -6.6 -11L-7 -11.3Q-2.5 -11.75 0.2 -8.2L0.65 -8.8Q2.15 -10.3 3.95 -10.95L4.15 -11.05L7.25 -11.55L7.45 -11.55M1.7,-3.75L0.65 -3.65L-0.05 -3.35L-0.4 -3.65Q-1.95 -3.95 -3.25 -3.2Q-4.75 -2.35 -5.7 -0.95Q-6.95 0.9 -6.85 3.15L-6.6 4Q-5.85 5.4 -4.3 5.9L-1.7 5.75L-1.35 5.6L-1.25 5.6L-0.2 5.15Q0.8 6 2.15 6.2Q3.45 6.35 4.7 5.75L5.85 4.95L6.4 4.2L6.65 3.8Q7.1 1.95 6.5 0.2Q5.8 -1.8 4.05 -2.85Q2.95 -3.55 1.7 -3.75" stroke="rgb(0,0,0)" stroke-linecap="round" stroke-linejoin="round" stroke-miterlimit="3" stroke-width="1" fill="none"/></g></g></g></g></svg>
