<svg xmlns="http://www.w3.org/2000/svg" width="30" height="29" viewBox="-14 -16 32 30"><g><defs/></g><g id="0"><defs/><g><g type="sprite" id="0:1:68"><defs/><g transform="matrix(0.37265,0,0,0.37265,-11.75,-10.3)"><g type="shape" id="0:1:68:5:60"><defs/><g transform="matrix(1,0,0,1,0,0)"><path d="M63.2,57.05L0 57.05L0 0L63.2 0L63.2 57.05" fill="rgb(255,0,0)" fill-opacity="0"/><path d="M33,17.65L32.85 16.95L33.2 17.1L33 17.65" fill="rgb(138,91,45)" fill-opacity="1"/><path d="M43.8,52Q44.8 51 47.9 49.7Q51 48.4 52.35 48.4L53.45 48.75L54.2 49.1L52.25 49L51.7 49.15L51.35 49.4Q51.95 49.85 53 49.95L54.7 50.05Q55.8 50 56.1 50.45Q56.4 50.85 56.4 51.8L56.4 52.5L56.15 52.7L56.2 52.7L55.5 53.2L53.05 54.35L51.4 54.5L50.3 54.55L50.25 54.8L50.4 55L51.65 55.45Q49.5 55.6 47.45 54.65Q45.55 53.8 43.8 52" fill="rgb(249,225,166)" fill-opacity="1"/><path d="M45.95,43.6L45.95 43.55Q46.7 41.7 47.5 40.75Q49.05 38.8 52.25 37.55L52.5 37.55L52.65 37.7L52.65 37.95L52.45 38.15Q51.45 38.55 50.6 39L50.7 39Q51.95 38.5 53 38.5L53.65 38.55L54.25 38.75L54.45 38.9L54.4 39.15Q54.2 39 53.1 39.7Q52.05 40.35 51.65 40.9Q52.6 40.4 53.9 40.4Q54.45 40.4 55.2 40.75L55.15 40.75L55.95 41.25L56.25 41.55L56.35 41.75L56.45 41.8L56.55 42.05L56.25 41.9L54.9 41.3Q54.35 41 53.9 41Q52.7 41 51.95 41.45L51.9 41.45Q51.4 41.75 51 42.3L50.95 42.35L50.85 42.55L50.65 42.65L50.85 41.55Q51.2 40.35 51.55 40Q52.05 39.5 52.9 39.1Q52 39.15 50.9 39.55L49.85 40.05L49.2 40.3Q49.15 40.15 49.25 40.05L49.5 39.7L47.95 41.15L46.8 42.9L46.05 44.2L45.85 44.1L45.85 43.85L45.95 43.6" fill="rgb(99,14,19)" fill-opacity="1"/><path d="M56.3,42.1L56.4 42.65Q55.65 42.1 54.8 41.9L53.6 41.85Q53.35 42 53.45 42.1L53.65 42.2L54.4 42.2Q56.55 43.5 57.4 44.95Q58.25 46.5 58.25 49.1Q58.2 50.9 56.4 52.5L56.4 51.8Q56.4 50.85 56.1 50.45Q55.8 50 54.7 50.05L53 49.95Q51.95 49.85 51.35 49.4L51.7 49.15L52.25 49L54.2 49.1L53.45 48.75L52.35 48.4Q51 48.4 47.9 49.7Q44.8 51 43.8 52L43.75 51.95L43.65 51.15Q43.65 50.15 44.65 47.25L45.85 43.85L45.85 44.1L46.05 44.2L46.8 42.9L47.95 41.15L49.5 39.7L49.25 40.05Q49.15 40.15 49.2 40.3L49.85 40.05L50.9 39.55Q52 39.15 52.9 39.1Q52.05 39.5 51.55 40Q51.2 40.35 50.85 41.55L50.65 42.65L50.85 42.55L50.95 42.35L51 42.3Q51.4 41.75 51.9 41.45L51.95 41.45Q52.7 41 53.9 41Q54.35 41 54.9 41.3L56.25 41.9L56.3 42.1" fill="rgb(253,247,255)" fill-opacity="1"/><path d="M47.45,54.65Q49.5 55.6 51.65 55.45L50.4 55L50.25 54.8L50.3 54.55L51.4 54.5L53.05 54.35L55.5 53.2L56.2 52.7L56.15 52.7L56.4 52.5Q58.2 50.9 58.25 49.1Q58.25 46.5 57.4 44.95Q56.55 43.5 54.4 42.2L53.65 42.2L53.45 42.1Q53.35 42 53.6 41.85L54.8 41.9Q55.65 42.1 56.4 42.65L56.5 42.75L57.95 44.65Q58.85 46.3 58.85 49.1Q58.9 51.3 56.55 53.15L55.8 53.7L53.25 54.95L52.8 55.1L53.25 55.3L53.5 55.55L53.2 55.7L51.6 56.05Q49.55 56.1 47.2 55.25Q46.25 54.9 44.65 53.4L43.45 52.2L43.25 51.9L43.45 51.8L43.65 51.9L43.75 51.95L43.8 52Q45.55 53.8 47.45 54.65" fill="rgb(80,45,61)" fill-opacity="1"/><path d="M23.25,12.15L23.45 12.1L23.95 16.15L24 16.3L23.65 15.55Q23.05 14 23.1 12.25L23.25 12.15" fill="rgb(255,56,61)" fill-opacity="1"/><path d="M45.7,16.65L44.45 18.4L45.05 18.65L45.7 19.05L48.25 15.65Q50.85 16.6 49 18.85Q47.85 20.2 46.35 21L44.95 21.6L46.5 21.45L50.5 21.7Q52.05 21.95 53.6 22.6Q55.6 23.5 56.05 25.2L55.85 25.25L55.75 25.25L52.45 25.75L52.3 25.75L50.5 25.55L50.35 25.5L47.85 24.65L49.95 26.25L50.5 26.75Q52.7 28.85 53.6 31.35L53.9 32.55L53.8 33.15L53.8 33.25L53.65 33.4L52.7 33.45L51.4 32.85L51.25 32.85L50.2 32.15L48.4 30.65Q47.55 29.7 47 28.55L47.2 29.25L48.55 31.45Q49.35 32.55 50.5 33.3L50.6 33.4L50.7 33.55Q51.85 36 51.85 38.85Q52 42.2 50.5 45.3Q48.85 48.65 45.95 50.35Q39.6 53.7 32.35 54.2Q23.95 54.7 16.75 50.85Q13.45 49.1 12.15 45.8Q10.85 42.9 11.05 39.3Q11.3 36 12.35 33.65L12.55 33.55Q14.3 32.85 14.9 31.1L15.05 30.35L14.5 31.1L12.9 32.5L11.95 32.85Q11.7 32.85 11.55 33Q10.1 33.55 8.65 33Q7.85 30.65 9.85 28.9L10.75 28.1Q11.35 27.55 12.1 27.1L14.75 25.6L11.95 26.3L10.3 26.3L9.9 26.3L9.85 26.3Q7.55 26.1 6.65 25.4Q6.65 24.05 9.1 23L9.9 22.7Q12 21.95 15 21.9Q16.2 21.75 17.65 21.9Q16.25 21.75 15.15 21.2Q14.05 20.75 13.05 19.95L13 19.9L12.25 19.15Q11.25 17.85 12.1 17.2L12.1 17.15L12.55 16.9L14.65 16.3L16.8 19.05L17.4 18.65L18 18.4L16.75 16.65L16.4 16.1L19.1 16.25Q21.75 16.75 24.25 17.85L24.65 18L25.9 20.25L25.95 20.4L27.25 20.35L27.45 18.35L27.45 17.25L26.95 13.15L27.55 13.5Q29.3 14.45 30.55 16.9L31 18.15L31.45 17.05Q32.75 14.3 35.6 12.75L35 17.25L35 18.35L35.2 20.35L36.55 20.45L36.55 20.25L38.05 17.6L38.5 17.4Q40.8 16 43.75 15.6L46.5 15.35L45.7 16.65" fill="rgb(253,247,255)" fill-opacity="1"/><path d="M11.75,-14.95Q19.45 -12.5 23.8 -3.4Q26.55 2.15 28.05 10.45L28.3 11.75L30.4 13.35L31.15 13.85L31.25 13.85L31.4 13.7Q32.75 11.85 34.55 10.9L34.55 10.1Q35.95 2.05 38.65 -3.4Q43 -12.5 50.75 -14.95L51.05 -15.05L52.85 -15.25L53.85 -15L54.45 -14.15L54.95 -9.75L55.2 -4.3Q55.2 -1.45 54.6 2.1Q53.85 6.6 52.65 9.9L50.65 14.45L51 14.7L50.95 14.7Q53.1 16.2 51.55 18.85L50.95 19.7Q53.4 20.05 55.3 21.2L55.45 21.3L57.05 22.8L57.1 22.85Q58.05 24.05 58.3 25.05L58.3 25.25Q58.75 27.05 55 27.65L54.15 27.75Q55.3 29.2 56.05 30.95L56.15 31.1Q56.5 32.25 56.25 33.45L56.25 33.3Q56.05 35.25 54.4 35.55L53.5 35.6L53.75 38.75Q53.8 42.6 52.3 46.05L52.3 46.2Q50.3 50.1 46.75 52.05Q40.2 55.65 32.45 56.1Q23.5 56.6 15.7 52.4Q11.85 50.35 10.3 46.65L10.45 46.65Q8.85 43.35 9.1 39.3L9.8 35.55L9.25 35.55L9.1 35.55Q6.85 35.25 6.5 32.55L6.5 32.5Q6.15 30.8 7.15 29.2L7.15 29.1L7.8 28.05Q6.5 27.8 5.5 27.2Q4.5 26.5 4.55 25.5Q4.4 24.65 5.1 23.75L5.1 23.65Q6.3 21.95 8.3 21.05L9.9 20.45L10.45 20.3L9.9 19.25L9.6 18.3L9.55 18.3Q9.3 17.05 9.9 16.05L10.15 15.7L10.3 15.6Q10.65 15 11.95 14.65Q10.75 12.45 9.8 9.9Q8.6 6.6 7.9 2.1Q7.25 -1.45 7.25 -4.3L7.5 -9.75Q7.7 -13.2 8 -14.15Q8.15 -14.7 8.6 -15L9.65 -15.25L11.45 -15.05L11.75 -14.95M10.85,-11.15L10.65 -11.25L10.5 -9.55L10.25 -4.3Q10.25 -1.75 10.8 1.35Q11.6 5.35 13.1 9.25L15.3 14.1L17.5 14.1L21.1 14.55Q20.8 13.35 21.05 12L21.1 11.85L21.5 11L21.85 10.7L22.9 10.3L23.3 10.25L22.85 6.85Q22.35 4.25 21.45 2.2Q19.45 -2.5 17.35 -5.35Q14.7 -8.9 10.9 -11.1L10.85 -11.15M51.6,-11.15L51.55 -11.1Q47.75 -8.9 45.1 -5.35Q43 -2.5 41 2.2Q40.1 4.25 39.6 6.85L39.15 10.45Q39.9 10.9 40.45 11.95Q41.05 12.55 40.6 14.25L44.05 13.45L44.2 13.45L47.4 13.35L47.55 13.35L49.35 9.25Q50.85 5.35 51.7 1.35Q52.2 -1.75 52.2 -4.3L51.95 -9.55L51.85 -11.25L51.6 -11.15M46.5,15.35L43.75 15.6Q40.8 16 38.5 17.4L38.05 17.6L36.55 20.25L36.55 20.45L35.2 20.35L35 18.35L35 17.25L35.6 12.75Q32.75 14.3 31.45 17.05L31 18.15L30.55 16.9Q29.3 14.45 27.55 13.5L26.95 13.15L27.45 17.25L27.45 18.35L27.25 20.35L25.95 20.4L25.9 20.25L24.65 18L24.25 17.85Q21.75 16.75 19.1 16.25L16.4 16.1L16.75 16.65L18 18.4L17.4 18.65L16.8 19.05L14.65 16.3L12.55 16.9L12.1 17.15L12.1 17.2Q11.25 17.85 12.25 19.15L13 19.9L13.05 19.95Q14.05 20.75 15.15 21.2Q16.25 21.75 17.65 21.9Q16.2 21.75 15 21.9Q12 21.95 9.9 22.7L9.1 23Q6.65 24.05 6.65 25.4Q7.55 26.1 9.85 26.3L9.9 26.3L10.3 26.3L11.95 26.3L14.75 25.6L12.1 27.1Q11.35 27.55 10.75 28.1L9.85 28.9Q7.85 30.65 8.65 33Q10.1 33.55 11.55 33Q11.7 32.85 11.95 32.85L12.9 32.5L14.5 31.1L15.05 30.35L14.9 31.1Q14.3 32.85 12.55 33.55L12.35 33.65Q11.3 36 11.05 39.3Q10.85 42.9 12.15 45.8Q13.45 49.1 16.75 50.85Q23.95 54.7 32.35 54.2Q39.6 53.7 45.95 50.35Q48.85 48.65 50.5 45.3Q52 42.2 51.85 38.85Q51.85 36 50.7 33.55L50.6 33.4L50.5 33.3Q49.35 32.55 48.55 31.45L47.2 29.25L47 28.55Q47.55 29.7 48.4 30.65L50.2 32.15L51.25 32.85L51.4 32.85L52.7 33.45L53.65 33.4L53.8 33.25L53.8 33.15L53.9 32.55L53.6 31.35Q52.7 28.85 50.5 26.75L49.95 26.25L47.85 24.65L50.35 25.5L50.5 25.55L52.3 25.75L52.45 25.75L55.75 25.25L55.85 25.25L56.05 25.2Q55.6 23.5 53.6 22.6Q52.05 21.95 50.5 21.7L46.5 21.45L44.95 21.6L46.35 21Q47.85 20.2 49 18.85Q50.85 16.6 48.25 15.65L45.7 19.05L45.05 18.65L44.45 18.4L45.7 16.65L46.5 15.35M23.1,12.25Q23.05 14 23.65 15.55L24 16.3L23.95 16.15L23.45 12.1L23.25 12.15L23.1 12.25" fill="rgb(80,45,61)" fill-opacity="1"/><path d="M16.85,-5Q18.95 -2.2 20.9 2.45Q21.75 4.45 22.2 7L22.8 11.6L23.3 16.2Q21.95 14.7 20 14L19.4 14Q19.3 14 19.25 14.1L19.1 14.25L19.15 14.45L20.95 18.1L20.15 18.05L18.7 18.2L17.3 16.3Q15.3 13.25 13.7 9Q12.15 4.95 11.35 0.85Q10.5 -3.25 10.55 -6.3L10.6 -8.35L10.6 -8.5L10.7 -9.2L10.95 -10.35Q14.4 -8.25 16.85 -5M51.85,-8.5L51.85 -8.35L51.9 -6.3Q51.95 -3.25 51.1 0.85Q50.3 4.95 48.75 9Q47.15 13.25 45.15 16.3L43.8 18.2L42.3 18.05L41.5 18.1L43.3 14.45L43.35 14.25L43.2 14.1L43.05 14L42.45 14Q40.5 14.7 39.15 16.2L39.65 11.6L40.25 7Q40.7 4.45 41.55 2.45Q43.5 -2.2 45.6 -5Q48.05 -8.25 51.5 -10.35L51.75 -9.2L51.85 -8.5" fill="rgb(211,132,180)" fill-opacity="1"/><path d="M22.5,23L22.6 22.95L22.8 22.8L22.05 22.75L21.2 22.7L18.4 22.4Q17.65 22.2 16.85 21.55L15.55 20.35L16.6 19.8L16.65 19.8L17.25 19.5L17.7 19.2Q18 19 18.45 18.9L19.15 18.75L20.15 18.7Q21.45 18.65 22.8 19.75L23.65 20.5L23.9 20.85L23.7 20.5L22.95 19.55L21.75 18.2L21.7 18.05Q20.9 16.95 19.9 14.65Q21.7 15.3 23 16.75L23.6 17.55L24.45 18.6L24.7 18.95L25.8 20.4L25.85 20.45Q25.8 21.15 24.55 22.2L22.9 23.15L22.5 23M25.95,20.4L25.9 20.25L24.15 17.25L23.95 16.15Q23.7 14.75 23.4 11.55L22.85 6.85Q22.35 4.25 21.45 2.2Q19.45 -2.5 17.35 -5.35Q14.7 -8.9 10.9 -11.1L10.85 -11.15L10.15 -11.5L9.95 -11.55L9.75 -11.4L10.05 -11L10.35 -10.7L10.1 -8.5L9.95 -6.3Q9.85 -3.25 10.7 0.95Q11.55 5.15 13.1 9.25Q14.75 13.55 16.75 16.65L18 18.4L17.4 18.65L16.8 19.05Q13.4 15.35 11.2 9.35Q10.05 6.2 9.35 1.85Q8.75 -1.55 8.75 -4.3L9 -9.65Q9.2 -12.85 9.45 -13.75L11.25 -13.55Q18.4 -11.2 22.45 -2.75Q26.1 4.75 27.45 17.25L27.45 18.35L27.25 20.35L25.95 20.4M35.2,20.35L35 18.35L35 17.25Q36.35 4.75 40 -2.75Q44.05 -11.2 51.2 -13.55L53 -13.75L53.45 -9.65L53.7 -4.3Q53.7 -1.55 53.1 1.85Q52.4 6.2 51.25 9.35Q49.05 15.35 45.7 19.05L45.05 18.65L44.45 18.4L45.7 16.65Q47.7 13.55 49.35 9.25Q50.9 5.15 51.75 0.95Q52.6 -3.25 52.5 -6.3L52.35 -8.5L52.1 -10.7L52.4 -11L52.7 -11.4L52.5 -11.55L52.3 -11.5L51.6 -11.15L51.55 -11.1Q47.75 -8.9 45.1 -5.35Q43 -2.5 41 2.2Q40.1 4.25 39.6 6.85L39.05 11.55L38.5 16.15L38.35 17.25L36.55 20.25L36.55 20.45L35.2 20.35M36.6,20.45L36.65 20.45L37.75 18.95L38.05 18.6L38.85 17.55L39.45 16.75Q40.75 15.3 42.55 14.65Q41.55 16.95 40.75 18.05L40.7 18.2L39.5 19.55L38.8 20.5L38.55 20.85L38.85 20.5L39.65 19.75Q41 18.65 42.3 18.7L43.3 18.75L44.05 18.9L44.75 19.2L45.25 19.5L45.85 19.8L46.9 20.35L45.6 21.55Q44.8 22.2 44.05 22.4L41.25 22.7L40.4 22.75L39.65 22.8L39.85 22.95L39.95 23L39.55 23.15Q39.1 23.15 37.9 22.2Q36.65 21.15 36.6 20.45" fill="rgb(253,247,255)" fill-opacity="1"/><path d="M27.45,18.35L27.45 17.25Q26.1 4.75 22.45 -2.75Q18.4 -11.2 11.25 -13.55L9.45 -13.75Q9.2 -12.85 9 -9.65L8.75 -4.3Q8.75 -1.55 9.35 1.85Q10.05 6.2 11.2 9.35Q13.4 15.35 16.8 19.05L17.4 18.65L18 18.4L16.75 16.65Q14.75 13.55 13.1 9.25Q11.55 5.15 10.7 0.95Q9.85 -3.25 9.95 -6.3L10.1 -8.5L10.35 -10.7L10.05 -11L9.75 -11.4L9.95 -11.55L10.15 -11.5L10.85 -11.15L10.9 -11.1Q14.7 -8.9 17.35 -5.35Q19.45 -2.5 21.45 2.2Q22.35 4.25 22.85 6.85L23.4 11.55Q23.7 14.75 23.95 16.15L24.15 17.25L25.9 20.25L25.95 20.4L25.9 20.5L25.85 20.45L25.8 20.4L24.7 18.95L24.45 18.6L23.6 17.55L23 16.75Q21.7 15.3 19.9 14.65Q20.9 16.95 21.7 18.05L21.75 18.2L22.95 19.55L23.7 20.5L23.9 20.85L23.65 20.5L22.8 19.75Q21.45 18.65 20.15 18.7L19.15 18.75L18.45 18.9Q18 19 17.7 19.2L17.25 19.5L16.65 19.8L16.6 19.8L15.55 20.35L16.85 21.55Q17.65 22.2 18.4 22.4L21.2 22.7L22.05 22.75L22.8 22.8L22.6 22.95L22.5 23L20 23.35Q18.4 23.35 17.55 22.8L15.5 21.05L14.7 20.15L15.8 19.55L16.2 19.35L14.45 17.35Q12.1 14.2 10.5 9.55L9.4 5.95Q8.85 3.9 8.6 1.95L8.2 -1.35L8.05 -4.3L8.25 -9.7L8.55 -12.6L8.85 -14.1L8.9 -14.2L9.05 -14.35L9.25 -14.4L11.35 -14.15L11.4 -14.15Q18.8 -11.75 23.05 -3Q26.7 4.55 28.05 17.2L28.05 18.4L27.8 19.85L27.65 20.3L27.45 20.8L27.25 20.7L27.2 20.45L27.25 20.35L27.45 18.35M10.95,-10.35L10.7 -9.2L10.6 -8.5L10.6 -8.35L10.55 -6.3Q10.5 -3.25 11.35 0.85Q12.15 4.95 13.7 9Q15.3 13.25 17.3 16.3L18.7 18.2L20.15 18.05L20.95 18.1L19.15 14.45L19.1 14.25L19.25 14.1Q19.3 14 19.4 14L20 14Q21.95 14.7 23.3 16.2L22.8 11.6L22.2 7Q21.75 4.45 20.9 2.45Q18.95 -2.2 16.85 -5Q14.4 -8.25 10.95 -10.35M35.25,20.45L35.2 20.7L35 20.8L34.8 20.3L34.65 19.85L34.4 18.4L34.4 17.2Q35.75 4.55 39.4 -3Q43.65 -11.75 51.05 -14.15L51.1 -14.15L53.2 -14.4L53.4 -14.35L53.55 -14.2L53.6 -14.1L53.9 -12.6L54.2 -9.7L54.4 -4.3L54.25 -1.35L53.85 1.95L53.05 5.95L51.95 9.55Q50.35 14.2 48 17.35L46.3 19.35L46.65 19.55L47.75 20.15L46.95 21.05L44.9 22.8Q44.05 23.35 42.45 23.35L39.95 23L39.85 22.95L39.65 22.8L40.4 22.75L41.25 22.7L44.05 22.4Q44.8 22.2 45.6 21.55L46.9 20.35L45.85 19.8L45.25 19.5L44.75 19.2L44.05 18.9L43.3 18.75L42.3 18.7Q41 18.65 39.65 19.75L38.85 20.5L38.55 20.85L38.8 20.5L39.5 19.55L40.7 18.2L40.75 18.05Q41.55 16.95 42.55 14.65Q40.75 15.3 39.45 16.75L38.85 17.55L38.05 18.6L37.75 18.95L36.65 20.45L36.6 20.45L36.55 20.5L36.55 20.45L36.55 20.25L38.35 17.25L38.5 16.15L39.05 11.55L39.6 6.85Q40.1 4.25 41 2.2Q43 -2.5 45.1 -5.35Q47.75 -8.9 51.55 -11.1L51.6 -11.15L52.3 -11.5L52.5 -11.55L52.7 -11.4L52.4 -11L52.1 -10.7L52.35 -8.5L52.5 -6.3Q52.6 -3.25 51.75 0.95Q50.9 5.15 49.35 9.25Q47.7 13.55 45.7 16.65L44.45 18.4L45.05 18.65L45.7 19.05Q49.05 15.35 51.25 9.35Q52.4 6.2 53.1 1.85Q53.7 -1.55 53.7 -4.3L53.45 -9.65L53 -13.75L51.2 -13.55Q44.05 -11.2 40 -2.75Q36.35 4.75 35 17.25L35 18.35L35.2 20.35L35.25 20.45M51.75,-9.2L51.5 -10.35Q48.05 -8.25 45.6 -5Q43.5 -2.2 41.55 2.45Q40.7 4.45 40.25 7L39.65 11.6L39.15 16.2Q40.5 14.7 42.45 14L43.05 14L43.2 14.1L43.35 14.25L43.3 14.45L41.5 18.1L42.3 18.05L43.8 18.2L45.15 16.3Q47.15 13.25 48.75 9Q50.3 4.95 51.1 0.85Q51.95 -3.25 51.9 -6.3L51.85 -8.35L51.85 -8.5L51.75 -9.2" fill="rgb(80,45,61)" fill-opacity="1"/></g></g><g type="sprite" id="0:1:68:6:67"><defs/><g transform="matrix(0.873962,0,0,0.873962,30.8,40.9)"><g type="sprite" id="0:1:68:6:67:1:62"><defs/><g transform="matrix(1,0,0,1,-7.8,-6.55)"><g type="shape" id="0:1:68:6:67:1:62:1:61"><defs/><g transform="matrix(1,0,0,1,0,0)"><path d="M0,0.75Q-1.55 0.65 -3.95 1.6L-5.3 1.9Q-6.4 1.9 -4.85 0.2Q-2.65 -2.15 -0.15 -2.25Q2.35 -2.35 4.4 -0.15Q6.4 2 5.5 2.25Q4.9 2.4 3.9 1.95Q1.35 0.85 0 0.75" fill="rgb(51,51,51)" fill-opacity="1"/><path d="M0,0.75Q-1.55 0.65 -3.95 1.6L-5.3 1.9Q-6.4 1.9 -4.85 0.2Q-2.65 -2.15 -0.15 -2.25Q2.35 -2.35 4.4 -0.15Q6.4 2 5.5 2.25Q4.9 2.4 3.9 1.95Q1.35 0.85 0 0.75z" stroke="rgb(51,51,51)" stroke-linecap="round" stroke-linejoin="round" stroke-miterlimit="3" stroke-width="0.75" fill="none"/></g></g></g></g><g type="sprite" id="0:1:68:6:67:3:62"><defs/><g transform="matrix(-1,0,0,1,7.75,-6.55)"><g type="shape" id="0:1:68:6:67:3:62:1:61"><defs/><g transform="matrix(1,0,0,1,0,0)"><path d="M0,0.75Q-1.55 0.65 -3.95 1.6L-5.3 1.9Q-6.4 1.9 -4.85 0.2Q-2.65 -2.15 -0.15 -2.25Q2.35 -2.35 4.4 -0.15Q6.4 2 5.5 2.25Q4.9 2.4 3.9 1.95Q1.35 0.85 0 0.75" fill="rgb(51,51,51)" fill-opacity="1"/><path d="M0,0.75Q-1.55 0.65 -3.95 1.6L-5.3 1.9Q-6.4 1.9 -4.85 0.2Q-2.65 -2.15 -0.15 -2.25Q2.35 -2.35 4.4 -0.15Q6.4 2 5.5 2.25Q4.9 2.4 3.9 1.95Q1.35 0.85 0 0.75z" stroke="rgb(51,51,51)" stroke-linecap="round" stroke-linejoin="round" stroke-miterlimit="3" stroke-width="0.75" fill="none"/></g></g></g></g><g type="sprite" id="0:1:68:6:67:5:64"><defs/><g transform="matrix(1,0,0,0.665344,0.5,6.65)"><g type="shape" id="0:1:68:6:67:5:64:1:63"><defs/><g transform="matrix(1,0,0,1,0,0)"><path d="M14.2,-7.55Q14.05 -3.55 12.1 0.35Q8.25 8.15 -0.55 7.55Q-9.35 6.95 -12.65 -0.35Q-13.7 -2.6 -14.05 -5.3L-14.2 -7.5L-10.45 -6.6Q-5.7 -5.65 -0.55 -5.55Q4.65 -5.45 9.95 -6.5L14.2 -7.55" fill="rgb(51,51,51)" fill-opacity="1"/><path d="M9.95,-6.5Q4.65 -5.45 -0.55 -5.55Q-5.7 -5.65 -10.45 -6.6L-14.2 -7.5L-14.05 -5.3Q-13.7 -2.6 -12.65 -0.35Q-9.35 6.95 -0.55 7.55Q8.25 8.15 12.1 0.35Q14.05 -3.55 14.2 -7.55L9.95 -6.5z" stroke="rgb(51,51,51)" stroke-linecap="round" stroke-linejoin="round" stroke-miterlimit="3" stroke-width="0.75" fill="none"/></g></g></g></g><g type="sprite" id="0:1:68:6:67:7:66"><defs/><g transform="matrix(1.22943,0.369019,-0.369019,1.22943,-15.55,4.3)"><g type="shape" id="0:1:68:6:67:7:66:1:65"><defs/><g transform="matrix(1,0,0,1,0,0)"><path d="M4.55,3.45Q4.55 5.35 3.2 6.65Q1.9 8 0 8Q-1.9 8 -3.25 6.65Q-4.55 5.35 -4.55 3.45L-4.4 2.2L-4.3 1.85L-0.1 -7.95L4.4 2.15L4.55 3.45" fill="rgb(51,153,255)" fill-opacity="1"/><path d="M4.55,3.45Q4.55 5.35 3.2 6.65Q1.9 8 0 8Q-1.9 8 -3.25 6.65Q-4.55 5.35 -4.55 3.45L-4.4 2.2L-4.3 1.85L-0.1 -7.95L4.4 2.15L4.55 3.45z" stroke="rgb(51,153,255)" stroke-linecap="round" stroke-linejoin="round" stroke-miterlimit="3" stroke-width="0.75" fill="none"/></g></g></g></g><g type="sprite" id="0:1:68:6:67:9:66"><defs/><g transform="matrix(-1.22943,0.369019,0.369019,1.22943,15.55,4.3)"><g type="shape" id="0:1:68:6:67:9:66:1:65"><defs/><g transform="matrix(1,0,0,1,0,0)"><path d="M4.55,3.45Q4.55 5.35 3.2 6.65Q1.9 8 0 8Q-1.9 8 -3.25 6.65Q-4.55 5.35 -4.55 3.45L-4.4 2.2L-4.3 1.85L-0.1 -7.95L4.4 2.15L4.55 3.45" fill="rgb(51,153,255)" fill-opacity="1"/><path d="M4.55,3.45Q4.55 5.35 3.2 6.65Q1.9 8 0 8Q-1.9 8 -3.25 6.65Q-4.55 5.35 -4.55 3.45L-4.4 2.2L-4.3 1.85L-0.1 -7.95L4.4 2.15L4.55 3.45z" stroke="rgb(51,153,255)" stroke-linecap="round" stroke-linejoin="round" stroke-miterlimit="3" stroke-width="0.75" fill="none"/></g></g></g></g></g></g></g></g></g></g></svg>
