<svg xmlns="http://www.w3.org/2000/svg" width="30" height="29" viewBox="-16 -16 31 30"><g><defs/></g><g id="0"><defs/><g><g type="shape" id="0:2:57"><defs/><g transform="matrix(1,0,0,1,0,0)"><path d="M0.05,-1.5Q-1.65 7.65 -8 12.65" stroke="rgb(0,102,0)" stroke-linecap="round" stroke-linejoin="round" stroke-miterlimit="3" stroke-width="2" fill="none"/><path d="M0.6,-2L0.5 -2.05L0.95 -5.3L0.9 -5.3L1 -5.45L1.75 -6.85Q2.2 -8.65 3.85 -9.6Q5.45 -10.55 7.3 -10.05Q8.2 -9.85 9.5 -7.6L9.7 -7.3L0.6 -2M-0.8,1.05L-1.55 2.6L-2.4 4.05Q-3.5 5.6 -5.3 5.9Q-8.45 5.95 -9.45 3.15L0.45 -1.85L0.1 -2.15L-3.1 -3L-6.05 -4.7L-7.25 -5.95Q-8.6 -7.9 -7.4 -9.7L-6.35 -10.9L-5.3 -11.65L0.45 -1.85L0.55 -2L3.85 -0.9Q4.35 -0.6 4.75 -0.45Q6.55 0 7.5 1.65Q8.45 3.25 8 5.1Q7.75 5.95 5.65 7.2L0.45 -1.85L-0.8 1.05" fill="rgb(0,153,0)" fill-opacity="1"/><path d="M0.55,-2L0.45 -1.85L-5.3 -11.65Q-3.15 -12.85 -2.25 -12.6Q-0.45 -12.15 0.5 -10.5Q1.45 -8.85 0.95 -7Q0.8 -6.45 0.9 -5.3L0.95 -5.3L0.5 -2.05L0.6 -2L9.7 -7.3Q11.05 -5.6 10.1 -3.6Q9.05 -1.4 6.8 -1.05L3.25 -1.3L3.85 -0.9L0.55 -2M0.45,-1.85L5.65 7.2Q4.55 7.95 2.95 8.4Q1.9 8.2 0.9 7.55Q-0.75 6.45 -0.8 4.6L-0.8 2.75L-0.8 1.05L0.45 -1.85M0.1,-2.15L0.45 -1.85L-9.45 3.15Q-10.65 1.05 -10.4 0.2Q-9.95 -1.65 -8.3 -2.6Q-6.65 -3.55 -4.8 -3L-3.1 -3L0.1 -2.15" fill="rgb(2,131,1)" fill-opacity="1"/><path d="M0.9,-5.3L1 -5.45L1.75 -6.85Q2.2 -8.65 3.85 -9.6Q5.45 -10.55 7.3 -10.05Q8.2 -9.85 9.5 -7.6L9.7 -7.3Q11.05 -5.6 10.1 -3.6Q9.05 -1.4 6.8 -1.05L3.25 -1.3L3.85 -0.9Q4.35 -0.6 4.75 -0.45Q6.55 0 7.5 1.65Q8.45 3.25 8 5.1Q7.75 5.95 5.65 7.2Q4.55 7.95 2.95 8.4Q1.9 8.2 0.9 7.55Q-0.75 6.45 -0.8 4.6L-0.8 2.75L-0.8 1.05L-1.55 2.6L-2.4 4.05Q-3.5 5.6 -5.3 5.9Q-8.45 5.95 -9.45 3.15Q-10.65 1.05 -10.4 0.2Q-9.95 -1.65 -8.3 -2.6Q-6.65 -3.55 -4.8 -3L-3.1 -3L-6.05 -4.7L-7.25 -5.95Q-8.6 -7.9 -7.4 -9.7L-6.35 -10.9L-5.3 -11.65Q-3.15 -12.85 -2.25 -12.6Q-0.45 -12.15 0.5 -10.5Q1.45 -8.85 0.95 -7Q0.8 -6.45 0.9 -5.3z" stroke="rgb(0,102,0)" stroke-linecap="round" stroke-linejoin="round" stroke-miterlimit="3" stroke-width="1" fill="none"/></g></g></g></g></svg>
