<svg height="29" viewBox="-14 -16 32 30" width="30" xmlns="http://www.w3.org/2000/svg">
	<style>/* <![CDATA[ */
	.left-eye {
		transform: matrix(0.535919,0,0,0.535919,23.85,30.4);
		animation: left-eye 1s none infinite;
		-webkit-animation: left-eye 1s none infinite;
	}
	.right-eye {
		transform: matrix(-0.535919,0,0,0.535919,38.4,30.4);
		animation: right-eye 1s none infinite;
		-webkit-animation: right-eye 1s none infinite;
	}
	@keyframes right-eye {
		0% {transform: matrix(-0.633179,0,0,0.633179,39.75,30.4);}
		50% {transform: matrix(-0.535919,0,0,0.535919,38.4,30.4);}
	}
	@keyframes left-eye {
		0% {transform: matrix(0.633179,0,0,0.633179,22.4,30.4);}
		50% {transform: matrix(0.535919,0,0,0.535919,23.85,30.4);}
	}
	@-webkit-keyframes right-eye {
		0% {transform: matrix(-0.633179,0,0,0.633179,39.75,30.4);}
		50% {transform: matrix(-0.535919,0,0,0.535919,38.4,30.4);}
	}
	@-webkit-keyframes left-eye {
		0% {transform: matrix(0.633179,0,0,0.633179,22.4,30.4);}
		50% {transform: matrix(0.535919,0,0,0.535919,23.85,30.4);}
	}
	/* ]]>*/</style>
	<g transform="matrix(0.44928,0,0,0.44928,-14.35,-12.1)">
		<g>
			<path d="M40.6,44.2L43.5 45L45.95 45.65L48.55 46.45L51.2 46.85L53.4 47.3L55.55 47.35L58.25 47.1L60.6 46.85L62.9 46.1Q64.2 45.35 65.55 43.4L66.45 41.55L66.6 40.85Q66.8 38.65 65.65 36.5L64 34.1L63.4 33.8L61.4 32.2Q59.75 31 58.15 30.65Q56.7 30.4 55.3 31.85Q54.2 33.1 53.8 34.95Q53.45 36.3 54.75 37.3L57.7 38.75L57.75 38.65L57.8 38.3L57.95 38.05L58.2 37.8L58.3 38L58.35 38.1L58.55 38.35L58.5 38.4L58.6 38.65L58.4 39.25L58.3 39.35L58.1 39.65L58.05 39.6L57.75 39.7L57.45 39.75L57.4 39.9L56.55 39.95L54.5 39.85L52.85 39.7L51.6 39.5L50.3 39.25L49 38.95L44.55 37.9L43.95 37.65L43.35 37.5L43.15 37.45L42.4 37.3L42.85 37.65L43.1 37.7L42.8 38.45L42.65 38.4Q42 38.25 41.8 37.5L41.8 37.25L41.8 36.9L41.75 36.55Q41.95 35.65 42.55 35.65L43.15 35.5L43.95 35.7Q46.7 36.75 51.85 37.7L52.65 37.7Q51.45 36.35 51.95 34.55Q52.45 32.25 53.9 30.55Q56.1 28.3 58.55 28.95Q60.4 29.35 62.45 30.75Q63.1 31.1 64.5 32.35L64.8 32.45L65.4 33.2L66.4 34.5L66.55 34.5Q68 36.95 68.2 38.45L68.25 41.1Q68.25 41.95 67.55 43.5L66.35 45.4Q65.2 46.95 63.85 47.6Q62.35 48.4 59.05 48.85Q55.7 49.2 53.3 48.95L39.9 45.9L39.85 45.9L39 45.25Q38.8 44.95 38.85 44.4Q38.8 44.05 39 43.8L39.15 43.45L39.45 43.15Q39.7 42.8 40.55 43L40.7 43.05L40.9 43.25L40.6 44.2M43.9,36.95L43.95 36.95L43.9 36.75L43.9 36.95M43.15,36.35L43.55 36.85L43.85 36.9L43.9 36.75Q43.6 36.45 43.15 36.35" fill="rgb(145,83,3)"/>
			<path d="M64.35,35.2L64.25 35.2L61.55 34.75L60.65 34.4L60.5 34.55L60.65 35L60.75 35.2Q61.05 36 60.95 36.6L60.9 36.6L60.8 36.75L60 36.85Q59 37.1 58.3 37.95L58.3 38L58.2 37.8L57.95 38.05L57.8 38.3L57.75 38.65L57.7 38.75L54.75 37.3Q53.45 36.3 53.8 34.95Q54.2 33.1 55.3 31.85Q56.7 30.4 58.15 30.65Q59.75 31 61.4 32.2L63.4 33.8L64 34.1Q64.5 34.9 64.35 35.2" fill="rgb(255,240,220)"/>
			<path d="M43.15,37.45L43.35 37.5L43.95 37.65L44.55 37.9L49 38.95L49.1 39.25Q49.55 41.05 48.7 45.8L48.55 46.45L45.95 45.65L43.5 45L40.6 44.2L40.9 43.25L41.85 40.85L42.8 38.45L43.1 37.7L43.15 37.45M52.85,39.7L54.5 39.85L56.55 39.95L56.8 40.25Q57.45 41 57.95 42.55Q58.75 44.65 58.6 46.55L58.5 46.85L58.25 47.1L55.55 47.35L53.4 47.3L53.6 46.75L53.8 45L53.7 42L53.05 40L52.85 39.7M58.1,39.65L58.3 39.35L58.4 39.25L58.6 38.65L58.65 38.45L58.75 38.25L58.75 38.2L58.95 38.1L60.6 37.8Q61.8 37.45 64.55 38.95L65.85 39.9L66.15 40.7L66.45 41.55L65.55 43.4Q64.2 45.35 62.9 46.1L62.95 46L63.1 45.75L63.15 45.6L63.05 44.7Q63.3 42.25 62.05 41.2Q61.25 40.35 59.7 40Q58.6 39.6 58.1 39.65" fill="rgb(255,197,111)"/>
			<path d="M53.05,40L53.7 42L53.8 45L53.6 46.75L53.4 47.3L51.2 46.85L48.55 46.45L48.7 45.8Q49.55 41.05 49.1 39.25L49 38.95L50.3 39.25L51.6 39.5L52.85 39.7L53.05 40M59.7,40Q61.25 40.35 62.05 41.2Q63.3 42.25 63.05 44.7L63.15 45.6L63.1 45.75L62.95 46L62.9 46.1L60.6 46.85L58.25 47.1L58.5 46.85L58.6 46.55Q58.75 44.65 57.95 42.55Q57.45 41 56.8 40.25L56.55 39.95L57.4 39.9L57.45 39.75L57.75 39.7L58.05 39.6L58.1 39.65Q58.6 39.6 59.7 40M58.6,38.65L58.5 38.4L58.55 38.35L58.35 38.1L58.3 38L58.3 37.95Q59 37.1 60 36.85L60.8 36.75L60.9 36.6L60.95 36.6Q61.05 36 60.75 35.2L60.65 35L60.5 34.55L60.65 34.4L61.55 34.75L64.25 35.2L64.35 35.2Q64.5 34.9 64 34.1L65.65 36.5Q66.8 38.65 66.6 40.85L66.45 41.55L66.15 40.7L65.85 39.9L64.55 38.95Q61.8 37.45 60.6 37.8L58.95 38.1L58.75 38.2L58.75 38.25L58.65 38.45L58.6 38.65" fill="rgb(231,141,31)"/>
			<path d="M46.9,10.15L47.05 10.15Q49.15 10.45 50.5 11.55L50.45 11.55Q52.6 12.95 51 15.65L50.45 16.5Q52.9 16.8 54.85 18.05L55 18.1L56.5 19.55L56.55 19.6Q57.55 20.8 57.8 21.85L57.8 22.05Q58.3 23.8 54.55 24.5L54.45 24.5L53.65 24.55Q54.75 26 55.55 27.75L55.65 27.9Q55.95 29.05 55.7 30.25L55.7 30.1Q55.55 32.05 53.8 32.35L52.95 32.45L53.2 35.6Q53.35 39.35 51.75 42.9L51.75 42.95Q49.75 46.9 46.25 48.8Q39.75 52.4 31.9 52.9Q23.05 53.35 15.25 49.2Q11.35 47.15 9.8 43.45L9.9 43.45Q8.35 40.15 8.55 36.05L9.25 32.35L8.8 32.35L8.55 32.35Q6.4 32.05 5.95 29.35L5.95 29.25Q5.65 27.55 6.6 26L6.6 25.9L7.3 24.85Q5.95 24.6 5 23.95Q3.9 23.25 4.1 22.3Q3.85 21.45 4.6 20.5L4.6 20.4Q5.8 18.7 7.85 17.85Q8.8 17.3 9.9 17.05Q9.25 16 9.1 15L8.95 15Q8.8 13.6 9.7 12.5L9.75 12.4Q10.3 11.55 12.95 11.15L17.05 10.85L20.6 11.35Q20.35 10.15 20.5 8.8L20.6 8.55Q20.65 8.1 21 7.85L21.3 7.45L22.3 7.05Q24.75 6.65 27.25 8.05Q28.75 8.85 29.95 10.15L29.2 7.85Q28.6 5.95 27.9 5.15L29.55 6.4Q30.25 7.3 30.4 7.95L31.5 6.55L32.55 5.5Q31.1 7.9 30.9 10.45Q32.3 8.7 34.25 7.6L34.35 7.6Q36.2 6.65 37.45 6.85Q38.95 6.85 40 8.7Q40.45 9.35 40.15 11.05Q41.8 10.45 43.5 10.2L43.6 10.2L46.9 10.15M45.85,17.75Q47.35 17.05 48.55 15.65Q50.45 13.3 47.4 12.25L43.2 12.4Q40.3 12.85 37.95 14.15Q37 14.7 36.2 15.3L37.25 13.9Q37.95 12.4 38.15 10.75Q38.4 7.95 35.65 9.2Q32.45 10.75 31 13.9L30.5 14.95L30 13.65Q28.75 11.25 27 10.3Q24.6 8.85 23.35 8.85L22.75 8.95L22.65 8.95Q22.55 10.75 23.1 12.25Q23.5 13.3 24.2 14.05L25.15 15.15L26.05 15.85Q24.95 15.15 23.7 14.7Q21.25 13.5 18.55 13.05Q15.25 12.5 12.1 13.65L11.6 13.9L11.6 14Q10.75 14.7 11.7 15.95L12.5 16.65L12.55 16.7L14.7 18.05Q15.8 18.55 17.15 18.7Q15.75 18.55 14.5 18.7Q10.85 18.7 8.55 19.8Q6.15 20.8 6.15 22.25Q7 22.85 9.35 23.1L9.75 23.1L11.45 23.1Q12.95 22.9 14.3 22.3Q12.85 23.1 11.6 23.95Q10.3 24.7 9.35 25.6Q7.3 27.4 8.1 29.75Q9.6 30.25 11.05 29.75L11.45 29.6L12.4 29.25L14 27.9L14.55 27.1L14.4 27.9Q13.75 29.6 12.1 30.25L12 30.25Q11.95 30.25 11.8 30.4Q10.75 32.75 10.6 36.1Q10.3 39.65 11.65 42.6Q12.95 45.9 16.25 47.6Q23.35 51.45 31.9 51Q39.05 50.5 45.4 47.15Q48.3 45.4 50.05 42.1Q51.45 38.95 51.35 35.65Q51.35 32.85 50.2 30.25L50.05 30.15L50.05 30.1Q48.8 29.35 48 28.25L46.75 26.05L46.45 25.35L47.9 27.4Q48.7 28.3 49.65 28.9L50.8 29.6L50.9 29.65Q51.45 30 52.15 30.25L53.2 30.15L53.35 30L53.35 29.95L53.35 29.35L53.1 28.15Q52.15 25.35 49.45 23.05L47.35 21.45Q48.65 22.05 49.9 22.3L51.75 22.55L51.95 22.55L55.25 22.05L55.3 22.05L55.55 21.9Q55.05 20.35 53.1 19.4Q49.6 17.95 46 18.15L44.45 18.35L45.85 17.75" fill="rgb(145,83,3)"/>
			<path d="M44.45,18.35L46 18.15Q49.6 17.95 53.1 19.4Q55.05 20.35 55.55 21.9L55.3 22.05L55.25 22.05L51.95 22.55L51.75 22.55L49.9 22.3Q48.65 22.05 47.35 21.45L49.45 23.05Q52.15 25.35 53.1 28.15L53.35 29.35L53.35 29.95L53.35 30L53.2 30.15L52.15 30.25Q51.45 30 50.9 29.65L50.8 29.6L49.65 28.9Q48.7 28.3 47.9 27.4L46.45 25.35L46.75 26.05L48 28.25Q48.8 29.35 50.05 30.1L50.05 30.15L50.2 30.25Q51.35 32.85 51.35 35.65Q51.45 38.95 50.05 42.1Q48.3 45.4 45.4 47.15Q39.05 50.5 31.9 51Q23.35 51.45 16.25 47.6Q12.95 45.9 11.65 42.6Q10.3 39.65 10.6 36.1Q10.75 32.75 11.8 30.4Q11.95 30.25 12 30.25L12.1 30.25Q13.75 29.6 14.4 27.9L14.55 27.1L14 27.9L12.4 29.25L11.45 29.6L11.05 29.75Q9.6 30.25 8.1 29.75Q7.3 27.4 9.35 25.6Q10.3 24.7 11.6 23.95Q12.85 23.1 14.3 22.3Q12.95 22.9 11.45 23.1L9.75 23.1L9.35 23.1Q7 22.85 6.15 22.25Q6.15 20.8 8.55 19.8Q10.85 18.7 14.5 18.7Q15.75 18.55 17.15 18.7Q15.8 18.55 14.7 18.05L12.55 16.7L12.5 16.65L11.7 15.95Q10.75 14.7 11.6 14L11.6 13.9L12.1 13.65Q15.25 12.5 18.55 13.05Q21.25 13.5 23.7 14.7Q24.95 15.15 26.05 15.85L25.15 15.15L24.2 14.05Q23.5 13.3 23.1 12.25Q22.55 10.75 22.65 8.95L22.75 8.95L23.35 8.85Q24.6 8.85 27 10.3Q28.75 11.25 30 13.65L30.5 14.95L31 13.9Q32.45 10.75 35.65 9.2Q38.4 7.95 38.15 10.75Q37.95 12.4 37.25 13.9L36.2 15.3Q37 14.7 37.95 14.15Q40.3 12.85 43.2 12.4L47.4 12.25Q50.45 13.3 48.55 15.65Q47.35 17.05 45.85 17.75L44.45 18.35" fill="rgb(255,197,111)"/>
			<path d="M54.55,5.75L55 6.2L55.05 7.45L55 8.5L54.85 8.95L54.85 9.35L55 10.2L55.15 11.15Q55.55 13.05 55.55 14.8Q55.55 18.7 53.8 21.85L51.85 24.55L51.05 25.2L50.45 25.75L49.55 26.1L48.7 26.3L47.9 26.3L45 24.75L45 24.7L44.55 24.5Q42.05 22.9 40.3 21.05L38.8 19.1Q37.65 17.2 37.65 15.55L37.95 13.9Q37.95 13.65 38.5 13.15L39.05 12.55L44.15 8.8L45.55 7.95L49 6.4L52.3 4.3L52.95 4.1Q53.35 3.85 53.8 4.4L54 4.7L54.2 5.55Q54.35 5.55 54.55 5.75M52.9,5.4Q51.45 6.6 49.55 7.55L46.05 9.2L46 9.2L45.85 9.25L44.85 9.9Q41.65 12 39.2 14.3L38.95 15.55Q38.95 17.75 41.25 20.2Q43 22.05 45.7 23.55L44.75 22.3Q43.2 20.4 42.95 19.35L42.25 17.2Q42.1 16.3 42.25 15.55L42.25 15.4L42.35 15.4L42.35 15.3Q43.15 13.5 45.55 11.45L48.1 9.4L49.2 8.85L50.05 8.55L51.3 8.35L52.35 8.5L52.7 8.55L52.6 8.55L53.1 8.8L53.4 9.2L53.6 8.85L53.65 8.1L53.8 7.45L53.8 6.75L52.7 7.6L52.75 7.05L52.9 5.95L52.9 5.4M51.3,8.85Q50.5 8.85 49.45 9.35L49.4 9.35L48.3 9.8L47.35 10.35L47.3 10.45L46.25 11.25Q44.35 13.35 42.75 15.65L42.7 15.7L42.75 17.1L43.35 19.15L44.35 19.15Q45.85 19.15 47.3 17.5L48.25 15.4L48.55 14L48.4 15.4Q48.15 17.05 47.55 17.75L45.9 19.15Q45.1 19.7 44.4 19.7L46.05 20.2L47.3 20.35L47.05 20.4L46.65 20.5L44.8 20.1L43.5 19.5Q43.6 20 44.05 20.65L45 22.15L46.45 24.2L46.6 24.2L48.55 25.45L48.55 25.35L48.65 25.35L50.9 23.65L52.7 21.25Q54.25 18.35 54.25 14.8Q54.25 12.7 53.65 10.35L53.6 10.3L53.4 10.1Q53.35 9.5 52.8 9.2L52.5 8.95L51.3 8.85M23.5,19.5L21.9 21.45Q20.35 23.3 17.7 24.85L17.2 25.05L17.2 25.15L14.35 26.7L13.5 26.7L12.7 26.5L11.8 26.1Q11.2 25.75 11.2 25.6L10.35 24.95L8.45 22.3Q6.65 19.15 6.65 15.25Q6.65 13.45 7.05 11.55L7.3 10.6L7.45 9.75L7.45 9.35L7.3 8.95Q7.15 8.45 7.15 7.85Q7.05 7.3 7.3 6.6Q7.45 6.25 7.75 6.15L8.05 5.95Q8.1 5.35 8.3 5.1L8.45 4.8Q8.95 4.3 9.25 4.4Q9.7 4.4 9.95 4.7Q11.05 5.65 13.3 6.75L16.65 8.35L18.1 9.2L23.15 12.95L23.7 13.6L24.3 14.3L24.6 15.95Q24.6 17.65 23.5 19.5M23.3,15.95L23.1 14.7Q20.65 12.4 17.35 10.3L16.4 9.7L16.25 9.6L16.2 9.6L12.7 7.95Q10.75 7 9.35 5.8L9.35 6.25Q9.35 7.05 9.5 7.45L9.6 8.05L8.45 7.15L8.45 7.85L8.55 8.5L8.7 9.25L8.8 9.6Q8.95 9.25 9.2 9.2L9.7 8.95L9.9 8.95L11 8.8L12.25 8.95L13.05 9.25L14.15 9.8Q14.9 10.2 16.65 11.8Q19.1 13.9 19.9 15.7L19.9 15.8L20 15.85L20 15.95L19.95 17.65L19.35 19.7Q19 20.8 17.5 22.7L16.6 23.95Q19.15 22.45 21 20.6Q23.3 18.15 23.3 15.95M11,9.25L9.75 9.4L9.4 9.6Q8.85 9.9 8.8 10.45L8.7 10.75L8.55 10.75Q7.95 13.1 7.95 15.25Q7.95 18.7 9.6 21.65L11.35 24.1Q12.4 25.15 13.6 25.75L13.65 25.75L13.65 25.85L15.7 24.6L15.8 24.6L17.2 22.55L18.15 21.05L18.7 19.9L17.5 20.5L15.65 20.9L15.25 20.8L15 20.8L16.2 20.6L17.85 20.1Q17.1 20.1 16.3 19.6L14.75 18.15Q14.05 17.35 13.9 15.8L13.65 14.4L14 15.8Q14.4 17.3 14.95 17.95Q16.4 19.6 17.95 19.6L18.95 19.55L19.5 17.5L19.55 16.1L19.5 16Q17.95 13.75 16 11.65L14.95 10.85L14.9 10.75L13.9 10.2Q13.35 9.9 12.9 9.75L12.85 9.75Q11.7 9.25 11 9.25" fill="rgb(145,83,3)"/>
			<path d="M52.9,5.95L52.75 7.05L52.7 7.6L53.8 6.75L53.8 7.45L53.65 8.1L53.6 8.85L53.4 9.2L53.1 8.8L52.6 8.55L52.7 8.55L52.35 8.5L51.3 8.35L50.05 8.55L49.2 8.85L48.1 9.4L45.55 11.45Q43.15 13.5 42.35 15.3L42.35 15.4L42.25 15.4L42.25 15.55Q42.1 16.3 42.25 17.2L42.95 19.35Q43.2 20.4 44.75 22.3L45.7 23.55Q43 22.05 41.25 20.2Q38.95 17.75 38.95 15.55L39.2 14.3Q41.65 12 44.85 9.9L45.85 9.25L46 9.2L46.05 9.2L49.55 7.55Q51.45 6.6 52.9 5.4L52.9 5.95M21,20.6Q19.15 22.45 16.6 23.95L17.5 22.7Q19 20.8 19.35 19.7L19.95 17.65L20 15.95L20 15.85L19.9 15.8L19.9 15.7Q19.1 13.9 16.65 11.8Q14.9 10.2 14.15 9.8L13.05 9.25L12.25 8.95L11 8.8L9.9 8.95L9.7 8.95L9.2 9.2Q8.95 9.25 8.8 9.6L8.7 9.25L8.55 8.5L8.45 7.85L8.45 7.15L9.6 8.05L9.5 7.45Q9.35 7.05 9.35 6.25L9.35 5.8Q10.75 7 12.7 7.95L16.2 9.6L16.25 9.6L16.4 9.7L17.35 10.3Q20.65 12.4 23.1 14.7L23.3 15.95Q23.3 18.15 21 20.6" fill="rgb(231,141,31)"/>
			<path d="M52.5,8.95L52.8 9.2Q53.35 9.5 53.4 10.1L53.6 10.3L53.65 10.35Q54.25 12.7 54.25 14.8Q54.25 18.35 52.7 21.25L50.9 23.65L48.65 25.35L48.55 25.35L48.55 25.45L46.6 24.2L46.45 24.2L45 22.15L44.05 20.65Q43.6 20 43.5 19.5L44.8 20.1L46.65 20.5L47.05 20.4L47.3 20.35L46.05 20.2L44.4 19.7Q45.1 19.7 45.9 19.15L47.55 17.75Q48.15 17.05 48.4 15.4L48.55 14L48.25 15.4L47.3 17.5Q45.85 19.15 44.35 19.15L43.35 19.15L42.75 17.1L42.7 15.7L42.75 15.65Q44.35 13.35 46.25 11.25L47.3 10.45L47.35 10.35L48.3 9.8L49.4 9.35L49.45 9.35Q50.5 8.85 51.3 8.85L52.5 8.95M12.85,9.75L12.9 9.75Q13.35 9.9 13.9 10.2L14.9 10.75L14.95 10.85L16 11.65Q17.95 13.75 19.5 16L19.55 16.1L19.5 17.5L18.95 19.55L17.95 19.6Q16.4 19.6 14.95 17.95Q14.4 17.3 14 15.8L13.65 14.4L13.9 15.8Q14.05 17.35 14.75 18.15L16.3 19.6Q17.1 20.1 17.85 20.1L16.2 20.6L15 20.8L15.25 20.8L15.65 20.9L17.5 20.5L18.7 19.9L18.15 21.05L17.2 22.55L15.8 24.6L15.7 24.6L13.65 25.85L13.65 25.75L13.6 25.75Q12.4 25.15 11.35 24.1L9.6 21.65Q7.95 18.7 7.95 15.25Q7.95 13.1 8.55 10.75L8.7 10.75L8.8 10.45Q8.85 9.9 9.4 9.6L9.75 9.4L11 9.25Q11.7 9.25 12.85 9.75" fill="rgb(255,240,220)"/>
			<path d="M43.2,19.15L43.3 19L43.45 19L44.25 19.1L44.35 19.1Q45.8 19 47.15 17.5L48.1 15.4L48.1 15.3L48.4 14L48.4 13.9L48.55 13.9Q48.65 13.75 48.8 13.9L48.8 14.05L48.8 14.35L48.65 15.4Q48.3 17.05 47.7 17.9L46.05 19.35L44.95 19.8L46.1 20.1L47.3 20.2L47.4 20.2L47.5 20.35L47.15 20.65L46.65 20.65L44.75 20.35L44.35 20.1L44.25 20L43.75 19.8L43.6 19.9L43.45 19.8L42.9 19.3L42.8 19.15L42.8 19.1L42.9 19L43 19L43.15 19.1L43.2 19.15M44.25,19.55L44.4 19.55L45.85 19.1L46.65 18.45Q45.5 19.4 44.35 19.4L43.6 19.35L44.25 19.7L44.25 19.55M19.1,19.4L19.15 19.55L19.1 19.7L19 19.75L18.8 19.75L18.85 19.8L18.95 19.8L18.95 19.95L18.85 20L18.05 20.5L17.95 20.5L17.5 20.65L15.65 21.1L15.15 21.05L14.8 20.8L14.8 20.65L14.95 20.65L16.2 20.4L17.3 20.2L16.25 19.75Q15.4 19.3 14.6 18.3Q13.9 17.45 13.75 15.85L13.5 14.75L13.45 14.5L13.5 14.35L13.75 14.3L13.75 14.35L13.9 14.4L14.2 15.8Q14.55 17.2 15.1 17.9Q16.45 19.4 17.95 19.5L18.1 19.5L18.15 19.5L18.95 19.4L19 19.4L19.1 19.4M17.95,19.95L18.05 20.1Q18.3 19.95 18.7 19.75L18.25 19.8L18.1 19.75L17.95 19.8Q16.65 19.8 15.55 18.75L16.45 19.5L17.85 19.95L17.95 19.95" fill="rgb(146,83,0)"/>
			<path d="M43.3,19L43.2 19.15L43.15 19.1L43.3 19M44.25,19.7L43.6 19.35L44.35 19.4Q45.5 19.4 46.65 18.45L45.85 19.1L44.4 19.55L44.25 19.55L44.25 19.7M18.95,19.8L18.85 19.8L18.8 19.75L19 19.75L19.1 19.7L19.15 19.55L19.1 19.4L19 19.4L19.1 19.15L19.5 19.15L19.55 19.15L19.35 19.7L19.35 19.8L18.95 19.8M17.85,19.95L16.45 19.5L15.55 18.75Q16.65 19.8 17.95 19.8L18.1 19.75L18.25 19.8L18.7 19.75Q18.3 19.95 18.05 20.1L17.95 19.95L17.85 19.95" fill="rgb(145,83,3)"/>
		</g>
		<g transform="matrix(0.344391,0,0,0.344391,31.05,43.6)">
			<path d="M25.6,-11.65Q30.95 -13.1 31.55 -11.05Q31.85 -10.05 31.1 -8.75Q30.55 -7.65 29.2 -5.7Q26.55 -1.8 22.5 2.65Q6.55 16.1 -9.6 10.85Q-14.6 9.2 -19.05 5.9L-22.5 2.9L-26.25 -1.7Q-30.25 -6.9 -31.4 -9.7Q-32.55 -12.5 -28.65 -12.25Q-26.7 -12.15 -24.55 -11.45Q-8.55 -8.25 6.3 -8.9Q17.05 -9.35 25.6 -11.65" fill="rgb(51,51,51)"/>
			<path d="M6.3,-8.9Q-8.55 -8.25 -24.55 -11.45Q-26.7 -12.15 -28.65 -12.25Q-32.55 -12.5 -31.4 -9.7Q-30.25 -6.9 -26.25 -1.7L-22.5 2.9L-19.05 5.9Q-14.6 9.2 -9.6 10.85Q6.55 16.1 22.5 2.65Q26.55 -1.8 29.2 -5.7Q30.55 -7.65 31.1 -8.75Q31.85 -10.05 31.55 -11.05Q30.95 -13.1 25.6 -11.65Q17.05 -9.35 6.3 -8.9z" fill="none" stroke="rgb(51,51,51)" stroke-linecap="round" stroke-linejoin="round" stroke-miterlimit="3" stroke-width="2"/>
		</g>
		<g class="left-eye">
			<path d="M8.8,-9.35Q11.5 -7.75 11.45 -4.4Q11.45 -2.45 10.65 -0.65L3.25 10.25Q-6 5.4 -8.75 3.35Q-11.05 1.6 -11.4 -0.65Q-11.85 -3.3 -9.3 -6Q-7 -8.45 -3.45 -6.9Q-1.65 -6.1 -0.35 -4.85Q0.95 -7.85 3.2 -9.3Q5.9 -11.1 8.8 -9.35" fill="rgb(255,153,136)"/>
			<path d="M3.2,-9.3Q0.95 -7.85 -0.35 -4.85Q-1.65 -6.1 -3.45 -6.9Q-7 -8.45 -9.3 -6Q-11.85 -3.3 -11.4 -0.65Q-11.05 1.6 -8.75 3.35Q-6 5.4 3.25 10.25L10.65 -0.65Q11.45 -2.45 11.45 -4.4Q11.5 -7.75 8.8 -9.35Q5.9 -11.1 3.2 -9.3z" fill="none" stroke="rgb(142,40,14)" stroke-linecap="round" stroke-linejoin="round" stroke-miterlimit="3" stroke-width="2"/>
		</g>
		<g class="right-eye">
			<path d="M8.8,-9.35Q11.5 -7.75 11.45 -4.4Q11.45 -2.45 10.65 -0.65L3.25 10.25Q-6 5.4 -8.75 3.35Q-11.05 1.6 -11.4 -0.65Q-11.85 -3.3 -9.3 -6Q-7 -8.45 -3.45 -6.9Q-1.65 -6.1 -0.35 -4.85Q0.95 -7.85 3.2 -9.3Q5.9 -11.1 8.8 -9.35" fill="rgb(255,153,136)"/>
			<path d="M3.2,-9.3Q0.95 -7.85 -0.35 -4.85Q-1.65 -6.1 -3.45 -6.9Q-7 -8.45 -9.3 -6Q-11.85 -3.3 -11.4 -0.65Q-11.05 1.6 -8.75 3.35Q-6 5.4 3.25 10.25L10.65 -0.65Q11.45 -2.45 11.45 -4.4Q11.5 -7.75 8.8 -9.35Q5.9 -11.1 3.2 -9.3z" fill="none" stroke="rgb(142,40,14)" stroke-linecap="round" stroke-linejoin="round" stroke-miterlimit="3" stroke-width="2"/>
		</g>
	</g>
</svg>
