<svg xmlns="http://www.w3.org/2000/svg" width="30" height="29" viewBox="-14 -16 32 30"><g><defs><radialGradient cx="0" cy="0" fx="0" fy="0" gradientTransform="matrix(0.00999451, 0, 0, 0.00999451, -0.75, -1.75)" gradientUnits="userSpaceOnUse" r="819.2" spreadMethod="pad" tp="3" id="f41:0"><stop offset="0.5529411764705883" stop-color="rgb(250,228,96)"/><stop offset="1" stop-color="rgb(237,153,41)"/></radialGradient></defs></g><g id="0"><defs/><g><g type="shape" id="0:1:41"><defs/><g transform="matrix(1.5,0,0,1.50146,0,0)"><path d="M4.95,-4.95Q7 -2.9 7 0Q7 2.9 4.95 4.95Q2.9 7 0 7Q-2.9 7 -4.9 4.95Q-7 2.9 -7 0Q-7 -2.9 -4.9 -4.95Q-2.9 -7 0 -7Q2.9 -7 4.95 -4.95" fill="url(#f41:0)"/><path d="M4.95,-4.95Q7 -2.9 7 0Q7 2.9 4.95 4.95Q2.9 7 0 7Q-2.9 7 -4.9 4.95Q-7 2.9 -7 0Q-7 -2.9 -4.9 -4.95Q-2.9 -7 0 -7Q2.9 -7 4.95 -4.95z" stroke="rgb(194,119,16)" stroke-linecap="round" stroke-linejoin="round" stroke-miterlimit="3" stroke-width="1" fill="none"/></g></g><g type="shape" id="0:3:48"><defs/><g transform="matrix(1.5,0,0,1.50146,0,0)"><path d="M0.65,-1.75Q2.35 -3.25 3.65 -2.3M-1.15,-1.75Q-2.65 -3.15 -4.15 -2.45" stroke="rgb(194,119,16)" stroke-linecap="round" stroke-linejoin="round" stroke-miterlimit="3" stroke-width="1" fill="none"/><path d="M-1.25,0.45L-1.35 0.95Q-1.45 1.9 -0.9 2.5L-0.4 2.5L-0.2 2.2L0.15 0.6L0.25 0.45L2.25 0.45Q1.2 1.15 1.25 3.4Q1.3 5.1 -0.75 5.25Q-2.3 5.35 -2.75 3.7Q-3.15 2.05 -1.8 0.45L-1.25 0.45" fill="rgb(255,0,0)" fill-opacity="1"/><path d="M0.25,0.45L0.15 0.6L-0.2 2.2L-0.4 2.5L-0.9 2.5Q-1.45 1.9 -1.35 0.95L-1.25 0.45L0.25 0.45" fill="rgb(255,149,149)" fill-opacity="1"/><path d="M-1.25,0.45L0.25 0.45L2.25 0.45L4.1 0.45M-1.25,0.45L-1.8 0.45L-3.85 0.45" stroke="rgb(102,0,0)" stroke-linecap="round" stroke-linejoin="round" stroke-miterlimit="3" stroke-width="1" fill="none"/><path d="M2.25,0.45Q1.2 1.15 1.25 3.4Q1.3 5.1 -0.75 5.25Q-2.3 5.35 -2.75 3.7Q-3.15 2.05 -1.8 0.45" stroke="rgb(102,0,0)" stroke-linecap="round" stroke-linejoin="round" stroke-miterlimit="3" stroke-width="0.7" fill="none"/></g></g></g></g></svg>
