<svg xmlns="http://www.w3.org/2000/svg" width="30" height="29" viewBox="-14 -16 32 30"><g><defs><radialGradient cx="0" cy="0" fx="0" fy="0" gradientTransform="matrix(0.00999451, 0, 0, 0.00999451, -0.75, -1.75)" gradientUnits="userSpaceOnUse" r="819.2" spreadMethod="pad" tp="3" id="f41:0"><stop offset="0.5529411764705883" stop-color="rgb(250,228,96)"/><stop offset="1" stop-color="rgb(237,153,41)"/></radialGradient></defs></g><g id="0"><defs/><g><g type="shape" id="0:1:81"><defs/><g transform="matrix(1,0,0,1,0,0)"><path d="M4.65,-7.15L8.65 -8.45L7.15 -4.6L4.65 -7.15M-1.8,-8.35L0.1 -12.15L1.8 -8.35L-1.8 -8.35M-8.35,1.8L-12.15 -0.1L-8.35 -1.8L-8.35 1.8M-4.6,-7.15L-7.15 -4.6L-8.45 -8.65L-4.6 -7.15M-4.65,7.2L-8.7 8.55L-7.2 4.65L-4.65 7.2M1.8,8.35L-0.1 12.15L-1.8 8.35L1.8 8.35M7.2,4.7L8.55 8.7L4.65 7.2L7.2 4.7M8.35,-1.8L12.15 0.1L8.35 1.8L8.35 -1.8" fill="rgb(250,228,96)" fill-opacity="1"/><path d="M4.65,-7.15L8.65 -8.45L7.15 -4.6M-1.8,-8.35L0.1 -12.15L1.8 -8.35M-8.35,1.8L-12.15 -0.1L-8.35 -1.8M-7.15,-4.6L-8.45 -8.65L-4.6 -7.15M-4.65,7.2L-8.7 8.55L-7.2 4.65M1.8,8.35L-0.1 12.15L-1.8 8.35M7.2,4.7L8.55 8.7L4.65 7.2M8.35,-1.8L12.15 0.1L8.35 1.8" stroke="rgb(194,119,16)" stroke-linecap="round" stroke-linejoin="round" stroke-miterlimit="3" stroke-width="1" fill="none"/></g></g><g type="shape" id="0:2:41"><defs/><g transform="matrix(1.09998,0,0,1.09998,0,0)"><path d="M4.95,-4.95Q7 -2.9 7 0Q7 2.9 4.95 4.95Q2.9 7 0 7Q-2.9 7 -4.9 4.95Q-7 2.9 -7 0Q-7 -2.9 -4.9 -4.95Q-2.9 -7 0 -7Q2.9 -7 4.95 -4.95" fill="url(#f41:0)"/><path d="M4.95,-4.95Q7 -2.9 7 0Q7 2.9 4.95 4.95Q2.9 7 0 7Q-2.9 7 -4.9 4.95Q-7 2.9 -7 0Q-7 -2.9 -4.9 -4.95Q-2.9 -7 0 -7Q2.9 -7 4.95 -4.95z" stroke="rgb(194,119,16)" stroke-linecap="round" stroke-linejoin="round" stroke-miterlimit="3" stroke-width="1" fill="none"/></g></g></g></g></svg>
