<svg xmlns="http://www.w3.org/2000/svg" width="30" height="29" viewBox="-14 -16 32 30"><g><defs><radialGradient cx="0" cy="0" fx="0" fy="0" gradientTransform="matrix(0.00999451, 0, 0, 0.00999451, -0.75, -1.75)" gradientUnits="userSpaceOnUse" r="819.2" spreadMethod="pad" tp="3" id="f41:0"><stop offset="0.5529411764705883" stop-color="rgb(250,228,96)"/><stop offset="1" stop-color="rgb(237,153,41)"/></radialGradient></defs></g><g id="0"><defs/><g><g type="shape" id="0:1:41"><defs/><g transform="matrix(1.5,0,0,1.50146,0,0)"><path d="M4.95,-4.95Q7 -2.9 7 0Q7 2.9 4.95 4.95Q2.9 7 0 7Q-2.9 7 -4.9 4.95Q-7 2.9 -7 0Q-7 -2.9 -4.9 -4.95Q-2.9 -7 0 -7Q2.9 -7 4.95 -4.95" fill="url(#f41:0)"/><path d="M4.95,-4.95Q7 -2.9 7 0Q7 2.9 4.95 4.95Q2.9 7 0 7Q-2.9 7 -4.9 4.95Q-7 2.9 -7 0Q-7 -2.9 -4.9 -4.95Q-2.9 -7 0 -7Q2.9 -7 4.95 -4.95z" stroke="rgb(194,119,16)" stroke-linecap="round" stroke-linejoin="round" stroke-miterlimit="3" stroke-width="1" fill="none"/></g></g><g type="shape" id="0:2:47"><defs/><g transform="matrix(1.5,0,0,1.50146,0,0)"><path d="M2.5,-5Q3.2 -4.8 3.5 -3.8Q3.8 -2.85 3.5 -1.65Q3.15 -0.4 2.4 0.3Q1.65 1 0.95 0.8Q0.25 0.6 -0.05 -0.2Q-0.35 0.6 -1 0.8Q-1.75 1 -2.5 0.3Q-3.25 -0.4 -3.6 -1.65Q-3.9 -2.85 -3.6 -3.8Q-3.3 -4.8 -2.6 -5Q-1.85 -5.2 -1.1 -4.45Q-0.4 -3.8 -0.05 -2.7Q0.3 -3.8 1 -4.45Q1.75 -5.2 2.5 -5" fill="rgb(255,255,255)" fill-opacity="1"/><path d="M2.5,-5Q3.2 -4.8 3.5 -3.8Q3.8 -2.85 3.5 -1.65Q3.15 -0.4 2.4 0.3Q1.65 1 0.95 0.8Q0.25 0.6 -0.05 -0.2Q-0.35 0.6 -1 0.8Q-1.75 1 -2.5 0.3Q-3.25 -0.4 -3.6 -1.65Q-3.9 -2.85 -3.6 -3.8Q-3.3 -4.8 -2.6 -5Q-1.85 -5.2 -1.1 -4.45Q-0.4 -3.8 -0.05 -2.7Q0.3 -3.8 1 -4.45Q1.75 -5.2 2.5 -5z" stroke="rgb(194,119,16)" stroke-linecap="round" stroke-linejoin="round" stroke-miterlimit="3" stroke-width="0.75" fill="none"/></g></g><g type="shape" id="0:3:43"><defs/><g transform="matrix(1.00002,0,0,1.00099,0.75,-5.35)"><path d="M0.6,4.6Q0.15 4.15 0.15 3.55Q0.15 2.95 0.6 2.5Q1.05 2.05 1.65 2.05Q2.25 2.05 2.7 2.5Q3.15 2.95 3.15 3.55L2.7 4.6Q2.25 5.05 1.65 5.05Q1.05 5.05 0.6 4.6" fill="rgb(0,0,0)" fill-opacity="1"/></g></g><g type="shape" id="0:4:43"><defs/><g transform="matrix(1.00002,0,0,1.00099,-4.05,-5.35)"><path d="M0.6,4.6Q0.15 4.15 0.15 3.55Q0.15 2.95 0.6 2.5Q1.05 2.05 1.65 2.05Q2.25 2.05 2.7 2.5Q3.15 2.95 3.15 3.55L2.7 4.6Q2.25 5.05 1.65 5.05Q1.05 5.05 0.6 4.6" fill="rgb(0,0,0)" fill-opacity="1"/></g></g><g type="shape" id="0:5:43"><defs/><g transform="matrix(1.5,0,0,1.50146,0,0)"><path d="M0.6,4.6Q0.15 4.15 0.15 3.55Q0.15 2.95 0.6 2.5Q1.05 2.05 1.65 2.05Q2.25 2.05 2.7 2.5Q3.15 2.95 3.15 3.55L2.7 4.6Q2.25 5.05 1.65 5.05Q1.05 5.05 0.6 4.6" fill="rgb(0,0,0)" fill-opacity="1"/></g></g></g></g></svg>
