<svg xmlns="http://www.w3.org/2000/svg" width="30" height="29" viewBox="-14 -16 32 30"><g><defs/></g><g id="0"><defs/><g><g type="shape" id="0:1:76"><defs/><g transform="matrix(1,0,0,1,0.7,0.65)"><path d="M-1.05,-3.6L-1.75 -8.8L4.95 -10.05L5.7 -4.85L-1.05 -3.6M0.1,4.9L0.2 5.15Q0.45 6.15 -0.4 7.2Q-1.25 8.25 -2.7 8.65L-5.45 8.55Q-6.7 8.1 -6.95 7.05Q-7.25 6 -6.4 5Q-5.55 3.95 -4.05 3.55L-1.35 3.65Q-0.25 4.05 0.1 4.9" fill="rgb(0,153,0)" fill-opacity="1"/><path d="M-1.05,-3.6L-1.75 -8.8L4.95 -10.05L5.7 -4.85L-1.05 -3.6L0.1 4.9L0.2 5.15Q0.45 6.15 -0.4 7.2Q-1.25 8.25 -2.7 8.65L-5.45 8.55Q-6.7 8.1 -6.95 7.05Q-7.25 6 -6.4 5Q-5.55 3.95 -4.05 3.55L-1.35 3.65Q-0.25 4.05 0.1 4.9" stroke="rgb(0,102,0)" stroke-linecap="round" stroke-linejoin="round" stroke-miterlimit="3" stroke-width="2" fill="none"/></g></g></g></g></svg>
