<svg xmlns="http://www.w3.org/2000/svg" width="30" height="29" viewBox="-14 -16 32 30"><g><defs><radialGradient cx="0" cy="0" fx="0" fy="0" gradientTransform="matrix(0.00538635, 0.00538635, 0.00808716, -0.00808716, 6.3, 4.5)" gradientUnits="userSpaceOnUse" r="819.2" spreadMethod="pad" tp="3" id="f103:1"><stop offset="0.5529411764705883" stop-color="rgb(252,13,27)"/><stop offset="1" stop-color="rgb(151,4,12)"/></radialGradient></defs></g><g id="0"><defs/><g><g type="sprite" id="0:1:104"><defs/><g transform="matrix(1.34998,0,0,1.34998,-10.25,-9.65)"><g type="shape" id="0:1:104:2:103"><defs/><g transform="matrix(1,0,0,1,0,0)"><path d="M12.9,2.55Q11.95 1.7 10.8 1.7Q9.6 1.7 8.75 2.55L8.35 3Q7.9 3.6 7.9 4.55L7.65 5.15L7.05 5.4Q6.2 5.4 6.2 4.55Q6.2 3.45 6.65 2.55Q5.85 1.85 4.6 1.75Q3.4 1.75 2.6 2.6Q1.8 3.35 1.7 4.55Q1.65 5.9 2.3 7.1L4.05 9.75L6.1 12L7.35 13.05Q8.15 10.65 10.9 8.6Q13.6 6.55 13.75 4.45Q13.85 3.4 12.9 2.55M14.1,1.3Q15.6 2.8 15.45 4.6Q15.25 7.45 11.9 10Q9.1 12 8.65 14.7Q8.55 15.25 8.15 15.4L7.8 15.45Q7.45 15.45 7.25 15.25L4.9 13.25L2.7 10.8L0.9 8Q-0.1 6.4 0 4.5Q0.1 2.6 1.4 1.35Q2.7 0.05 4.65 0.05Q6.4 0.15 7.7 1.2Q9 0 10.8 0Q12.65 0 14.1 1.3M13.5,4.45Q13.35 6.4 10.75 8.4Q8.15 10.3 7.2 12.65L6.25 11.8L4.25 9.6L2.55 6.95Q1.9 5.85 1.95 4.55Q2.05 3.45 2.75 2.75Q3.5 2 4.6 2Q5.6 2.05 6.35 2.6Q5.95 3.4 5.95 4.55Q5.95 5 6.3 5.35L7.05 5.65L7.85 5.35L8.15 4.55Q8.15 3.7 8.55 3.15L8.95 2.7Q9.7 1.95 10.8 1.95Q11.95 1.95 12.75 2.7Q13.6 3.55 13.5 4.45" fill="rgb(101,2,5)" fill-opacity="1"/><path d="M13.25,2.2Q14.35 3.2 14.25 4.5Q14.1 6.85 11.2 9Q8.3 11.1 7.6 13.95L5.75 12.35L3.65 10.05L1.9 7.35Q1.1 6.05 1.2 4.55Q1.3 3.1 2.25 2.25Q3.2 1.25 4.6 1.25Q6.05 1.35 7 2.2L7.25 2.45Q6.7 3.45 6.7 4.55Q6.7 4.9 7.05 4.9L7.4 4.55Q7.4 3.5 8 2.65L8.4 2.2Q9.35 1.2 10.8 1.2Q12.15 1.2 13.25 2.2" fill="url(#f103:1)"/><path d="M10.8,1.2Q9.35 1.2 8.4 2.2L8 2.65Q7.4 3.5 7.4 4.55L7.05 4.9Q6.7 4.9 6.7 4.55Q6.7 3.45 7.25 2.45L7 2.2Q6.05 1.35 4.6 1.25Q3.2 1.25 2.25 2.25Q1.3 3.1 1.2 4.55Q1.1 6.05 1.9 7.35L3.65 10.05L5.75 12.35L7.6 13.95Q8.3 11.1 11.2 9Q14.1 6.85 14.25 4.5Q14.35 3.2 13.25 2.2Q12.15 1.2 10.8 1.2M14.95,4.55Q14.75 7.2 11.6 9.6Q8.6 11.7 8.15 14.65L7.95 14.95L7.8 14.95L7.6 14.85L5.25 12.85L3.1 10.45L1.3 7.7Q0.4 6.25 0.5 4.5Q0.6 2.85 1.75 1.75Q2.9 0.55 4.65 0.55Q6.35 0.65 7.45 1.65L7.7 1.9L7.9 1.7Q9.1 0.5 10.8 0.5Q12.45 0.5 13.75 1.65Q15.05 3 14.95 4.55" fill="rgb(101,2,5)" fill-opacity="1"/></g></g></g></g></g></g></svg>
