<svg xmlns="http://www.w3.org/2000/svg" width="30" height="29" viewBox="-14 -16 32 30"><g><defs><linearGradient gradientTransform="matrix(-0.00440979, 0.0083313, 0.0083313, 0.00440979, 7.9, 7.05)" gradientUnits="userSpaceOnUse" spreadMethod="pad" tp="2" x1="-819.2" x2="819.2" y1="0" y2="0" id="f109:2"><stop offset="0" stop-color="rgb(253,188,51)"/><stop offset="1" stop-color="rgb(254,228,59)"/></linearGradient></defs></g><g id="0"><defs/><g><g type="sprite" id="0:1:110"><defs/><g transform="matrix(1.34998,0,0,1.34998,-13.75,-12.9)"><g type="shape" id="0:1:110:1:109"><defs/><g transform="matrix(1,0,0,1,0,0)"><path d="M14.25,0.6Q14.95 0.7 15.1 1.3L16.6 6L16.55 6.75L16.5 6.8L15.9 7.3L11.2 8.65Q10.6 8.85 10.15 8.3Q9.75 7.85 10.05 7.2L10.4 6.6L8.05 5.4L7 5.45Q6.15 5.7 5.75 6.2L5.45 6.6Q4.9 7.65 5.25 8.8Q5.6 9.95 6.7 10.5Q7.2 10.85 7.2 11.4L6.4 13.3L5.55 14.75L4.95 15.15L4.3 15Q1.4 13.45 0.4 10.3Q-0.6 7.15 0.95 4.2Q2.55 1.25 5.55 0.35Q8.55 -0.55 11.45 1L12.95 1.8L13.25 1.15Q13.55 0.6 14.25 0.6M13.35,3.15L11 1.9Q8.4 0.5 5.8 1.3Q3.2 2.1 1.85 4.7Q0.5 7.25 1.35 10.05Q2.2 12.8 4.75 14.15L6.2 11.4Q4.75 10.65 4.3 9.1Q3.8 7.55 4.6 6.1L4.95 5.55Q5.6 4.8 6.8 4.5Q7.9 4.2 8.55 4.5L11.75 6.15L10.95 7.65L15.65 6.35L15.65 6.3L14.15 1.6L13.35 3.15" fill="rgb(144,89,23)" fill-opacity="1"/><path d="M20.3,13.6Q20.05 14.6 19.25 15.35L19.6 16.1Q19.6 16.75 18.55 17.25L17.3 17.5L17.2 17.5L17.25 18.25L16.85 18.7L16 18.9L15.4 18.8Q14.7 18.65 14.25 17.9Q13.65 18.65 12.8 18.8L12.35 18.85L11.45 18.5Q11.15 18.2 11.2 17.65L11.2 17.6Q9.45 17.55 9 16.35L9 15.8L9.45 15.3Q8.9 14.6 8.85 13.5Q8.85 12.95 9.3 12.7L9.8 12.6L9.8 12.5Q9.9 10.6 11.5 9.75Q12.65 9.05 14.4 9.05L14.75 9.05Q17.75 9.3 18.75 11.1L19.25 12.6L19.4 12.55Q20 12.55 20.25 13.15L20.3 13.6M18.4,13.3L18.5 12.95Q18.5 12.1 18.1 11.5Q17.2 10 14.75 9.85Q13 9.8 11.85 10.4Q10.7 11.1 10.55 12.55Q10.55 13.35 10.8 13.85Q10.1 13.25 9.65 13.45Q9.8 15.35 11.25 15.4L11.4 15.45L11.05 15.5L10.3 15.75L9.75 16.1Q10 16.8 11.3 16.8Q12.3 16.8 13.2 16.05L12.35 17.1L11.95 17.75Q11.95 18.2 12.7 18.05Q13.55 17.9 14.05 16.7L14.45 15.95L14.65 16.9Q14.95 17.9 15.55 18.05L16.5 18L16.3 17.45L16 16.85L15.15 15.9Q15.7 16.3 16.35 16.55L17.3 16.7L18.25 16.5L18.8 16.1Q18.8 15.9 17.9 15.65L16.8 15.55Q18.05 15.45 18.7 14.8L19.55 13.45L19.2 13.4L18.8 13.5L18.3 13.95L18.25 13.95L18.4 13.55L18.4 13.3" fill="rgb(14,110,140)" fill-opacity="1"/><path d="M14.15,1.6L15.65 6.3L15.65 6.35L10.95 7.65L11.75 6.15L8.55 4.5Q7.9 4.2 6.8 4.5Q5.6 4.8 4.95 5.55L4.6 6.1Q3.8 7.55 4.3 9.1Q4.75 10.65 6.2 11.4L4.75 14.15Q2.2 12.8 1.35 10.05Q0.5 7.25 1.85 4.7Q3.2 2.1 5.8 1.3Q8.4 0.5 11 1.9L13.35 3.15L14.15 1.6" fill="url(#f109:2)"/><path d="M18.4,13.55L18.25 13.95L18.3 13.95L18.8 13.5L19.2 13.4L19.55 13.45L18.7 14.8Q18.05 15.45 16.8 15.55L17.9 15.65Q18.8 15.9 18.8 16.1L18.25 16.5L17.3 16.7L16.35 16.55Q15.7 16.3 15.15 15.9L16 16.85L16.3 17.45L16.5 18L15.55 18.05Q14.95 17.9 14.65 16.9L14.45 15.95L14.05 16.7Q13.55 17.9 12.7 18.05Q11.95 18.2 11.95 17.75L12.35 17.1L13.2 16.05Q12.3 16.8 11.3 16.8Q10 16.8 9.75 16.1L10.3 15.75L11.05 15.5L11.4 15.45L11.25 15.4Q9.8 15.35 9.65 13.45Q10.1 13.25 10.8 13.85L11.4 14.5L11.45 14.5Q10.85 13.75 10.9 12.75Q11 11.45 12.15 10.8Q13.15 10.15 14.9 10.25Q16.5 10.3 17.5 11.1Q18.5 11.95 18.4 13.25L18.4 13.3L18.4 13.55" fill="rgb(99,223,253)" fill-opacity="1"/><path d="M10.55,12.55Q10.7 11.1 11.85 10.4Q13 9.8 14.75 9.85Q17.2 10 18.1 11.5Q18.5 12.1 18.5 12.95L18.4 13.3L18.4 13.25Q18.5 11.95 17.5 11.1Q16.5 10.3 14.9 10.25Q13.15 10.15 12.15 10.8Q11 11.45 10.9 12.75Q10.85 13.75 11.45 14.5L11.4 14.5L10.8 13.85Q10.55 13.35 10.55 12.55" fill="rgb(35,155,244)" fill-opacity="1"/></g></g></g></g></g></g></svg>
