<svg xmlns="http://www.w3.org/2000/svg" width="30" height="29" viewBox="-14 -16 32 30"><g><defs><linearGradient gradientTransform="matrix(0, -0.00444031, -0.00444031, 0, 8, 4.65)" gradientUnits="userSpaceOnUse" spreadMethod="pad" tp="2" x1="-819.2" x2="819.2" y1="0" y2="0" id="f107:1"><stop offset="0" stop-color="rgb(253,188,51)"/><stop offset="1" stop-color="rgb(254,228,59)"/></linearGradient></defs></g><g id="0"><defs/><g><g type="sprite" id="0:1:108"><defs/><g transform="matrix(1.34998,0,0,1.34998,-10.8,-6.35)"><g type="shape" id="0:1:108:1:107"><defs/><g transform="matrix(1,0,0,1,0,0)"><path d="M12.95,0.5Q13.2 0.1 13.75 0.1L13.95 0.1Q14.55 0.2 14.75 0.85L16.05 7L15.9 7.8L15.25 8.2L9.1 9.25L8.95 9.25Q8.4 9.25 8.1 8.8Q7.75 8.3 8.1 7.7L8.6 7Q7.1 6.2 5.55 5.8L3.7 5.5Q2.4 5.5 1.8 6.35Q1.5 6.8 0.95 6.8L0.4 6.6Q0.05 6.4 0 6Q-0.05 5.6 0.15 5.25L2.05 2.35Q3.6 0 6.7 0L8.2 0.1Q10.1 0.4 12.35 1.45L12.95 0.5M12.7,2.7Q10.1 1.4 8.05 1.1Q4.45 0.5 2.9 2.9L1 5.7Q2.35 3.85 5.8 4.85Q7.9 5.4 10 6.7L8.95 8.25L15.1 7.25L13.75 1.1L12.7 2.7" fill="rgb(144,89,23)" fill-opacity="1"/><path d="M13.75,1.1L15.1 7.25L8.95 8.25L10 6.7Q7.9 5.4 5.8 4.85Q2.35 3.85 1 5.7L2.9 2.9Q4.45 0.5 8.05 1.1Q10.1 1.4 12.7 2.7L13.75 1.1" fill="url(#f107:1)"/></g></g></g></g></g></g></svg>
