<svg xmlns="http://www.w3.org/2000/svg" width="30" height="29" viewBox="-14 -16 32 30"><g><defs><linearGradient gradientTransform="matrix(0, -0.0115051, -0.0115051, 0, 7.05, 10.45)" gradientUnits="userSpaceOnUse" spreadMethod="pad" tp="2" x1="-819.2" x2="819.2" y1="0" y2="0" id="f113:1"><stop offset="0" stop-color="rgb(253,188,51)"/><stop offset="1" stop-color="rgb(254,228,59)"/></linearGradient></defs></g><g id="0"><defs/><g><g type="sprite" id="0:1:114"><defs/><g transform="matrix(1.34998,0,0,1.34998,-8.6,-14.1)"><g type="shape" id="0:1:114:2:113"><defs/><g transform="matrix(1,0,0,1,0,0)"><path d="M10.95,5.95Q10.7 6.6 10 6.6L8.95 6.6L8.95 8.2Q11.85 8.35 13.4 10.35Q14.35 11.65 14.1 13.35Q13.85 14.85 12.8 16Q11.45 17.45 9.4 17.45L8.85 17.45L8.85 19.85L8.55 20.6L7.85 20.85L3.1 20.85Q2.1 20.85 2.1 19.85L2.1 14.7Q2.1 13.65 2.55 12.85Q2.1 12.15 2.1 11.1L2.05 6.6L1 6.6Q0.3 6.6 0.05 6Q-0.15 5.4 0.25 4.9L4.85 0.3Q5.15 0 5.55 0Q5.95 0 6.25 0.3L10.75 4.9Q11.2 5.35 10.95 5.95" fill="rgb(144,89,23)" fill-opacity="1"/><path d="M3.05,5.6L1 5.6L5.55 1L10 5.6L7.95 5.6L7.95 9.25Q11 8.9 12.6 10.95Q13.3 11.9 13.1 13.2Q12.95 14.4 12.1 15.3Q10.45 17.1 7.85 16.2L7.85 19.85L3.1 19.85L3.1 14.7Q3.1 14.1 3.4 13.35L3.7 12.75Q3.1 12.3 3.1 11.05L3.05 5.6M8.25,13.75L9.9 13.8L10.45 13Q10.6 12.45 10.15 12.15Q8.9 11.25 7.75 11.95L7.15 12.4Q7.4 13.25 8.25 13.75" fill="url(#f113:1)"/></g></g></g></g></g></g></svg>
