<svg xmlns="http://www.w3.org/2000/svg" width="30" height="29" viewBox="-14 -16 32 30"><g><defs><linearGradient gradientTransform="matrix(0, -0.00942993, -0.00942993, 0, 8.05, 8.75)" gradientUnits="userSpaceOnUse" spreadMethod="pad" tp="2" x1="-819.2" x2="819.2" y1="0" y2="0" id="f111:1"><stop offset="0" stop-color="rgb(253,188,51)"/><stop offset="1" stop-color="rgb(254,228,59)"/></linearGradient></defs></g><g id="0"><defs/><g><g type="sprite" id="0:1:112"><defs/><g transform="matrix(1.34998,0,0,1.34998,-10.7,-10.8)"><g type="shape" id="0:1:112:1:111"><defs/><g transform="matrix(1,0,0,1,0,0)"><path d="M16.05,8Q16.05 11.35 13.8 13.55Q11.6 15.75 8.25 15.75L6.6 15.75L6.6 16.5Q6.6 17.15 5.95 17.4L5.6 17.5Q5.2 17.5 4.9 17.2L1.35 13.75Q1.05 13.45 1.05 13.05Q1.05 12.55 1.35 12.3L1.5 12.15L0.9 11.65Q0 9.95 0 8Q0 4.7 2.35 2.35Q4.7 0 8.05 0Q11.35 0 13.7 2.35Q16.05 4.7 16.05 8M10.95,8Q10.95 6.8 10.1 5.95Q9.25 5.1 8.05 5.1Q6.8 5.1 5.95 5.95Q5.1 6.8 5.1 8L5.15 8.6L5.2 8.7L5.6 8.65L6 8.7Q6.6 9.05 6.6 9.65L6.6 10.3L9.2 10.3Q9.5 10.3 10.1 9.75L10.9 8.5L10.95 8M11.95,8L11.85 8.7Q11.65 9.65 10.75 10.5Q9.9 11.3 9.2 11.3L5.55 11.35L5.6 9.65L2.05 13L2.05 13.05L5.6 16.5L5.6 14.75L8.25 14.75Q11.15 14.75 13.1 12.85Q15.05 10.9 15.05 8Q15.05 5.1 13 3.05Q10.95 1 8.05 1Q5.15 1 3.05 3.05Q1 5.1 1 8Q1 9.7 1.8 11.2L4.2 8.8L4.1 8Q4.1 6.4 5.25 5.25Q6.4 4.1 8.05 4.1Q9.65 4.1 10.8 5.25Q11.95 6.4 11.95 8" fill="rgb(144,89,23)" fill-opacity="1"/><path d="M10.8,5.25Q9.65 4.1 8.05 4.1Q6.4 4.1 5.25 5.25Q4.1 6.4 4.1 8L4.2 8.8L1.8 11.2Q1 9.7 1 8Q1 5.1 3.05 3.05Q5.15 1 8.05 1Q10.95 1 13 3.05Q15.05 5.1 15.05 8Q15.05 10.9 13.1 12.85Q11.15 14.75 8.25 14.75L5.6 14.75L5.6 16.5L2.05 13.05L2.05 13L5.6 9.65L5.55 11.35L9.2 11.3Q9.9 11.3 10.75 10.5Q11.65 9.65 11.85 8.7L11.95 8Q11.95 6.4 10.8 5.25" fill="url(#f111:1)"/></g></g></g></g></g></g></svg>
