<svg xmlns="http://www.w3.org/2000/svg" width="30" height="29" viewBox="-14 -16 32 30"><g><defs/></g><g id="0"><defs/><g><g type="sprite" id="0:1:102"><defs/><g transform="matrix(0.00646973,0.416077,-0.416077,0.00646973,-0.45,0.35)"><g type="shape" id="0:1:102:2:101"><defs/><g transform="matrix(1,0,0,1,0,0)"><path d="M2.2,-31.15L2.2 -30.85L1.6 -31.25L-0.1 -31.55L-1.65 -31.35L-3.9 -31.15Q-4.5 -32.05 -5.75 -31.7Q-7 -31.45 -7.1 -30.45L-7.45 -30.85L-7.9 -30.9Q-9.45 -30.25 -9.8 -28.8L-10.3 -29Q-11.15 -28.9 -11.5 -27.85L-11.7 -26.8L-13.15 -26.75Q-14.45 -26 -14.3 -24.65L-14.75 -24.75Q-15.3 -24.75 -15.6 -24.15L-15.95 -22.55L-16 -22.65L-16.8 -23.3L-17.2 -23.25L-16.45 -22.1L-16.05 -21.6L-16.6 -21.15Q-17.45 -21.75 -18 -21.55L-17.95 -21.15L-17 -20.85L-16.95 -20.8L-18.6 -19.5Q-20.35 -18.2 -19.9 -16.35L-19.2 -13.55Q-18.95 -12.1 -19.2 -10.75L-19.25 -10.2L-20.5 -10L-20.45 -9.7L-19.7 -9.6L-19.25 -9.7L-18.85 -8.25L-18.9 -8.05Q-19.55 -6.2 -19.1 -4.65Q-18.75 -3.2 -17.55 -2.6Q-17.6 -1.05 -17.05 0Q-16.55 0.85 -15.45 1.15L-13.95 1.2L-13.95 1.3L-13.5 2.75L-14.7 4.25L-14.45 4.5L-13.5 3.65L-13.1 3.15L-12.4 3.45L-12.3 3.95L-12.75 4.9L-13.25 6.45L-13.15 6.65L-12.95 6.6L-12.4 5.4L-12.1 4.6Q-11.5 5.65 -9.9 5.2L-9.75 5.6L-8.75 6.25L-7.55 5.9L-7.5 5.9L-7.4 6.1Q-6.55 7.5 -4.85 6.85Q-4.45 7.4 -3.65 7.35Q-2.8 7.3 -2.3 6.65L-1.8 7.25L0.05 7.3L0.15 7.2Q0.7 7.85 1.3 7.5L2 6.75L2.1 6.6L2.85 6.75L2.9 9.1Q1.85 9.5 1.8 10L2.05 10.15L2.9 9.8L2.95 9.8Q3.1 11.7 2.9 12.65Q2.65 13.9 1.55 15.6L-0.3 18.3Q-1.25 20 -1.15 21.9Q-1 24.05 0.55 25.05L4.7 26.55Q7.3 27.45 7.45 29.3L7.9 31.95Q8.35 32.8 9.3 32.7L9.6 32.8L10.15 32.6L10.3 32.45L10.35 32.35L10.75 31.1L10.65 28.85Q10.2 25.45 6.05 24.05L4.7 23.6L5.4 22.95L5.35 22.85L5.1 22.75Q4.9 22.75 4.3 23.1L4 23.3L3.75 23.2L3.3 23L3.5 22.9L3.8 22.5L3.55 22.2Q3.5 22.2 3.05 22.55L2.75 22.75L1.65 21.95Q0.75 21.1 2.15 18.85L4.2 15.85Q5.55 13.6 5.75 12.05L5.6 9.05L5.35 6.35L5.55 6.15L6 5.4L7.7 5.25Q8.55 4.75 9 3.85L9.8 3.95Q10.3 5.65 10.7 5.65L10.9 5.55L10.95 5.45L10.6 4.2L10.4 3.75L11.15 3.15Q11.45 3.25 11.85 3.65Q12.2 4 12.55 4L12.8 3.75L11.4 2.8L11.8 1.9L12.05 1.85L12.75 2.3L13.6 2.6L13.75 2.5L12.75 1.6Q13.45 1.2 13.85 0.4Q14.4 -0.6 14.3 -1.8Q15.8 -2.9 17.15 -5Q18.25 -6.65 18.65 -8.05L18.7 -8.05L19.95 -8.25L20.45 -8.5L20.35 -8.7L18.8 -8.75L18.85 -9.65L19 -9.85Q19.65 -11.4 19.25 -12.7L19.35 -12.85Q20.4 -14.75 19.2 -16.3L19.25 -16.35Q20.15 -17.9 18.9 -19.15Q19.4 -20.55 18 -21.5L17.9 -21.55L17.95 -21.75Q18 -23.15 16.35 -23.85L16.35 -24.05Q17.45 -24.4 17.9 -25.05L17.7 -25.25L16.65 -24.9L16.1 -24.6L16.05 -24.7L15.7 -25.15L16.05 -25.7L16.25 -26.55L16.2 -26.7L16.05 -26.75Q15.75 -26.65 15.2 -25.5L14.9 -25.65L13.45 -26.05L12.4 -26.25Q12.3 -27.4 11.65 -27.85L11.25 -28.1L9.1 -27.95Q9 -29 7.9 -29.4L6.2 -29.5Q6 -30.05 4.8 -30.1L4.6 -30.05L3.95 -30.1L4.35 -30.6L5 -31.5L4.8 -31.75L3.95 -30.9L3.3 -30.1L2.95 -30L2.9 -30.1L2.8 -30.25L2.8 -30.55L3.15 -32.55L3.1 -32.75L3 -32.75Q2.65 -32.7 2.4 -32.05L2.2 -31.15z" stroke="rgb(74,5,107)" stroke-linecap="round" stroke-linejoin="round" stroke-miterlimit="3" stroke-width="3" fill="none"/><path d="M3.1,-32.75L3.15 -32.55L2.8 -30.55L2.8 -30.25L2.9 -30.1L2.95 -30L3.3 -30.1L3.95 -30.9L4.8 -31.75L5 -31.5L4.35 -30.6L3.95 -30.1L4.6 -30.05L4.8 -30.1Q6 -30.05 6.2 -29.5L7.9 -29.4Q9 -29 9.1 -27.95L11.25 -28.1L11.65 -27.85Q12.3 -27.4 12.4 -26.25L13.45 -26.05L14.9 -25.65L15.2 -25.5Q15.75 -26.65 16.05 -26.75L16.2 -26.7L16.25 -26.55L16.05 -25.7L15.7 -25.15L16.05 -24.7L16.1 -24.6L16.65 -24.9L17.7 -25.25L17.9 -25.05Q17.45 -24.4 16.35 -24.05L16.35 -23.85Q18 -23.15 17.95 -21.75L17.9 -21.55L18 -21.5Q19.4 -20.55 18.9 -19.15Q20.15 -17.9 19.25 -16.35L19.2 -16.3Q20.4 -14.75 19.35 -12.85L19.25 -12.7Q19.65 -11.4 19 -9.85L18.85 -9.65L18.8 -8.75L20.35 -8.7L20.45 -8.5L19.95 -8.25L18.7 -8.05L18.65 -8.05Q18.25 -6.65 17.15 -5Q15.8 -2.9 14.3 -1.8Q14.4 -0.6 13.85 0.4Q13.45 1.2 12.75 1.6L13.75 2.5L13.6 2.6L12.75 2.3L12.05 1.85L11.8 1.9L11.4 2.8L12.8 3.75L12.55 4Q12.2 4 11.85 3.65Q11.45 3.25 11.15 3.15L10.4 3.75L10.6 4.2L10.95 5.45L10.9 5.55L10.7 5.65Q10.3 5.65 9.8 3.95L9 3.85Q8.55 4.75 7.7 5.25L6 5.4L5.55 6.15L5.35 6.35L5.6 9.05L5.75 12.05Q5.55 13.6 4.2 15.85L2.15 18.85Q0.75 21.1 1.65 21.95L2.75 22.75L3.05 22.55Q3.5 22.2 3.55 22.2L3.8 22.5L3.5 22.9L3.3 23L3.75 23.2L4 23.3L4.3 23.1Q4.9 22.75 5.1 22.75L5.35 22.85L5.4 22.95L4.7 23.6L6.05 24.05Q10.2 25.45 10.65 28.85L10.75 31.1L10.35 32.35L10.3 32.45L10.15 32.6L9.6 32.8L9.3 32.7Q8.35 32.8 7.9 31.95L7.45 29.3Q7.3 27.45 4.7 26.55L0.55 25.05Q-1 24.05 -1.15 21.9Q-1.25 20 -0.3 18.3L1.55 15.6Q2.65 13.9 2.9 12.65Q3.1 11.7 2.95 9.8L2.9 9.8L2.05 10.15L1.8 10Q1.85 9.5 2.9 9.1L2.85 6.75L2.1 6.6L2 6.75L1.3 7.5Q0.7 7.85 0.15 7.2L0.05 7.3L-1.8 7.25L-2.3 6.65Q-2.8 7.3 -3.65 7.35Q-4.45 7.4 -4.85 6.85Q-6.55 7.5 -7.4 6.1L-7.5 5.9L-7.55 5.9L-8.75 6.25L-9.75 5.6L-9.9 5.2Q-11.5 5.65 -12.1 4.6L-12.4 5.4L-12.95 6.6L-13.15 6.65L-13.25 6.45L-12.75 4.9L-12.3 3.95L-12.4 3.45L-13.1 3.15L-13.5 3.65L-14.45 4.5L-14.7 4.25L-13.5 2.75L-13.95 1.3L-13.95 1.2L-15.45 1.15Q-16.55 0.85 -17.05 0Q-17.6 -1.05 -17.55 -2.6Q-18.75 -3.2 -19.1 -4.65Q-19.55 -6.2 -18.9 -8.05L-18.85 -8.25L-19.25 -9.7L-19.7 -9.6L-20.45 -9.7L-20.5 -10L-19.25 -10.2L-19.2 -10.75Q-18.95 -12.1 -19.2 -13.55L-19.9 -16.35Q-20.35 -18.2 -18.6 -19.5L-16.95 -20.8L-17 -20.85L-17.95 -21.15L-18 -21.55Q-17.45 -21.75 -16.6 -21.15L-16.05 -21.6L-16.45 -22.1L-17.2 -23.25L-16.8 -23.3L-16 -22.65L-15.95 -22.55L-15.6 -24.15Q-15.3 -24.75 -14.75 -24.75L-14.3 -24.65Q-14.45 -26 -13.15 -26.75L-11.7 -26.8L-11.5 -27.85Q-11.15 -28.9 -10.3 -29L-9.8 -28.8Q-9.45 -30.25 -7.9 -30.9L-7.45 -30.85L-7.1 -30.45Q-7 -31.45 -5.75 -31.7Q-4.5 -32.05 -3.9 -31.15L-1.65 -31.35L-0.1 -31.55L1.6 -31.25L2.2 -30.85L2.2 -31.15L2.4 -32.05Q2.65 -32.7 3 -32.75L3.1 -32.75M5,-29.3L3.35 -29.05Q2 -28.9 1.3 -28.45Q-0.3 -27.4 -1.25 -25.35Q-2.5 -22.65 -3.15 -16.8L-3.3 -15.45L-3.25 -15.4L-3.25 -15.35L-3.25 -15L-3.4 -14.95L-3.5 -14.3L-3.65 -13.2L-3.95 -11.55L-4.65 -9.75Q-5 -9 -5.65 -8.45Q-4.65 -8.75 -4 -9.6Q-3.3 -10.55 -2.8 -12.45L-2.75 -12.8L-2.15 -15.8L-2.1 -16.1L-1.65 -18.8L-0.75 -23.25Q0.1 -25.75 1.6 -27L3.45 -28.1L4.9 -28.7L5.1 -28.85Q5.35 -29.1 5 -29.3M1.65,-30.25L0.6 -30.7L-1.4 -30.55L-3.6 -30.6L-3.6 -30.55L-3.5 -30.3L-3.15 -30.1L-2.25 -29.6Q-1.05 -28.9 0.15 -28.65Q1.05 -29.4 2.25 -29.85L2.35 -29.85L1.65 -30.25M-1.1,-16.95L-1.45 -14.75L-2.1 -11.8L-1.55 -12.15Q-0.8 -12.5 -0.5 -13Q0.15 -14 0.6 -15.6L1 -17.6L1.2 -18.8L1.75 -22Q2.35 -24.35 3.35 -25.75L4.25 -26.85Q5.15 -27.6 6.3 -27.85L7.85 -28Q9.2 -27.85 6.95 -28.85L6.05 -28.7L4.9 -27.8L2.75 -26.7Q1.65 -26 1.05 -25Q-0.3 -22.7 -0.95 -18L-1 -17.6L-1.1 -16.95M11.15,-27.15L10.6 -27.4L8.4 -27.1Q5.05 -27.15 3.55 -24.25Q3.05 -23.15 2.35 -19.8L2.3 -19.55L2.05 -18.05L2 -18L1.4 -15.35L1.05 -14.15L1.4 -14.3L2.3 -14.9L3.4 -16.9L4.05 -18.85L5.05 -21.7Q7.05 -26.7 11.45 -26.7L11.15 -27.15M9.4,-25.45L10.15 -25.15L11.85 -24.7L14.7 -24.3L14.85 -24.3L15.55 -24.15L15.2 -24.65L13.95 -25.2L12.8 -25.55Q12.45 -25.65 12.2 -25.85L11.95 -25.85L11.05 -25.8L9.4 -25.45M10.15,-24.2L9.5 -24.55L8.85 -25.15L7.45 -24Q8 -23.65 8.75 -23.35L11.2 -22.85L14.55 -22.6L15.3 -22.55L17.15 -22L16.4 -22.7Q15.75 -23.3 14.95 -23.45L12.05 -23.85L10.65 -24.05L10.15 -24.2M7.1,-23.6L7 -23.5Q6.55 -22.9 6.05 -21.7L6.9 -21.3L10.3 -20.75L15.2 -20.7L16.45 -20.45L18.2 -19.7L17.65 -20.6Q17.1 -21.25 16.1 -21.5L15.45 -21.6L12 -21.95L9.65 -22.15L9.25 -22.25Q8.3 -22.5 7.7 -22.95L7.1 -23.6M8.05,-20L6.6 -20.4L5.8 -21.05L5.2 -19.5L6.15 -19.35L6.35 -19.35L10.05 -19L15.25 -18.4L17.2 -17.75L18.9 -16.6L18.1 -18.35Q17.6 -19.25 16.4 -19.6L11.45 -19.9L11.25 -19.9L8.05 -20M17.15,-13.1L17.75 -12.45L18.45 -11.3L18.55 -11.2L18.75 -10.65L18.75 -10.95Q18.85 -12.25 18.4 -12.9L17.95 -13.5L16.8 -14.45Q15.2 -15.5 13.3 -16.1L10.85 -16.6L8.1 -16.6L7.5 -16.55L5.95 -16.5Q4.95 -16.5 4.25 -16.85L3.7 -16.05Q5 -15.15 7.7 -15.4Q10.3 -15.6 11.65 -15.35L11.85 -15.3L12.15 -15.2L12.65 -15.05L12.85 -15L14.7 -14.3L14.85 -14.25L15.45 -13.95L16.05 -13.55L17.15 -13.1M10.65,-12.8Q10.2 -11.65 9.4 -10.7Q8.1 -9.25 7.05 -8.8L6.1 -8.6L6.8 -7.05L7.6 -7.15L9 -7.7Q10.35 -8.7 11.25 -10.2Q12.15 -11.75 12.3 -12.75L12.3 -12.85L12.3 -13.1L12.1 -14.1L12 -14.4L10.95 -14.6L10.8 -13.2L10.65 -12.8M12,-9.75Q10.9 -8.05 9.45 -7Q8.65 -6.4 7.95 -6.25L7.15 -6.25L7.55 -5.4L8.3 -5.35L8.35 -5.35L8.45 -5.35L8.65 -5.35Q9.4 -5.3 10 -5.65Q11.35 -6.55 12.45 -8.15Q13.65 -10 14.1 -12.45L14.15 -12.8L14.2 -13.25L14.25 -13.65L13.2 -14.1L13.1 -12.95L13.05 -12.75L12 -9.75M6,-18.4Q5.35 -18.65 5.05 -19L4.75 -18.2L4.4 -17.2L6.95 -17.55L7.8 -17.6L11.65 -17.45Q13.45 -17.25 15.7 -16.1L17.6 -14.95L18.85 -13.65L18.55 -15.55Q18.05 -16.65 16.6 -17.15L13.45 -17.75L11.5 -17.9L7.8 -18.05L6.65 -18.2L6 -18.4M14.7,-10.25Q13.9 -8.35 12.55 -6.7Q11 -4.85 9.35 -4.45L9.15 -4.4L8.05 -4.5L8 -4.5L8.65 -3.35L9.75 -3.4L10.5 -3.6Q12.55 -4.3 14.35 -7L15.45 -8.85L15.8 -9.85L15.9 -10.15L16.35 -12.35L15.45 -13L15.3 -13.1L15.3 -13L15.05 -11.25L14.7 -10.25M2.65,-8.8L3.55 -3.6Q4 -1.8 5.25 -0.1L6.25 1.1Q7.85 2.75 8.8 3Q9.65 3.1 10.3 2.65L11.15 1.85L10 1.55L8.25 0.55L7.85 0.25Q4.95 -2 4.25 -4.45L3.15 -9.25L3.1 -9.45L3.1 -9.55L2.7 -10.95L2.45 -11.6L2.4 -11.75L1.8 -13.55Q1.3 -13.35 0.8 -13.55L0.35 -12.85L0.3 -12.75Q1.2 -12.25 1.85 -11.1Q2.35 -10.15 2.65 -8.8M4.25,-8.2Q4.75 -5 5.6 -3.3L6.35 -2.2L6.45 -2.1Q8.65 0.25 10.55 0.8L10.75 0.85Q12.1 1.2 12.8 0.35L13.3 -0.6L13.1 -0.5Q11.95 0.25 10.9 -0.1L10.55 -0.25Q9 -1 7.45 -3.6Q6.5 -5.4 5.15 -9.1L4.3 -11.35L3.75 -12.75L3.15 -14.05L2.9 -14.45L2.05 -13.7L2.55 -13.05Q3.7 -11.45 4.25 -8.2M3.3,-15.05L3.25 -15L3.4 -14.75L4 -13.7L4.45 -12.6L4.55 -12.7L5.2 -13.35L5.85 -14.3Q4.05 -14.35 3.5 -15.35L3.3 -15.05M6.75,-13L7.1 -13.6L7.4 -14.15L7.55 -14.4L6.15 -14.3L6.05 -13.4L5.95 -13.25L5.75 -12.9L5.15 -12.2L4.75 -11.9L5 -11.25L5.85 -11.95L6.1 -12.1L6.75 -13M5.25,-10.75L5.85 -9.25L6.7 -9.75L7.1 -10L7.2 -10.05L8.7 -11.35Q9.7 -12.65 9.9 -13.55L10 -13.85L10.05 -14.05L10.2 -14.65L8.65 -14.6L8.35 -14.55L8.25 -13.9L7.3 -12.15L6.3 -11.1L5.25 -10.75M0,-12.4L-0.9 -11.5L-0.5 -10.85L0.9 -7.3L2.4 -2.25L2.85 -1.05L3.55 0.75L3.6 0.85Q4.25 2.5 5.15 3.5Q6.05 4.55 6.95 4.4L8.45 3.7L8.15 3.55L7.35 3.1L5.95 2L5.55 1.6L4.5 0.25Q3 -1.95 2.45 -5.2L1.65 -9.2L1.4 -10.05L1.1 -10.75L1.05 -10.85L0 -12.4M14.2,-3.15L15.3 -4.25L16.1 -5.45L16.45 -6L17 -7.1L17.35 -8L17.5 -8.55L17.85 -10.5Q17.6 -10.9 17.5 -11.4L17.45 -11.45Q17.4 -10.6 16.95 -9.5L16.45 -8.35L14.8 -6.1Q12.9 -3.9 11.3 -3.1Q10.1 -2.55 9.05 -2.7L9.95 -1.7Q10.95 -0.8 11.9 -1.05L11.95 -1.3L13.65 -2.65L14.2 -3.15M3.8,3.4L3.1 2.05L2.6 0.9Q1.4 -1.85 0.15 -6.4L-0.2 -8L-0.25 -8.3L-0.45 -9.25L-0.65 -10.05L-1.15 -11.35L-2.3 -11.1L-2.35 -11.05L-2.9 -9.75L-2.45 -7.85L-2 -6.8L-0.25 -3.8L1.05 -0.75L1.75 0.95L2.4 2.4L2.9 3.4L3.1 3.7Q3.9 5.1 4.4 5.5Q4.85 5.85 5.15 5.35L5.3 5L3.85 3.45L3.8 3.4M-3.05,-7.15L-3.15 -7.35L-3.5 -8.7L-4.35 -7.85Q-4.3 -6.75 -3.65 -5.4L-3.45 -4.95L-1.85 -2.2L-0.75 0.5L-0.55 0.9L-0.25 1.6L1.05 4.3Q1.9 5.7 2.5 5.8L3.2 5.65L3.3 5.6Q2.7 5 2.2 4L2.15 3.9L1.75 3.05L1 1.25Q-0.4 -2.45 -1.4 -4.25L-2.4 -5.9L-3.05 -7.15M0.15,4.55L0.15 5.05L0.6 6.4L0.9 6.8L1.05 6.95L1.05 6.9L1.5 6.4L1.55 6.25L0.3 4.8L0.15 4.55M3.7,11.5L3.65 12.3Q3.35 14.2 1.85 16.35Q0.05 19.1 -0.25 21.05Q-0.65 23.9 2.2 24.9L5.1 25.65Q6.95 26.2 7.65 27.05Q8.35 27.95 8.35 29.3L8.55 31.15Q8.8 31.7 9.55 31.95L9.7 31.75Q10.55 30.3 9.65 28.2Q8.55 25.9 6.75 25.15L3.55 24.05Q1.45 23.15 0.95 22.05L0.8 21.45L0.95 20.3L1.5 18.9L3.25 16.05L3.65 15.4L4.75 13L5.1 11.5L5 9.7Q4.7 7.7 4.95 6.5L4 6.25L3.9 6.2L3.35 6.6L3.3 6.65Q3.2 7.6 3.5 9.25L3.7 10.95L3.7 11.5M-10.7,-22.85L-10.15 -20.35Q-8.65 -16.5 -5.5 -14L-4.8 -13.5L-4.7 -13.5L-4.4 -13.4L-4.1 -15.25L-4.6 -15.55Q-6.7 -17.05 -8.1 -20.95L-8.25 -21.4L-9.55 -25.7L-9.6 -25.85L-9.9 -27.4Q-10.15 -28.35 -10.8 -27.5L-11.4 -26.4L-11.05 -25.35L-10.85 -24.15L-10.7 -22.85M-5.7,-26.15L-5.25 -22.65Q-4.8 -21.15 -3.55 -19.85L-3.4 -21.05L-3.2 -21.95Q-3.7 -22.5 -3.85 -23.7L-3.9 -25L-3.95 -25.9L-3.95 -27.1L-4.15 -29.45Q-4.35 -30.6 -4.85 -30.8Q-5.75 -31.25 -6.2 -30.8L-6.7 -29.9Q-6.15 -29 -5.9 -27.7L-5.7 -26.15M-7.5,-21.55Q-6.85 -19.7 -5.75 -18.2L-4.2 -16.35L-4 -16.15L-3.95 -16.55L-3.95 -16.75L-3.65 -19.3L-3.7 -19.35Q-5.9 -20.3 -6.25 -24.25L-6.25 -24.7L-6.3 -25.25L-6.4 -26.3L-6.4 -26.5L-6.8 -28.3L-7.25 -29.45Q-7.7 -30.35 -8.1 -30.05L-9.5 -28.3L-9.15 -27.15L-8.1 -23.4L-7.5 -21.55M-1.15,-28.35Q-2.1 -28.7 -2.6 -29L-3.35 -29.5L-3.25 -29.05L-2.5 -27.75Q-2.1 -27.25 -1.6 -27.1L-1.35 -27L-0.5 -28.1L-0.3 -28.3L-1.15 -28.35M-3.15,-26.35L-2.8 -23.55L-2.45 -24.75L-1.7 -26.45L-2.1 -26.6L-2.95 -27.3L-3.2 -27.6L-3.15 -26.35M-11.8,-24.4Q-12 -25.8 -12.25 -26.05Q-12.75 -26.7 -13.8 -24.2L-13.1 -22.65L-12.95 -22.1L-12.6 -20.95L-12.1 -19.25L-10.75 -16.05Q-9.8 -14.45 -8.45 -13.35L-6.8 -12.1L-6.15 -11.65L-4.9 -11.2L-4.55 -12.5L-4.5 -12.8L-4.9 -12.9L-5 -12.95L-6.3 -13.65Q-7.75 -14.6 -9 -16.35Q-10.7 -18.65 -11.3 -21.2L-11.7 -23.95L-11.8 -24.4M-8.45,-10.95L-7.1 -9.95L-6.1 -8.95L-5.75 -9.4L-5.05 -10.75L-5.65 -10.95L-5.75 -10.95Q-7 -11.15 -8.25 -12.05L-9.4 -13.1Q-10.85 -14.65 -11.85 -16.75L-12.6 -18.95L-13.2 -21L-13.85 -23L-14.15 -23.6Q-14.6 -24.25 -15 -23.85L-15.3 -21.35L-15.25 -20.95L-15.25 -20.5L-14.7 -18.55Q-13.75 -16 -11.85 -14L-9.05 -11.4L-8.45 -10.95M-18.9,-15.5L-18.35 -13.75L-18.2 -12.85L-18.2 -11.95L-18.45 -10.85L-18.55 -9.7L-18.4 -9.15L-16.95 -11.65L-17.05 -11.75L-17.15 -13.35L-17.1 -16.8L-16.5 -18.35L-15.95 -19.15L-15.8 -19.45L-15.95 -20.9Q-16.6 -20.1 -18 -19Q-19.65 -17.7 -18.9 -15.55L-18.9 -15.5M-15.4,-18.2L-15.6 -18.7L-15.8 -18.35Q-16.6 -16.95 -16.6 -15.4L-16.5 -14L-16.5 -13.5L-16.7 -12L-16.45 -12.45Q-14.95 -14.8 -14.7 -16.55L-15.4 -18.2M-16.25,-4.7L-16.5 -2.8L-16.5 -2.55L-16.55 -2.25L-16.55 -2Q-16.45 -0.65 -15.6 -0.2L-13.95 0.35L-13.9 -0.25Q-15 -0.55 -15.2 -2.05L-15.25 -2.25Q-15.45 -3.7 -14.95 -5.4L-13.6 -9.6L-13.2 -10.8L-13.15 -10.95L-13.05 -11.2L-13.05 -11.3L-12.4 -13.45L-13.2 -14.4L-13.3 -13.45L-13.75 -12.05L-15.5 -7.3L-16 -5.65L-16.25 -4.7M-13.95,-15.4L-14.25 -15.85Q-14.35 -14.85 -15.05 -13.6L-16.85 -10.6L-18.25 -7.6L-18.45 -7.15L-18.45 -7.1L-18.5 -6.95L-18.6 -6.6L-18.6 -6.15Q-18.65 -5.15 -18.05 -4.35L-17.4 -3.7L-17.3 -4.3L-16.8 -6.1L-16.65 -6.65L-15.15 -10.7L-14.25 -12.7Q-13.7 -14 -13.6 -14.8L-13.55 -14.9L-13.8 -15.15L-13.95 -15.4M-13.3,-4.25L-12.65 -3.6L-12.45 -3.45L-11.6 -4.6L-12.1 -4.95L-13 -6.05L-13.15 -6.35L-13.45 -7.15L-13.9 -5.6L-13.55 -4.65L-13.3 -4.25M-11.35,-12.2L-11.85 -12.75Q-11.8 -11.95 -12.15 -10.75L-12.9 -8.5L-12.5 -7L-12.3 -6.55L-11.35 -5.6L-11 -5.25L-10.1 -6.15L-9.6 -6.6Q-10.3 -7.15 -10.95 -8.6L-10.95 -8.65Q-11.85 -10.65 -11.35 -12.2M-9.15,-7.4L-8.85 -7.1L-7.95 -7.6L-8 -7.65L-8.5 -8.5L-8.75 -9.35L-8.75 -9.9L-11 -11.85L-10.35 -9.2L-10.25 -9.05Q-9.75 -7.95 -9.15 -7.4M-18.15,-7.45L-18.2 -7.5L-18.1 -7.65L-18.15 -7.5L-18.15 -7.45M-12.85,-1.1Q-13.35 -0.1 -13.3 0.65Q-13.25 1.55 -12.6 2.1L-12.4 2.25Q-12.3 0.9 -11.65 -0.25L-11.5 -0.5Q-10.25 -2.85 -8.8 -4.5Q-6.85 -6.75 -4.85 -7.3L-4.75 -7.6L-4.9 -7.55L-5.35 -7.45L-6.1 -7.5L-7.6 -6.75L-8.3 -6.35L-8.4 -6.3L-9.15 -5.8L-10.4 -4.65L-10.5 -4.4L-10.65 -4.35L-11.9 -2.85L-12 -2.7L-12.85 -1.1M-13.65,-1.25L-13.05 -2.55L-12.9 -2.75Q-13.35 -2.95 -13.8 -3.7L-14.05 -4.05L-14.25 -4.45L-14.35 -3.95Q-14.55 -2.9 -14.25 -2.15L-14.2 -2L-13.65 -1.25M-8.2,-9.3L-7.8 -8.6L-7.5 -8.25L-6.7 -8.65L-6.55 -8.7L-7.8 -9.3L-8.25 -9.55L-8.2 -9.3M-4.55,-5.3Q-4.9 -6.25 -4.7 -6.5Q-6.25 -6.4 -7.8 -4.6L-10.2 -1.25L-10.95 0.15L-11.25 0.85L-11.7 2.5L-11.7 2.7L-11.65 2.75L-11.7 2.95L-11.65 3.05L-11.7 3.3Q-11.7 3.8 -11.3 3.85L-11.2 3.95L-9.95 4.85L-9.6 3L-9.3 2.1Q-7 -3.55 -4.45 -5.1L-4.5 -5.25L-4.55 -5.3M-7.5,0.4L-7.95 1.4L-8.05 1.65L-8.15 1.8L-8.9 3.9L-8.9 4.05Q-9.05 4.85 -8.8 5.1L-7.7 5.4L-7.9 4.35L-7.7 2.8Q-7.1 0.85 -6 -0.95Q-4.6 -3.2 -3.35 -3.2L-3.85 -3.95L-4.3 -4.8L-6.65 -1.2L-7.5 0.4M-7,3.7L-7.05 5.05Q-6.85 5.8 -6.05 6L-5.15 6.15L-5.25 5.7L-5.25 4.5Q-5.1 3.3 -4.35 2.1L-2.1 -0.65L-2.55 -1.7L-2.95 -2.5L-3.05 -2.7L-3.15 -2.85Q-3.55 -2.25 -4.5 -1.35L-5.35 -0.15L-6.25 1.55L-6.75 2.75L-6.85 3.05L-7 3.7M-4.2,3.75L-4.25 4L-4.3 4.05Q-4.65 5.2 -4.3 6.15Q-3.9 7 -3.2 6.5L-2.55 5.95L-2.65 5.3L-2.6 4.5L-2.3 2.9Q-1.9 1.65 -1.3 1.15L-1.7 0.25L-1.85 -0.1L-1.9 -0.25Q-3.45 1.55 -4.05 3.35L-4.15 3.7L-4.2 3.75M-1.45,6.35L-0.8 6.7L-0.1 6.9L-0.55 5.4L-0.55 5.25L-0.5 4.3L-0.3 3.8L-0.2 3.75L-0.75 2.6L-0.95 2.05L-1.15 2.65L-1.65 4.35L-1.7 4.65Q-1.85 5.85 -1.45 6.35" fill="rgb(74,5,107)" fill-opacity="1"/><path d="M-3.25,-15.35L-3.25 -15.4L-3.3 -15.45L-3.15 -16.8Q-2.5 -22.65 -1.25 -25.35Q-0.3 -27.4 1.3 -28.45Q2 -28.9 3.35 -29.05L5 -29.3Q5.35 -29.1 5.1 -28.85Q3.05 -28.85 1.25 -27.6Q-0.45 -26.45 -1.05 -24.85L-2.3 -19.35Q-2.8 -16.7 -3.25 -15.35M-1.1,-14.6Q-1.25 -14.6 -1.45 -14.75L-1.1 -16.95L-1 -17.6L1.95 -24.1Q2.4 -25 3.35 -25.75Q2.35 -24.35 1.75 -22L1.2 -18.8L1 -17.6Q-0.1 -14.6 -1.1 -14.6M11.05,-25.8Q11.6 -25.35 12.7 -25L14.7 -24.3L11.85 -24.7L10.15 -25.15L11.05 -25.8M9.5,-24.55L10.15 -24.2L10.65 -24.05Q11.35 -23.7 12.5 -23.4L14.55 -22.6L11.2 -22.85L8.75 -23.35L9.2 -23.95L9.5 -24.55M15.2,-20.7L10.3 -20.75L6.9 -21.3L7.7 -22.95Q8.3 -22.5 9.25 -22.25L9.65 -22.15L11 -21.85L13.7 -21.5L15.45 -21.1Q16.15 -20.85 16.45 -20.45L15.2 -20.7M6.6,-20.4L8.05 -20L11.25 -19.9L13.95 -19.5L16 -19.15Q16.85 -18.75 17.2 -17.75L15.25 -18.4L10.05 -19L6.35 -19.35L6.45 -19.7L6.6 -20.4M11.25,-15.6Q8.75 -15.7 7.8 -16.25L7.5 -16.55L8.1 -16.6L10.85 -16.6L14.55 -14.9L16.05 -13.55L15.45 -13.95L14.85 -14.25L14.7 -14.3L12.85 -15L12.65 -15.05L12.15 -15.2L11.85 -15.3L11.65 -15.35L11.25 -15.6M12.3,-12.75Q12.15 -11.75 11.25 -10.2Q10.35 -8.7 9 -7.7L7.6 -7.15L7.55 -7.2L7.45 -7.55L8.6 -8.25Q9.65 -8.9 9.95 -9.6L11.05 -11.5Q11.8 -12.5 12.3 -12.75M14.1,-12.45Q13.65 -10 12.45 -8.15Q11.35 -6.55 10 -5.65Q9.4 -5.3 8.65 -5.35L8.45 -5.35L8.45 -5.4Q10.65 -5.85 12.35 -8.6Q13.4 -10.3 14.1 -12.45M17.6,-14.95L15.7 -16.1Q13.45 -17.25 11.65 -17.45L7.8 -17.6L6.95 -17.55L6.8 -17.85L6.65 -18.2L7.8 -18.05L11.5 -17.9L13.45 -17.75L15.75 -16.9Q16.95 -16.25 17.6 -14.95M10.1,-3.7L13.7 -6.9L15.45 -8.85L14.35 -7Q12.55 -4.3 10.5 -3.6L10.1 -3.7M8.9,1.75Q7.8 1.75 6.35 0.8L5.25 -0.1Q4 -1.8 3.55 -3.6L2.65 -8.8Q2.35 -10.15 1.85 -11.1L2.2 -11.1L2.45 -11.6L2.7 -10.95L3.1 -9.55L3.1 -9.45L3.15 -9.25L3.6 -6.25L4.2 -2.5Q4.7 -1.15 6.2 -0.45L7.85 0.25L8.25 0.55L10 1.55L8.9 1.75M6,-4.9Q7.2 -1.55 9.15 -0.55L7.8 -1L6.45 -2.1L6.35 -2.2L5.6 -3.3Q4.75 -5 4.25 -8.2Q3.7 -11.45 2.55 -13.05Q2.55 -13.45 3 -13.9L3.15 -14.05L3.75 -12.75L4.3 -11.35Q5.5 -6.2 6 -4.9M8.7,-11.35L7.2 -10.05L8.15 -12.25Q8.75 -13.1 9.65 -13.65L9.9 -13.55Q9.7 -12.65 8.7 -11.35M6.85,3.4Q6.05 3.4 4.65 2.05L3.6 0.85L3.55 0.75L2.85 -1.05L2.4 -2.25L0.9 -7.3L-0.5 -10.85L0.25 -10.75L0.9 -10.85L1.05 -10.85L1.1 -10.75L1.4 -10.05L1.65 -9.2L2.45 -5.2Q3 -1.95 4.5 0.25L5.55 1.6L5.95 2L7.35 3.1L6.85 3.4M16.45,-6.4L16.45 -6L16.1 -5.45L15.3 -4.25L14.2 -3.15L13.65 -2.65L12.75 -2.6L12.4 -2.6L15.35 -5.2L16.45 -6.4M-0.65,-10.05L-0.45 -9.25L-0.25 -8.3L-0.2 -8L-0.2 -5.5L1.2 -1.35Q2 1 3.1 2.05L3.8 3.4L3.85 3.45Q3.2 3.25 2.55 2.55L2.4 2.4L1.75 0.95L1.05 -0.75L-0.25 -3.8L-2 -6.8L-2.45 -7.85L-1.7 -7.85Q-0.95 -8.5 -0.75 -9.35L-0.65 -10.05M-3.15,-7.35L-3.05 -7.15L-2.4 -5.9Q-1.9 -4.1 -0.8 -1.85L1.75 3.05L2.15 3.9L1.95 3.9L0.5 2.4L-0.25 1.6L-0.55 0.9L-0.75 0.5L-1.85 -2.2L-3.45 -4.95L-3.65 -5.4L-3.3 -6.85L-3.15 -7.35M5.1,11.5L4.75 13L3.65 15.4L3.25 16.05L1.5 18.9L0.95 20.3L0.8 21.45L0.95 22.05Q1.45 23.15 3.55 24.05L6.75 25.15Q8.55 25.9 9.65 28.2Q10.55 30.3 9.7 31.75L9.55 31.95Q8.8 31.7 8.55 31.15L8.35 29.3Q8.35 27.95 7.65 27.05Q6.95 26.2 5.1 25.65L2.2 24.9Q-0.65 23.9 -0.25 21.05Q0.05 19.1 1.85 16.35Q3.35 14.2 3.65 12.3L3.7 11.5L3.7 10.95L3.95 10.75Q4.55 10.75 5.1 11.5M-4.95,-14.75L-5.5 -14Q-8.65 -16.5 -10.15 -20.35L-10.7 -22.85L-10.85 -24.15L-10.85 -24.25Q-10.45 -26 -9.95 -26L-9.55 -25.7L-8.25 -21.4L-8.1 -20.95Q-6.7 -17.05 -4.6 -15.55L-4.95 -14.75M-3.95,-27.1L-3.95 -25.9L-3.9 -25L-3.85 -23.7Q-3.7 -22.5 -3.2 -21.95L-3.4 -21.05L-3.55 -19.85Q-4.8 -21.15 -5.25 -22.65L-5.7 -26.15L-5.9 -27.7L-5.7 -28.35Q-5.25 -29.6 -5 -29.6Q-4.4 -29.6 -4.1 -27.9L-3.95 -27.1M-6.4,-26.5L-6.4 -26.3L-6.3 -25.25L-6.25 -24.7L-6.25 -24.25Q-5.9 -20.3 -3.7 -19.35L-3.65 -19.3L-3.95 -16.75L-3.95 -16.55L-4 -16.15L-4.2 -16.35L-5.75 -18.2Q-6.85 -19.7 -7.5 -21.55L-8.1 -23.4L-8.2 -24.85Q-8.2 -26.8 -7.55 -28.1Q-6.7 -27.4 -6.4 -26.5M-8.45,-13.35Q-9.8 -14.45 -10.75 -16.05L-12.1 -19.25L-12.6 -20.95L-12.7 -22.25L-12.45 -24.25Q-12 -24.2 -11.7 -23.95L-11.3 -21.2Q-10.7 -18.65 -9 -16.35Q-7.75 -14.6 -6.3 -13.65L-6.55 -12.7L-6.8 -12.1L-8.45 -13.35M-13.2,-21L-12.6 -18.95L-11.85 -16.75Q-10.85 -14.65 -9.4 -13.1L-8.25 -12.05L-8.65 -11.65Q-8.85 -11.45 -9.05 -11.4L-11.85 -14Q-13.75 -16 -14.7 -18.55L-14.8 -20.25L-14.7 -22Q-14.5 -22.95 -13.85 -23L-13.2 -21M-18.2,-12.85L-18.35 -13.75L-18.9 -15.5L-18.9 -15.55L-17.75 -17.6Q-16.75 -18.85 -15.95 -19.15L-16.5 -18.35L-17.1 -16.8L-17.15 -13.35L-18.2 -12.85M-16.6,-15.4Q-16.6 -16.95 -15.8 -18.35L-15.6 -18.7L-15.4 -18.2Q-15.45 -16.95 -15.65 -16.15Q-15.95 -14.85 -16.5 -14L-16.6 -15.4M-15.7,-2Q-16.2 -2 -16.5 -2.55L-16.5 -2.8L-16.25 -4.7L-16 -5.65L-14.1 -8.85L-13.2 -10.8L-13.6 -9.6L-14.95 -5.4Q-15.45 -3.7 -15.25 -2.25L-15.2 -2.05L-15.7 -2M-16.9,-6Q-17.1 -5.75 -17.55 -5.75Q-18.35 -5.75 -18.6 -6.15L-18.6 -6.6L-18.5 -6.95L-18.45 -7.1L-18.45 -7.15L-18.25 -7.6L-15.45 -11.1Q-13.8 -13.1 -13.8 -15.15L-13.55 -14.9L-13.6 -14.8Q-13.7 -14 -14.25 -12.7L-15.15 -10.7L-16.65 -6.65L-16.8 -6.1L-16.9 -6M-18.15,-7.5L-18.1 -7.65L-18.2 -7.5L-18.15 -7.45L-18.15 -7.5M-9.3,-5.1L-11.25 -3.4L-12 -2.7L-11.9 -2.85L-10.65 -4.35L-10.5 -4.4L-10.4 -4.65L-9.15 -5.8L-8.4 -6.3L-8.3 -6.35L-7.6 -6.75L-6.1 -7.5L-5.35 -7.45L-9.3 -5.1M-10.95,0.15L-10.2 -1.25L-7.8 -4.6Q-6.25 -6.4 -4.7 -6.5Q-4.9 -6.25 -4.55 -5.3L-4.5 -5.25Q-5.85 -5.2 -7.8 -3.2L-10.95 0.15M-6.65,-1.2L-4.3 -4.8L-3.85 -3.95Q-5.55 -2.7 -6.65 -1.2M-4.5,-1.35Q-3.55 -2.25 -3.15 -2.85L-3.05 -2.7L-2.95 -2.5L-2.55 -1.7Q-3.65 -1.95 -4.95 -0.6L-5.35 -0.15L-4.5 -1.35M-2.55,1.65L-4.15 3.7L-4.05 3.35Q-3.45 1.55 -1.9 -0.25L-1.85 -0.1L-1.7 0.25L-2.55 1.65" fill="rgb(207,109,255)" fill-opacity="1"/><path d="M-3.85,-11.5L-3.95 -11.55L-3.65 -13.2L-3.5 -14.3L-3.4 -14.95L-3.25 -15L-3.25 -15.35Q-2.8 -16.7 -2.3 -19.35L-1.05 -24.85Q-0.45 -26.45 1.25 -27.6Q3.05 -28.85 5.1 -28.85L4.9 -28.7L3.45 -28.1L1.6 -27Q0.1 -25.75 -0.75 -23.25L-1.65 -18.8L-2.1 -16.1L-2.15 -15.8L-2.75 -12.8L-2.8 -12.45Q-3.3 -11.5 -3.85 -11.5M2.35,-29.85L2.25 -29.85Q1.05 -29.4 0.15 -28.65Q-1.05 -28.9 -2.25 -29.6L-3.15 -30.1L-3.5 -30.3L-3.6 -30.55L-3.6 -30.6L-1.4 -30.55L0.6 -30.7L1.65 -30.25L2.35 -29.85M1,-17.6L0.6 -15.6Q0.15 -14 -0.5 -13Q-0.8 -12.5 -1.55 -12.15L-2.1 -11.8L-1.45 -14.75Q-1.25 -14.6 -1.1 -14.6Q-0.1 -14.6 1 -17.6M11.45,-26.7Q7.05 -26.7 5.05 -21.7L4.05 -18.85L3.4 -16.9L2.3 -14.9L1.4 -14.3L1.05 -14.15L1.4 -15.35L2 -18L2.05 -18.05L2.3 -19.55L2.35 -19.8L3 -21.15L3.95 -23Q5.55 -25.3 6.45 -25.75Q7.55 -26.4 8.8 -26.85L9.95 -27.1L10.7 -27L10.7 -26.85L11.15 -27.15L11.45 -26.7M11.05,-11.5L9.95 -9.6Q9.65 -8.9 8.6 -8.25L7.45 -7.55L7.05 -8.8Q8.1 -9.25 9.4 -10.7Q10.2 -11.65 10.65 -12.8L10.8 -13.2L12.3 -12.85L12.3 -12.75Q11.8 -12.5 11.05 -11.5M12.35,-8.6Q10.65 -5.85 8.45 -5.4L8.05 -6L7.95 -6.25Q8.65 -6.4 9.45 -7Q10.9 -8.05 12 -9.75L13.05 -12.75L13.65 -12.75L14.15 -12.8L14.1 -12.45Q13.4 -10.3 12.35 -8.6M13.7,-6.9L10.1 -3.7L10.05 -3.75L9.15 -4.4L9.35 -4.45Q11 -4.85 12.55 -6.7Q13.9 -8.35 14.7 -10.25L15.05 -11.25L15.9 -10.15L15.8 -9.85L15.45 -8.85L13.7 -6.9M6.1,-12.1L6.05 -12.3L6.05 -13.25L7.1 -13.6L6.75 -13L6.1 -12.1M8.25,-13.9L8.8 -14L9.65 -13.65Q8.75 -13.1 8.15 -12.25L7.2 -10.05L7.1 -10L6.7 -9.75L6.3 -11.1L7.3 -12.15L8.25 -13.9M15.35,-5.2L12.4 -2.6L11.5 -2.95L11.3 -3.1Q12.9 -3.9 14.8 -6.1L16.45 -8.35L16.45 -7.3L16.45 -6.4L15.35 -5.2M-4.6,-15.55L-4.1 -15.25L-4.4 -13.4L-4.7 -13.5L-4.8 -13.5L-5.5 -14L-4.95 -14.75L-4.6 -15.55M-5,-12.95L-4.9 -12.9L-4.5 -12.8L-4.55 -12.5L-4.9 -11.2L-6.15 -11.65L-6.8 -12.1L-6.55 -12.7L-6.3 -13.65L-5 -12.95M-9.05,-11.4Q-8.85 -11.45 -8.65 -11.65L-8.25 -12.05Q-7 -11.15 -5.75 -10.95L-5.65 -10.95L-5.05 -10.75L-5.75 -9.4L-6.1 -8.95L-7.1 -9.95L-8.45 -10.95L-9.05 -11.4M-13,-6.05L-12.1 -4.95L-11.6 -4.6L-12.45 -3.45L-12.65 -3.6L-13.3 -4.25L-13.55 -4.65L-13 -6.05M-10.95,-8.65L-10.95 -8.6Q-10.3 -7.15 -9.6 -6.6L-10.1 -6.15L-11 -5.25L-11.35 -5.6L-12.3 -6.55L-12.5 -7L-10.95 -8.65M-10.25,-9.05L-8.75 -9.35L-8.5 -8.5L-8 -7.65L-7.95 -7.6L-8.85 -7.1L-9.15 -7.4Q-9.75 -7.95 -10.25 -9.05M-11.6,-0.5Q-12.65 -0.5 -12.85 -1.1L-12 -2.7L-11.25 -3.4L-9.3 -5.1L-5.35 -7.45L-4.9 -7.55L-4.75 -7.6L-4.85 -7.3Q-6.85 -6.75 -8.8 -4.5Q-10.25 -2.85 -11.5 -0.5L-11.6 -0.5M-13.8,-3.7Q-13.35 -2.95 -12.9 -2.75L-13.05 -2.55L-13.65 -1.25L-14.2 -2L-13.8 -3.7M-8.25,-9.55L-7.8 -9.3L-6.55 -8.7L-6.7 -8.65L-7.5 -8.25L-7.8 -8.6L-8.2 -9.3L-8.25 -9.55M-9.7,3Q-10.6 3 -11 1.95L-11.25 0.85L-10.95 0.15L-7.8 -3.2Q-5.85 -5.2 -4.5 -5.25L-4.45 -5.1Q-7 -3.55 -9.3 2.1L-9.6 3L-9.7 3M-8.25,4.5Q-8.75 4.5 -8.9 4.05L-8.9 3.9L-8.15 1.8L-8.05 1.65L-7.95 1.4L-7.5 0.4L-6.65 -1.2Q-5.55 -2.7 -3.85 -3.95L-3.35 -3.2Q-4.6 -3.2 -6 -0.95Q-7.1 0.85 -7.7 2.8L-7.9 4.35L-8.25 4.5M-2.1,-0.65L-4.35 2.1Q-5.1 3.3 -5.25 4.5L-5.5 4.5Q-6.4 4.5 -6.8 3.3L-6.85 3.05L-6.75 2.75L-6.25 1.55L-5.35 -0.15L-4.95 -0.6Q-3.65 -1.95 -2.55 -1.7L-2.1 -0.65M-3.5,5.15Q-4.1 5.15 -4.25 4L-4.2 3.75L-4.15 3.7L-2.55 1.65L-1.7 0.25L-1.3 1.15Q-1.9 1.65 -2.3 2.9L-2.6 4.5L-3.5 5.15M-0.75,5.4Q-1.3 5.4 -1.7 4.65L-1.65 4.35L-1.15 2.65L-0.95 2.05L-0.75 2.6L-0.2 3.75L-0.3 3.8L-0.5 4.3L-0.55 5.25L-0.55 5.4L-0.75 5.4" fill="rgb(161,63,208)" fill-opacity="1"/><path d="M-2.8,-12.45Q-3.3 -10.55 -4 -9.6Q-4.65 -8.75 -5.65 -8.45Q-5 -9 -4.65 -9.75L-3.95 -11.55L-3.85 -11.5Q-3.3 -11.5 -2.8 -12.45M10.15,-25.15L9.4 -25.45L11.05 -25.8L10.15 -25.15M9.2,-23.95L8.75 -23.35Q8 -23.65 7.45 -24L8.85 -25.15L9.5 -24.55L9.2 -23.95M7.7,-22.95L6.9 -21.3L6.05 -21.7Q6.55 -22.9 7 -23.5L7.1 -23.6L7.7 -22.95M6.45,-19.7L6.35 -19.35L6.15 -19.35L5.2 -19.5L5.8 -21.05L6.6 -20.4L6.45 -19.7M11.65,-15.35Q10.3 -15.6 7.7 -15.4Q5 -15.15 3.7 -16.05L4.25 -16.85Q4.95 -16.5 5.95 -16.5L7.5 -16.55L7.8 -16.25Q8.75 -15.7 11.25 -15.6L11.65 -15.35M10.8,-13.2L10.95 -14.6L12 -14.4L12.1 -14.1L12.3 -13.1L12.3 -12.85L10.8 -13.2M7.45,-7.55L7.55 -7.2L7.6 -7.15L6.8 -7.05L6.1 -8.6L7.05 -8.8L7.45 -7.55M13.65,-12.75L13.05 -12.75L13.1 -12.95L13.2 -14.1L14.25 -13.65L14.2 -13.25L14.15 -12.8L13.65 -12.75M8.45,-5.4L8.45 -5.35L8.35 -5.35L8.3 -5.35L7.55 -5.4L7.15 -6.25L7.95 -6.25L8.05 -6L8.45 -5.4M6.95,-17.55L4.4 -17.2L4.75 -18.2L5.05 -19Q5.35 -18.65 6 -18.4L6.65 -18.2L6.8 -17.85L6.95 -17.55M15.05,-11.25L15.3 -13L15.3 -13.1L15.45 -13L16.35 -12.35L15.9 -10.15L15.05 -11.25M10.5,-3.6L9.75 -3.4L8.65 -3.35L8 -4.5L8.05 -4.5L9.15 -4.4L10.05 -3.75L10.1 -3.7L10.5 -3.6M2.2,-11.1L1.85 -11.1Q1.2 -12.25 0.3 -12.75L0.35 -12.85L0.8 -13.55Q1.3 -13.35 1.8 -13.55L2.4 -11.75L2.45 -11.6L2.2 -11.1M10,1.55L11.15 1.85L10.3 2.65Q9.65 3.1 8.8 3Q7.85 2.75 6.25 1.1L5.25 -0.1L6.35 0.8Q7.8 1.75 8.9 1.75L10 1.55M3,-13.9Q2.55 -13.45 2.55 -13.05L2.05 -13.7L2.9 -14.45L3.15 -14.05L3 -13.9M10.55,-0.25L10.9 -0.1Q11.95 0.25 13.1 -0.5L13.3 -0.6L12.8 0.35Q12.1 1.2 10.75 0.85L10.55 0.8Q8.65 0.25 6.45 -2.1L7.8 -1L9.15 -0.55L10.55 -0.25M3.5,-15.35Q4.05 -14.35 5.85 -14.3L5.2 -13.35L4.55 -12.7L4.45 -12.6L4 -13.7L3.4 -14.75L3.25 -15L3.3 -15.05L3.5 -15.35M6.05,-13.25L6.05 -12.3L6.1 -12.1L5.85 -11.95L5 -11.25L4.75 -11.9L5.15 -12.2L5.75 -12.9L5.95 -13.25L6.05 -13.4L6.15 -14.3L7.55 -14.4L7.4 -14.15L7.1 -13.6L6.05 -13.25M8.8,-14L8.25 -13.9L8.35 -14.55L8.65 -14.6L10.2 -14.65L10.05 -14.05L10 -13.85L9.9 -13.55L9.65 -13.65L8.8 -14M6.3,-11.1L6.7 -9.75L5.85 -9.25L5.25 -10.75L6.3 -11.1M7.35,3.1L8.15 3.55L8.45 3.7L6.95 4.4Q6.05 4.55 5.15 3.5Q4.25 2.5 3.6 0.85L4.65 2.05Q6.05 3.4 6.85 3.4L7.35 3.1M-0.5,-10.85L-0.9 -11.5L0 -12.4L1.05 -10.85L0.9 -10.85L0.25 -10.75L-0.5 -10.85M11.5,-2.95L12.4 -2.6L12.75 -2.6L13.65 -2.65L11.95 -1.3L11.9 -1.05Q10.95 -0.8 9.95 -1.7L9.05 -2.7Q10.1 -2.55 11.3 -3.1L11.5 -2.95M16.45,-6.4L16.45 -7.3L16.45 -8.35L16.95 -9.5Q17.4 -10.6 17.45 -11.45L17.5 -11.4Q17.6 -10.9 17.85 -10.5L17.5 -8.55L17.35 -8L17 -7.1L16.45 -6L16.45 -6.4M2.55,2.55Q3.2 3.25 3.85 3.45L5.3 5L5.15 5.35Q4.85 5.85 4.4 5.5Q3.9 5.1 3.1 3.7L2.9 3.4L2.4 2.4L2.55 2.55M-0.75,-9.35Q-0.95 -8.5 -1.7 -7.85L-2.45 -7.85L-2.9 -9.75L-2.35 -11.05L-2.3 -11.1L-1.15 -11.35L-0.65 -10.05L-0.75 -9.35M2.15,3.9L2.2 4Q2.7 5 3.3 5.6L3.2 5.65L2.5 5.8Q1.9 5.7 1.05 4.3L-0.25 1.6L0.5 2.4L1.95 3.9L2.15 3.9M-3.3,-6.85L-3.65 -5.4Q-4.3 -6.75 -4.35 -7.85L-3.5 -8.7L-3.15 -7.35L-3.3 -6.85M0.3,4.8L1.55 6.25L1.5 6.4L1.05 6.9L1.05 6.95L0.9 6.8L0.6 6.4L0.15 5.05L0.15 4.55L0.3 4.8M3.95,10.75L3.7 10.95L3.5 9.25Q3.2 7.6 3.3 6.65L3.35 6.6L3.9 6.2L4 6.25L4.95 6.5Q4.7 7.7 5 9.7L5.1 11.5Q4.55 10.75 3.95 10.75M-0.3,-28.3L-0.5 -28.1L-1.35 -27L-1.6 -27.1Q-2.1 -27.25 -2.5 -27.75L-3.25 -29.05L-3.35 -29.5L-2.6 -29Q-2.1 -28.7 -1.15 -28.35L-0.3 -28.3M-3.2,-27.6L-2.95 -27.3L-2.1 -26.6L-1.7 -26.45L-2.45 -24.75L-2.8 -23.55L-3.15 -26.35L-3.2 -27.6M-17.15,-13.35L-17.05 -11.75L-16.95 -11.65L-18.4 -9.15L-18.55 -9.7L-18.45 -10.85L-18.2 -11.95L-18.2 -12.85L-17.15 -13.35M-14.7,-16.55Q-14.95 -14.8 -16.45 -12.45L-16.7 -12L-16.5 -13.5L-16.5 -14Q-15.95 -14.85 -15.65 -16.15Q-15.45 -16.95 -15.4 -18.2L-14.7 -16.55M-15.2,-2.05Q-15 -0.55 -13.9 -0.25L-13.95 0.35L-15.6 -0.2Q-16.45 -0.65 -16.55 -2L-16.55 -2.25L-16.5 -2.55Q-16.2 -2 -15.7 -2L-15.2 -2.05M-16.8,-6.1L-17.3 -4.3L-17.4 -3.7L-18.05 -4.35Q-18.65 -5.15 -18.6 -6.15Q-18.35 -5.75 -17.55 -5.75Q-17.1 -5.75 -16.9 -6L-16.8 -6.1M-13.55,-4.65L-13.9 -5.6L-13.45 -7.15L-13.15 -6.35L-13 -6.05L-13.55 -4.65M-12.5,-7L-12.9 -8.5L-12.15 -10.75Q-11.8 -11.95 -11.85 -12.75L-11.35 -12.2Q-11.85 -10.65 -10.95 -8.65L-12.5 -7M-10.25,-9.05L-10.35 -9.2L-11 -11.85L-8.75 -9.9L-8.75 -9.35L-10.25 -9.05M-11.5,-0.5L-11.65 -0.25Q-12.3 0.9 -12.4 2.25L-12.6 2.1Q-13.25 1.55 -13.3 0.65Q-13.35 -0.1 -12.85 -1.1Q-12.65 -0.5 -11.6 -0.5L-11.5 -0.5M-14.2,-2L-14.25 -2.15Q-14.55 -2.9 -14.35 -3.95L-14.25 -4.45L-14.05 -4.05L-13.8 -3.7L-14.2 -2M-9.6,3L-9.95 4.85L-11.2 3.95L-11.3 3.85Q-11.7 3.8 -11.7 3.3L-11.65 3.05L-11.7 2.95L-11.65 2.75L-11.7 2.7L-11.7 2.5L-11.25 0.85L-11 1.95Q-10.6 3 -9.7 3L-9.6 3M-7.9,4.35L-7.7 5.4L-8.8 5.1Q-9.05 4.85 -8.9 4.05Q-8.75 4.5 -8.25 4.5L-7.9 4.35M-6.85,3.05L-6.8 3.3Q-6.4 4.5 -5.5 4.5L-5.25 4.5L-5.25 5.7L-5.15 6.15L-6.05 6Q-6.85 5.8 -7.05 5.05L-7 3.7L-6.85 3.05M-2.6,4.5L-2.65 5.3L-2.55 5.95L-3.2 6.5Q-3.9 7 -4.3 6.15Q-4.65 5.2 -4.3 4.05L-4.25 4Q-4.1 5.15 -3.5 5.15L-2.6 4.5M-0.55,5.4L-0.1 6.9L-0.8 6.7L-1.45 6.35Q-1.85 5.85 -1.7 4.65Q-1.3 5.4 -0.75 5.4L-0.55 5.4" fill="rgb(113,23,156)" fill-opacity="1"/><path d="M1.95,-24.1L-1 -17.6L-0.95 -18Q-0.3 -22.7 1.05 -25Q1.65 -26 2.75 -26.7L4.9 -27.8L6.05 -28.7L6.95 -28.85Q9.2 -27.85 7.85 -28L6.3 -27.85Q5.15 -27.6 4.25 -26.85L3.35 -25.75Q2.4 -25 1.95 -24.1M3.55,-24.25Q5.05 -27.15 8.4 -27.1L10.6 -27.4L11.15 -27.15L10.7 -26.85L10.7 -27L9.95 -27.1L8.8 -26.85Q7.55 -26.4 6.45 -25.75Q5.55 -25.3 3.95 -23L3 -21.15L2.35 -19.8Q3.05 -23.15 3.55 -24.25M12.7,-25Q11.6 -25.35 11.05 -25.8L11.95 -25.85L12.2 -25.85Q12.45 -25.65 12.8 -25.55L13.95 -25.2L15.2 -24.65L15.55 -24.15L14.85 -24.3L14.7 -24.3L12.7 -25M12.5,-23.4Q11.35 -23.7 10.65 -24.05L12.05 -23.85L14.95 -23.45Q15.75 -23.3 16.4 -22.7L17.15 -22L15.3 -22.55L14.55 -22.6L12.5 -23.4M12,-21.95L15.45 -21.6L16.1 -21.5Q17.1 -21.25 17.65 -20.6L18.2 -19.7L16.45 -20.45Q16.15 -20.85 15.45 -21.1L13.7 -21.5L11 -21.85L9.65 -22.15L12 -21.95M16,-19.15L13.95 -19.5L11.25 -19.9L11.45 -19.9L16.4 -19.6Q17.6 -19.25 18.1 -18.35L18.9 -16.6L17.2 -17.75Q16.85 -18.75 16 -19.15M10.85,-16.6L13.3 -16.1Q15.2 -15.5 16.8 -14.45L17.95 -13.5L18.4 -12.9Q18.85 -12.25 18.75 -10.95L18.75 -10.65L18.55 -11.2L18.45 -11.3L17.75 -12.45L17.15 -13.1L16.05 -13.55L14.55 -14.9L10.85 -16.6M15.75,-16.9L13.45 -17.75L16.6 -17.15Q18.05 -16.65 18.55 -15.55L18.85 -13.65L17.6 -14.95Q16.95 -16.25 15.75 -16.9M6.2,-0.45Q4.7 -1.15 4.2 -2.5L3.6 -6.25L3.15 -9.25L4.25 -4.45Q4.95 -2 7.85 0.25L6.2 -0.45M9.15,-0.55Q7.2 -1.55 6 -4.9Q5.5 -6.2 4.3 -11.35L5.15 -9.1Q6.5 -5.4 7.45 -3.6Q9 -1 10.55 -0.25L9.15 -0.55M1.2,-1.35L-0.2 -5.5L-0.2 -8L0.15 -6.4Q1.4 -1.85 2.6 0.9L3.1 2.05Q2 1 1.2 -1.35M-0.8,-1.85Q-1.9 -4.1 -2.4 -5.9L-1.4 -4.25Q-0.4 -2.45 1 1.25L1.75 3.05L-0.8 -1.85M-9.95,-26Q-10.45 -26 -10.85 -24.25L-10.85 -24.15L-11.05 -25.35L-11.4 -26.4L-10.8 -27.5Q-10.15 -28.35 -9.9 -27.4L-9.6 -25.85L-9.55 -25.7L-9.95 -26M-4.1,-27.9Q-4.4 -29.6 -5 -29.6Q-5.25 -29.6 -5.7 -28.35L-5.9 -27.7Q-6.15 -29 -6.7 -29.9L-6.2 -30.8Q-5.75 -31.25 -4.85 -30.8Q-4.35 -30.6 -4.15 -29.45L-3.95 -27.1L-4.1 -27.9M-7.55,-28.1Q-8.2 -26.8 -8.2 -24.85L-8.1 -23.4L-9.15 -27.15L-9.5 -28.3L-8.1 -30.05Q-7.7 -30.35 -7.25 -29.45L-6.8 -28.3L-6.4 -26.5Q-6.7 -27.4 -7.55 -28.1M-11.7,-23.95Q-12 -24.2 -12.45 -24.25L-12.7 -22.25L-12.6 -20.95L-12.95 -22.1L-13.1 -22.65L-13.8 -24.2Q-12.75 -26.7 -12.25 -26.05Q-12 -25.8 -11.8 -24.4L-11.7 -23.95M-15.25,-20.5L-15.25 -20.95L-15.3 -21.35L-15 -23.85Q-14.6 -24.25 -14.15 -23.6L-13.85 -23Q-14.5 -22.95 -14.7 -22L-14.8 -20.25L-14.7 -18.55L-15.25 -20.5M-17.75,-17.6L-18.9 -15.55Q-19.65 -17.7 -18 -19Q-16.6 -20.1 -15.95 -20.9L-15.8 -19.45L-15.95 -19.15Q-16.75 -18.85 -17.75 -17.6M-14.1,-8.85L-16 -5.65L-15.5 -7.3L-13.75 -12.05L-13.3 -13.45L-13.2 -14.4L-12.4 -13.45L-13.05 -11.3L-13.05 -11.2L-13.15 -10.95L-13.2 -10.8L-14.1 -8.85M-18.25,-7.6L-16.85 -10.6L-15.05 -13.6Q-14.35 -14.85 -14.25 -15.85L-13.95 -15.4L-13.8 -15.15Q-13.8 -13.1 -15.45 -11.1L-18.25 -7.6" fill="rgb(229,156,255)" fill-opacity="1"/></g></g></g></g></g></g></svg>
